<?xml version="1.0" encoding="utf-8"?>
<!-- Generator: Adobe Illustrator 24.0.0, SVG Export Plug-In . SVG Version: 6.00 Build 0)  -->
<svg version="1.1" id="Layer_1" xmlns="http://www.w3.org/2000/svg" xmlns:xlink="http://www.w3.org/1999/xlink" x="0px" y="0px"
	 viewBox="0 0 500 500" style="enable-background:new 0 0 500 500;" xml:space="preserve">
<style type="text/css">
	.st0{fill:#7C7D7D;}
	.st1{fill:#0C0A08;}
	.st2{fill:#5A5D5D;}
	.st3{fill:#D2D4D5;}
	.st4{fill:#DE8CAB;}
	.st5{fill:#F1A055;}
	.st6{fill:#4D2A16;}
	.st7{fill:#FDE6C4;}
	.st8{fill:#DE893A;}
	.st9{fill:#EEA150;}
	.st10{fill:#F66669;}
	.st11{fill:#FDE6C4;stroke:#4D2A16;stroke-width:1.3386;stroke-linecap:round;stroke-linejoin:round;stroke-miterlimit:10;}
	.st12{fill:none;stroke:#4D2A16;stroke-width:1.3386;stroke-linecap:round;stroke-linejoin:round;stroke-miterlimit:10;}
	.st13{fill:#FFFFFF;}
	.st14{fill:#E64825;}
	.st15{fill:#FDCD4D;}
	.st16{fill:#FDE6CA;}
	.st17{fill:#5E3E2C;}
	.st18{fill:#B37951;}
	.st19{fill:#FFD7AE;}
	.st20{fill:#C1845B;}
	.st21{fill:#39231B;}
	.st22{fill:#FDD9AA;}
	.st23{fill:#906045;}
	.st24{fill:#F1B275;}
	.st25{fill:#F6595D;}
	.st26{fill:#F8E694;}
	.st27{fill:#8AA34F;}
	.st28{fill:#778C46;}
	.st29{fill:#EB96C4;}
	.st30{fill:#B1B6CA;}
	.st31{fill:#CBD0E4;}
	.st32{fill:#E7E7E7;}
	.st33{fill:#B4B3DE;}
	.st34{fill:#9493BA;}
	.st35{fill:#F9B0CD;}
	.st36{fill:#9B9ABF;}
	.st37{fill:#FEFEFE;}
	.st38{fill:#4C4B59;}
	.st39{fill:#41414D;}
	.st40{fill:#12021F;}
	.st41{fill:#679436;}
	.st42{fill:#FFFAC9;}
	.st43{fill:#A9D07F;}
	.st44{fill:#362113;}
	.st45{fill:#FEAD30;}
	.st46{fill:#FFCD4C;}
	.st47{fill:none;stroke:#4D2A16;stroke-width:1.1457;stroke-linecap:round;stroke-linejoin:round;stroke-miterlimit:10;}
	.st48{fill:#573929;}
	.st49{fill:#FFD7AE;stroke:#573929;stroke-width:1.3386;stroke-linecap:round;stroke-linejoin:round;stroke-miterlimit:10;}
	.st50{fill:none;stroke:#573929;stroke-width:1.3386;stroke-linecap:round;stroke-linejoin:round;stroke-miterlimit:10;}
	.st51{fill:#906045;stroke:#39231B;stroke-width:1.2711;stroke-linecap:round;stroke-linejoin:round;stroke-miterlimit:10;}
	.st52{fill:none;stroke:#39231B;stroke-width:1.2711;stroke-linecap:round;stroke-linejoin:round;stroke-miterlimit:10;}
	.st53{fill:#B6B6B6;}
	.st54{fill:#636666;}
	.st55{fill:#D2D4D1;}
	.st56{fill:#DE769D;}
	.st57{fill:#D2D4D5;stroke:#0C0A08;stroke-width:0.9823;stroke-linecap:round;stroke-linejoin:round;stroke-miterlimit:10;}
	.st58{fill:none;stroke:#0C0A08;stroke-width:1.0184;stroke-linecap:round;stroke-linejoin:round;stroke-miterlimit:10;}
	.st59{fill:#4B4A58;}
	.st60{fill:#FFFDFF;stroke:#12021F;stroke-width:1.1279;stroke-linecap:round;stroke-linejoin:round;stroke-miterlimit:10;}
	.st61{fill:none;stroke:#12021F;stroke-width:1.1279;stroke-linecap:round;stroke-linejoin:round;stroke-miterlimit:10;}
	.st62{fill:#A8D182;}
	.st63{fill:#8AB365;}
	.st64{fill:#F8E694;stroke:#39231B;stroke-width:1.0444;stroke-linecap:round;stroke-linejoin:round;stroke-miterlimit:10;}
	.st65{fill:#E7E6E9;}
	.st66{fill:#B6B8CD;}
	.st67{fill:#E376B1;}
	.st68{fill:#8281A3;}
	.st69{fill:#BAB9E6;}
	.st70{fill:none;}
	.st71{fill:#FDE6C4;stroke:#4D2A16;stroke-width:4.95;stroke-linecap:round;stroke-linejoin:round;stroke-miterlimit:10;}
	.st72{fill:none;stroke:#4D2A16;stroke-width:4.95;stroke-linecap:round;stroke-linejoin:round;stroke-miterlimit:10;}
	.st73{fill:#FDE6C4;stroke:#4D2A16;stroke-width:4.5341;stroke-linecap:round;stroke-linejoin:round;stroke-miterlimit:10;}
	.st74{fill:none;stroke:#4D2A16;stroke-width:3.8807;stroke-linecap:round;stroke-linejoin:round;stroke-miterlimit:10;}
	.st75{fill:#FFD7AE;stroke:#573929;stroke-width:4.8275;stroke-linecap:round;stroke-linejoin:round;stroke-miterlimit:10;}
	.st76{fill:none;stroke:#573929;stroke-width:4.8275;stroke-linecap:round;stroke-linejoin:round;stroke-miterlimit:10;}
	.st77{fill:#906045;stroke:#39231B;stroke-width:4.4588;stroke-linecap:round;stroke-linejoin:round;stroke-miterlimit:10;}
	.st78{fill:none;stroke:#39231B;stroke-width:4.4588;stroke-linecap:round;stroke-linejoin:round;stroke-miterlimit:10;}
	.st79{fill:#D2D4D5;stroke:#0C0A08;stroke-width:3.4912;stroke-linecap:round;stroke-linejoin:round;stroke-miterlimit:10;}
	.st80{fill:none;stroke:#0C0A08;stroke-width:3.6196;stroke-linecap:round;stroke-linejoin:round;stroke-miterlimit:10;}
	.st81{fill:#FFFDFF;stroke:#12021F;stroke-width:4.0523;stroke-linecap:round;stroke-linejoin:round;stroke-miterlimit:10;}
	.st82{fill:none;stroke:#12021F;stroke-width:4.0523;stroke-linecap:round;stroke-linejoin:round;stroke-miterlimit:10;}
	.st83{fill:#F8E694;stroke:#39231B;stroke-width:3.4156;stroke-linecap:round;stroke-linejoin:round;stroke-miterlimit:10;}
</style>
<g>
	<path class="st36" d="M389.26,383.87c-3.24,25.32-18.93,41.47-38.94,51.64c-37.41,19.14-90,17.56-104.78,16.65
		c-13.2,0.79-56.83,2.2-92.7-11.33c-25.53-9.59-47.08-26.74-50.98-56.96c-6.97-54.09,18.85-101.92,37.03-128.32
		c9.05-13.12,16.19-20.92,16.52-21.55c0,0,62.11-7.27,85.56-10.3c0.17-0.83,0.33-1.29,0.54-1.2c0.46,0.08,1.91,0.29,4.03,0.58
		c2.16-0.29,3.61-0.5,4.07-0.58c0.21-0.08,0.37,0.37,0.54,1.2c23.41,3.03,85.56,10.3,85.56,10.3c0.54,1.08,19.76,21.71,35.29,53.51
		C383.7,313.62,393.95,347.33,389.26,383.87z"/>
	<path class="st34" d="M370.99,287.51c-8.26,8.3-23.22,26.99-39.83,33.05c-61.57,22.5-111.26-23.53-111.26-23.53
		c-42.35,4.73-71.55-31.11-81.02-41.49c9.05-13.12,16.19-20.92,16.52-21.55c0,0,62.11-7.27,85.56-10.3c0.17-0.83,0.33-1.29,0.54-1.2
		c0.46,0.08,1.91,0.29,4.03,0.58c2.16-0.29,3.61-0.5,4.07-0.58c0.21-0.08,0.37,0.37,0.54,1.2c23.41,3.03,85.56,10.3,85.56,10.3
		C336.24,235.08,355.47,255.71,370.99,287.51z"/>
	<path class="st34" d="M350.65,428.84c0,1.68-0.08,3.41-0.33,5.05c-37.41,20.95-90,19.23-104.78,18.23
		c-13.2,0.86-56.83,2.41-92.7-12.41c-0.96-3.55-1.45-7.18-1.45-10.86c0-35.32,44.63-64,99.64-64
		C306.06,364.84,350.65,393.52,350.65,428.84z"/>
	<g>
		<path class="st36" d="M497.32,165.37c-0.37,6.56-2.03,13.99-4.86,21.46c-8.72,22.71-28.94,45.96-60.53,47.08
			c-36.95,1.37-58.29-14.9-62.9-18.89c-0.62-0.54-0.95-0.83-0.95-0.83l-1.74-8.3l-15.32-73.65l-16.65-79.96
			c2.08-0.54,16.11,3.57,50.86-7.8c36.49-11.96,64.89,15.03,80.95,42.55C482.25,114.56,498.86,138.93,497.32,165.37z"/>
		<path class="st35" d="M492.47,186.84c-8.72,22.71-28.94,45.96-60.53,47.08c-36.95,1.37-58.29-14.9-62.9-18.89
			c-0.83-2.82-1.74-5.9-2.7-9.13c-6.64-23.33-14.9-55.59-15.32-73.65c-0.08-3.07,0.08-5.73,0.5-7.85
			c0.42-2.03,28.77-62.23,72.61-48.28C465.19,89.19,492.13,150.88,492.47,186.84z"/>
	</g>
	<g>
		<path class="st36" d="M2.35,165.37c0.37,6.56,2.03,13.99,4.86,21.46c8.72,22.71,28.94,45.96,60.53,47.08
			c36.95,1.37,58.29-14.9,62.9-18.89c0.62-0.54,0.95-0.83,0.95-0.83l1.74-8.3l15.32-73.65l16.65-79.96
			c-2.08-0.54-16.11,3.57-50.86-7.8C77.95,32.52,49.56,59.51,33.49,87.03C17.42,114.56,0.82,138.93,2.35,165.37z"/>
		<path class="st35" d="M7.21,186.84c8.72,22.71,28.94,45.96,60.53,47.08c36.95,1.37,58.29-14.9,62.9-18.89
			c0.83-2.82,1.74-5.9,2.7-9.13c6.64-23.33,14.9-55.59,15.32-73.65c0.08-3.07-0.08-5.73-0.5-7.85
			c-0.42-2.03-28.77-62.23-72.61-48.28C34.49,89.19,7.54,150.88,7.21,186.84z"/>
	</g>
	<path class="st36" d="M376.58,163.16c-2.77-13.82,3.96-68.98-28.91-106.34c-27.55-31.32-83.07-36.81-98.81-35.89
		c-15.74-0.91-69.6,2.39-97.15,33.71c-32.87,37.36-27.8,94.7-30.57,108.52c-2.77,13.82-16.61,40.81,12.11,71.25
		c24.79,26.29,96.48,23.69,115.61,22.49c19.13,1.2,90.82,3.8,115.61-22.49C393.19,203.97,379.35,176.98,376.58,163.16z"/>
	<ellipse class="st35" cx="352.33" cy="183.28" rx="18.69" ry="11.42"/>
	<path class="st35" d="M165.3,180.69c0,6.31-8.37,11.42-18.69,11.42c-10.32,0-18.69-5.11-18.69-11.42c0-6.31,8.37-11.42,18.69-11.42
		C156.93,169.27,165.3,174.38,165.3,180.69z"/>
	<path class="st36" d="M198.07,236.88c-0.35,3.07,5.19,59.11,69.19,70.53c64,11.42,89.6-20.41,94.79-39.79
		c5.19-19.37-7.39-45.12-25.72-42.7c-18.34,2.42-8.06,18.83-11.21,29.81c-1.33,4.65-9.86,9.25-19.37,3.72
		c-9.51-5.54-12.28-21.58-12.28-21.58H198.07z"/>
	<g>
		<path class="st68" d="M198.07,236.88c0.02,1.88,0.38,3.73,0.73,5.57c0.37,1.84,0.82,3.66,1.33,5.45c1.01,3.6,2.26,7.13,3.76,10.55
			c2.98,6.84,6.89,13.26,11.64,18.95c4.72,5.72,10.29,10.69,16.44,14.77c6.17,4.05,12.86,7.29,19.87,9.61
			c7.01,2.36,14.26,3.8,21.64,4.8c7.36,1,14.78,1.48,22.16,1.24c7.37-0.27,14.73-1.07,21.81-3c3.55-0.9,7.01-2.13,10.36-3.55
			c3.36-1.42,6.59-3.13,9.64-5.11c6.11-3.92,11.54-8.91,15.73-14.81c2.09-2.94,3.91-6.09,5.27-9.41c0.72-1.65,1.25-3.36,1.73-5.06
			c0.44-1.69,0.72-3.44,0.86-5.2c0.55-7.07-1.12-14.37-4.4-20.74c-1.65-3.18-3.73-6.15-6.26-8.61c-2.51-2.47-5.5-4.45-8.79-5.4
			c-1.64-0.47-3.35-0.7-5.05-0.62c-1.7,0.07-3.45,0.4-4.93,1.04c-1.49,0.64-2.69,1.64-3.45,3.01c-0.77,1.37-1.14,3.06-1.3,4.82
			c-0.3,3.55,0.11,7.3,0.18,11.11c0.03,1.91,0,3.85-0.27,5.8c-0.13,0.97-0.34,1.95-0.62,2.91c-0.33,1.08-0.91,2.02-1.61,2.81
			c-2.86,3.12-7.11,4.25-11.01,3.93c-1.97-0.17-3.88-0.69-5.66-1.48c-1.77-0.78-3.45-1.81-4.89-3.12c-2.87-2.62-4.86-5.96-6.37-9.42
			c-1.47-3.49-2.52-7.13-3.15-10.83c0.83,3.66,2.07,7.22,3.71,10.57c1.63,3.34,3.72,6.51,6.52,8.85c1.4,1.16,2.99,2.05,4.69,2.72
			c1.68,0.67,3.46,1.07,5.24,1.15c1.78,0.08,3.56-0.19,5.2-0.8c1.63-0.62,3.13-1.6,4.18-2.88c0.52-0.64,0.92-1.35,1.11-2.07
			c0.22-0.85,0.38-1.72,0.47-2.61c0.19-1.78,0.17-3.6,0.08-5.44c-0.17-3.69-0.72-7.43-0.53-11.39c0.12-1.97,0.46-4.06,1.49-6.01
			c1.01-1.96,2.82-3.53,4.76-4.38c1.96-0.88,3.95-1.28,6-1.42c2.04-0.14,4.12,0.08,6.09,0.61c3.97,1.05,7.47,3.3,10.35,6.02
			c2.88,2.75,5.21,5.98,7.06,9.44c3.66,6.92,5.6,14.79,5.1,22.73c-0.13,1.98-0.44,3.96-0.94,5.91c-0.53,1.91-1.11,3.79-1.89,5.6
			c-1.48,3.64-3.43,7.04-5.67,10.22c-4.49,6.37-10.29,11.76-16.81,15.95c-3.26,2.1-6.7,3.9-10.27,5.39
			c-3.56,1.49-7.21,2.77-10.94,3.7l-1.39,0.37l-1.41,0.31l-2.82,0.6c-1.89,0.29-3.78,0.7-5.68,0.89l-2.85,0.35l-2.86,0.23
			c-1.91,0.18-3.82,0.19-5.73,0.26c-7.64,0.15-15.25-0.44-22.76-1.56l-5.61-0.94c-1.87-0.34-3.74-0.72-5.6-1.17
			c-3.71-0.88-7.38-1.96-10.97-3.24c-7.19-2.57-14.09-6.02-20.34-10.42c-6.23-4.41-11.84-9.71-16.49-15.74
			c-4.64-6.04-8.34-12.74-11.07-19.79c-1.37-3.52-2.49-7.14-3.35-10.81c-0.42-1.84-0.77-3.69-1.04-5.55
			C198.24,240.64,197.99,238.76,198.07,236.88z"/>
	</g>
	<g>
		<g>
			<path class="st21" d="M350.63,146.61c0,11.24-9.11,20.35-20.35,20.35c-11.24,0-20.35-9.11-20.35-20.35
				c0-11.24,9.11-20.35,20.35-20.35C341.52,126.26,350.63,135.37,350.63,146.61z"/>
			<path class="st69" d="M329.08,134.57c2.62,2.85,1.67,7.98-2.11,11.46c-3.79,3.47-8.98,3.98-11.6,1.13
				c-2.62-2.85-1.67-7.98,2.11-11.46C321.27,132.22,326.46,131.72,329.08,134.57z"/>
		</g>
		<g>
			<path class="st21" d="M195.98,146.61c0,11.24-9.11,20.35-20.35,20.35c-11.24,0-20.35-9.11-20.35-20.35
				c0-11.24,9.11-20.35,20.35-20.35C186.87,126.26,195.98,135.37,195.98,146.61z"/>
			<path class="st69" d="M174.44,134.57c2.62,2.85,1.67,7.98-2.11,11.46c-3.79,3.47-8.98,3.98-11.6,1.13
				c-2.62-2.85-1.67-7.98,2.11-11.46C166.62,132.22,171.82,131.72,174.44,134.57z"/>
		</g>
	</g>
	<g>
		<g>
			<g>
				<path class="st21" d="M234.3,175.29c0.77-0.95,1.84-1.89,2.89-2.69c1.08-0.8,2.25-1.51,3.49-2.08c2.47-1.18,5.25-1.83,8.06-1.85
					c1.41-0.05,2.8,0.18,4.18,0.42c1.34,0.38,2.7,0.73,3.92,1.39c1.28,0.52,2.38,1.34,3.49,2.1c0.56,0.37,1.03,0.87,1.52,1.32
					c0.48,0.46,0.95,0.93,1.4,1.42c0.3,0.32,0.27,0.83-0.05,1.12c-0.23,0.21-0.56,0.26-0.84,0.15l-0.09-0.04
					c-0.59-0.24-1.16-0.51-1.72-0.77c-0.57-0.25-1.07-0.59-1.66-0.76c-1.13-0.43-2.21-0.93-3.35-1.21
					c-1.11-0.38-2.25-0.54-3.37-0.78c-1.14-0.1-2.26-0.27-3.4-0.21c-2.27,0.01-4.54,0.39-6.8,1.05c-0.56,0.17-1.13,0.34-1.69,0.55
					c-0.57,0.18-1.13,0.41-1.68,0.64c-1.15,0.45-2.18,0.95-3.44,1.54c-0.4,0.18-0.87,0.01-1.05-0.39c-0.13-0.28-0.08-0.61,0.11-0.84
					L234.3,175.29z"/>
			</g>
		</g>
		<g>
			<g>
				<path class="st21" d="M231.19,203.66c0.3-0.21,0.45-0.3,0.65-0.42l0.57-0.33c0.38-0.2,0.76-0.39,1.15-0.58
					c0.77-0.37,1.55-0.69,2.34-1c1.59-0.59,3.21-1.1,4.86-1.49c3.3-0.8,6.72-1.2,10.17-1.15c1.72,0.06,3.45,0.19,5.16,0.48
					c1.71,0.33,3.41,0.73,5.04,1.34c1.64,0.6,3.21,1.39,4.69,2.3c1.46,0.95,2.82,2.05,3.99,3.3c0.3,0.32,0.28,0.83-0.04,1.13
					c-0.25,0.24-0.62,0.28-0.91,0.13l-0.03-0.02c-1.44-0.74-2.84-1.46-4.31-2.02c-1.46-0.57-2.94-1.02-4.44-1.4
					c-3.02-0.69-6.11-1.07-9.24-1.1c-1.56-0.06-3.14,0-4.71,0.1c-1.58,0.07-3.15,0.26-4.74,0.42c-1.58,0.2-3.17,0.42-4.75,0.7
					c-0.8,0.12-1.58,0.28-2.37,0.43l-1.18,0.24l-0.58,0.12c-0.18,0.03-0.4,0.11-0.46,0.1l-0.57-0.08c-0.37-0.05-0.63-0.4-0.58-0.77
					C230.94,203.93,231.04,203.76,231.19,203.66z"/>
			</g>
		</g>
		<g>
			<g>
				<path class="st21" d="M234.3,236.21c0.16-0.13,0.37-0.27,0.52-0.37l0.44-0.27c0.3-0.18,0.59-0.32,0.89-0.48
					c0.6-0.31,1.21-0.56,1.82-0.82c1.23-0.48,2.48-0.91,3.76-1.23c2.55-0.68,5.19-1.09,7.86-1.15c2.67-0.06,5.37,0.18,7.99,0.84
					c2.61,0.69,5.14,1.81,7.27,3.46c0.35,0.27,0.41,0.77,0.14,1.12c-0.2,0.26-0.53,0.36-0.83,0.29l-0.04-0.01
					c-2.45-0.61-4.79-1.06-7.18-1.34c-2.4-0.2-4.8-0.27-7.23-0.21c-2.42,0.05-4.86,0.28-7.31,0.53c-1.22,0.14-2.45,0.28-3.69,0.45
					c-0.62,0.07-1.23,0.17-1.85,0.26c-0.3,0.05-0.62,0.09-0.91,0.14l-0.45,0.07c-0.14,0.02-0.21,0.03-0.34,0.04l-0.35,0.03
					c-0.41,0.03-0.77-0.28-0.81-0.69C234,236.61,234.11,236.36,234.3,236.21z"/>
			</g>
		</g>
	</g>
	<g>
		<path class="st36" d="M82.51,466.9c11.58,7.14,24.49,8.55,36.57,7.06c20.72-2.49,49.75-27.77,53.9-33
			c6.6-8.3-17.49-55.34-23.01-62.98c-5.56-7.6-32.88-21.42-32.88-21.42c0.29,0.54-17.02-13.74-37.45-6.48
			c-4.73,1.66-9.59,4.48-14.45,8.88C39.26,382.5,51,447.51,82.51,466.9z"/>
		<g>
			<g>
				<path class="st68" d="M100.68,349.11c4.53-0.82,9.22-0.46,13.75,0.48c4.54,0.97,8.95,2.69,12.99,5.05
					c4.05,2.36,7.69,5.42,10.71,8.96c2.98,3.58,5.38,7.61,6.84,11.96c-2.97-3.49-5.93-6.77-9.18-9.69
					c-3.26-2.9-6.74-5.47-10.47-7.65c-3.73-2.17-7.67-4.01-11.79-5.5C109.42,351.22,105.16,350.03,100.68,349.11z"/>
			</g>
		</g>
		<path class="st69" d="M82.51,466.9c4.95,3.05,10.15,5.06,15.42,6.24c12.14,2.72,20.43-5.92,21.09-18.35
			c0.63-11.9-3.26-23.02-6.47-37.19c-5.21-23.05-8.72-45.65-19.27-57.3c-7.25-8.01-19.89-8.7-27.92-1.47
			c-0.05,0.04-0.1,0.09-0.15,0.13C39.26,382.5,51,447.51,82.51,466.9z"/>
	</g>
	<g>
		<path class="st36" d="M408.27,466.9c-11.58,7.14-24.49,8.55-36.57,7.06c-20.72-2.49-49.75-27.77-53.9-33
			c-6.6-8.3,17.49-55.34,23.01-62.98c5.56-7.6,32.88-21.42,32.88-21.42c-0.29,0.54,17.02-13.74,37.45-6.48
			c4.73,1.66,9.59,4.48,14.45,8.88C451.53,382.5,439.78,447.51,408.27,466.9z"/>
		<g>
			<g>
				<path class="st68" d="M390.1,349.11c-4.47,0.92-8.74,2.11-12.86,3.61c-4.12,1.48-8.06,3.33-11.79,5.5
					c-3.72,2.19-7.21,4.75-10.47,7.65c-3.25,2.92-6.21,6.2-9.18,9.69c1.45-4.35,3.86-8.38,6.84-11.96c3.03-3.54,6.67-6.6,10.71-8.96
					c4.05-2.36,8.45-4.08,12.99-5.05C380.88,348.65,385.57,348.29,390.1,349.11z"/>
			</g>
		</g>
		<path class="st69" d="M409.76,466.9c-4.95,3.05-10.15,5.06-15.42,6.24c-12.14,2.72-18.9-9.64-19.56-22.07
			c-0.63-11.9,0.68-20.6,3.89-34.77c5.21-23.05,9.77-44.35,20.33-56c7.25-8.01,19.89-8.7,27.92-1.47c0.05,0.04,0.1,0.09,0.15,0.13
			C451.22,380.86,438.61,449.14,409.76,466.9z"/>
	</g>
	<g>
		<g>
			<g>
				<path class="st36" d="M251.03,449.38c0.04,3.61,0.54,6.85,1.66,9.55c5.56,13.66,47.49,23.37,70.12,10.13
					c2.66-1.54,5.02-3.4,7.06-5.6c19.35-21.13,33.88-123.51,33.88-125.92l-95.11-3.16c-9.34,12.45-12.12,43.96-10.54,60.57
					C259.33,408.61,250.65,432.81,251.03,449.38z"/>
				<path class="st36" d="M251.03,449.38c0.04,3.61,0.54,6.85,1.66,9.55c5.56,13.66,47.49,23.37,70.12,10.13
					c2.66-1.54,5.02-3.4,7.06-5.6c19.35-21.13,33.88-123.51,33.88-125.92l-95.11-3.16c-9.34,12.45-12.12,43.96-10.54,60.57
					C259.33,408.61,250.65,432.81,251.03,449.38z"/>
				<path class="st69" d="M249.35,449.38c0.04,3.61,0.54,6.85,1.66,9.55c5.56,13.66,47.49,23.37,70.12,10.13
					c-1.49-4.28-4.23-9.17-9.22-12.21c-10.71-6.56-21.8,5.19-21.8,5.19s-0.71-10.71-10.05-10.71c-9.34,0-13.82,7.97-13.82,7.97
					s-2.41-17.56-13.16-12.12C251.85,447.8,250.56,448.55,249.35,449.38z"/>
				<g>
					<g>
						<path class="st68" d="M340.93,442.16c2.22-8.7,4.22-17.37,6.18-26.06c0.46-2.18,0.94-4.35,1.44-6.52l1.38-6.54
							c0.92-4.36,1.88-8.71,2.73-13.08c0.95-4.35,1.81-8.73,2.71-13.09l2.72-13.1c1.79-8.74,3.73-17.47,5.65-26.22
							c-0.02,4.5-0.48,8.96-0.86,13.43c-0.46,4.46-0.96,8.91-1.59,13.35c-0.57,4.45-1.34,8.86-2.05,13.28
							c-0.79,4.41-1.63,8.81-2.51,13.2c-0.46,2.19-0.95,4.38-1.45,6.57c-0.51,2.18-0.95,4.38-1.53,6.55l-1.68,6.51
							c-0.57,2.17-1.21,4.32-1.84,6.48C347.68,425.5,344.77,434.03,340.93,442.16z"/>
					</g>
				</g>
			</g>
		</g>
		<g>
			<g>
				<path class="st36" d="M239.18,449.38c-0.04,3.61-0.54,6.85-1.66,9.55c-5.56,13.66-47.49,23.37-70.12,10.13
					c-2.66-1.54-5.02-3.4-7.06-5.6c-19.35-21.13-33.88-123.51-33.88-125.92l95.11-3.16c9.34,12.45,12.12,43.96,10.54,60.57
					C230.88,408.61,239.56,432.81,239.18,449.38z"/>
				<path class="st36" d="M239.18,449.38c-0.04,3.61-0.54,6.85-1.66,9.55c-5.56,13.66-47.49,23.37-70.12,10.13
					c-2.66-1.54-5.02-3.4-7.06-5.6c-19.35-21.13-33.88-123.51-33.88-125.92l95.11-3.16c9.34,12.45,12.12,43.96,10.54,60.57
					C230.88,408.61,239.56,432.81,239.18,449.38z"/>
				<path class="st69" d="M239.18,449.38c-0.04,3.61-0.54,6.85-1.66,9.55c-5.56,13.66-47.49,23.37-70.12,10.13
					c1.49-4.28,4.23-9.17,9.22-12.21c10.71-6.56,21.8,5.19,21.8,5.19s0.71-10.71,10.05-10.71c9.34,0,13.82,7.97,13.82,7.97
					s2.41-17.56,13.16-12.12C236.69,447.8,237.98,448.55,239.18,449.38z"/>
				<g>
					<g>
						<path class="st68" d="M149.28,442.16c-3.84-8.12-6.74-16.66-9.3-25.25c-0.63-2.15-1.27-4.31-1.84-6.48l-1.68-6.51
							c-0.58-2.17-1.01-4.37-1.53-6.55c-0.5-2.19-0.99-4.37-1.45-6.57c-0.89-4.39-1.73-8.79-2.51-13.2
							c-0.71-4.42-1.48-8.84-2.05-13.28c-0.63-4.43-1.14-8.89-1.59-13.35c-0.39-4.47-0.84-8.93-0.86-13.43
							c1.92,8.76,3.86,17.48,5.65,26.22l2.72,13.1c0.9,4.37,1.76,8.74,2.71,13.09c0.85,4.37,1.81,8.72,2.73,13.08l1.38,6.54
							c0.5,2.17,0.98,4.34,1.44,6.52C145.05,424.79,147.06,433.46,149.28,442.16z"/>
					</g>
				</g>
			</g>
		</g>
	</g>
</g>
</svg>
