<svg xmlns="http://www.w3.org/2000/svg" xml:space="preserve" id="Layer_1" x="0" y="0" style="enable-background:new 0 0 500 500" version="1.1" viewBox="0 0 500 500"><style type="text/css">.st5{fill:#f1a055}.st6{fill:#4d2a16}.st7{fill:#fde6c4}.st8{fill:#de893a}.st9{fill:#eea150}.st10{fill:#f66669}</style><path d="M246.06 441.6c-.66.19-1.27.24-1.93.24-3.67 0-7.01-2.5-7.91-6.31-.05-.09-3.39-12.9-16.15-19.49a33.5 33.5 0 0 0-9.7-3.25c-11.3-2.17-25.37.19-42.08 7.01-2.5 1.04-4.94 1.98-7.44 2.87-.85.33-1.65.61-2.45.89-3.58 1.27-7.15 2.45-10.69 3.48a208 208 0 0 1-29.66 6.59H118c-28.62 4.1-54.65 1.08-72.82-9.23-.38-.19-.71-.38-1.04-.56-1.65-.99-3.2-1.98-4.66-3.06-.75-.52-1.46-1.04-2.12-1.65-.8-.61-1.55-1.27-2.26-1.98-7.67-6.97-12.29-15.68-13.56-25.66-1.08-8.61-.38-16.29 1.6-23.02.33-1.08.66-2.12 1.08-3.15.14-.52.33-1.04.57-1.51 0-.05 0-.05.05-.09.24-.75.57-1.51.94-2.21.24-.61.52-1.18.85-1.74.38-.8.8-1.6 1.27-2.35.66-1.13 1.32-2.17 2.02-3.2 4.57-6.59 10.45-11.58 16.33-14.83 8.52-4.71 17.51-6.03 24.86-3.95.09.05.19.05.28.09.66.19 1.27.38 1.93.66.47.14.89.38 1.37.61.42.14.8.33 1.18.56 1.13.61 2.21 1.37 3.25 2.21.42.38.89.8 1.36 1.22 7.44 6.64 11.25 14.22 11.3 22.45.14 13.32-9.84 22.45-10.97 23.49a8.137 8.137 0 0 1-11.53-.85 7.84 7.84 0 0 1-1.84-6.45c.05-.42.14-.89.24-1.32 0-.09 0-.24.14-.33.05-.28.14-.61.33-.89.19-.47.38-.89.71-1.27.38-.52.8-.94 1.27-1.36.05-.05 1.79-1.69 3.3-4.19 1.13-1.88 2.07-4.24 2.07-6.68-.05-3.62-2.35-7.39-6.83-11.16-2.31-1.93-8.05-2.02-14.59 1.6-6.78 3.77-13.51 11.11-15.82 21.8-.42 1.74-.66 3.58-.8 5.51-.14 2.59-.09 5.37.28 8.29.14 1.08.33 2.17.61 3.15.05.14.09.28.14.42 1.79 6.64 6.5 12.24 13.89 16.62 2.97 1.74 6.45 3.34 10.4 4.66 1.27.42 2.54.8 3.91 1.18 1.32.38 2.73.71 4.14.99.47.09.94.19 1.46.28 2.26.52 4.66.89 7.16 1.22.14 0 .28.05.42.05 1.13.14 2.26.28 3.44.38 11.2.99 24.1.52 38.27-1.98 8.24-1.46 16.95-3.62 25.94-6.54 2.92-.94 5.84-1.98 8.85-3.15.09 0 .24-.05.38-.09 1.79-.66 3.58-1.37 5.37-2.12 1.13-.47 2.26-.89 3.39-1.32 16.15-6.17 30.55-8.61 43.07-7.34 6.92.71 13.28 2.59 19.02 5.55 19.44 10.07 24.24 29.47 24.48 30.27 1.08 4.43-1.69 8.9-6.02 9.94" class="st5"/><path d="M71.13 335.43c.65 4.85-1.33 13.71.21 14.23 1.35.47 6.88-5.66 9.17-8.86-.47-.42-.93-.85-1.4-1.22-2.29-1.94-4.99-3.3-7.98-4.15M23.14 368.48c5.04-.85 12.62-.75 14.02-3.25 1.31-2.31-3.66-7.63-7.21-11.02-2.85 4.1-5.23 8.9-6.81 14.27M35.08 417.2c2.66 2.45 5.69 4.66 9.1 6.64.33.19.65.38 1.03.57.93-5.32.98-10.59-2.52-10.73-2.06-.11-4.77 1.35-7.61 3.52" class="st6"/><ellipse cx="256.51" cy="382.1" class="st7" rx="102.68" ry="111.4"/><path d="M383.01 477.43c-1.08.61-2.26 1.04-3.53 1.37-.99.24-1.98.47-2.97.66-2.26.52-4.47.94-6.54 1.32-2.21.38-4.33.71-6.31.99h-.05c-8.8 1.13-14.73 1.13-14.73 1.13l10.31-104.13c3.95 2.26 26.17 13.42 33.23 40.58 6.55 25.08 3.96 51.06-9.41 58.08" class="st8"/><path d="M369.97 480.6c-2.21.44-4.33.82-6.31 1.15 1.27-3.29 2.82-8.62 3.01-14.66.01.01 2.6 7.15 3.3 13.51M383.01 477.43c-1.08.61-2.26 1.04-3.53 1.37-.99.24-1.98.47-2.97.66 1.32-2.78 3.06-7.53 3.25-12.99 0-.01 2.4 5.64 3.25 10.96" class="st6"/><path d="M365.63 421.84v.05c-.57 31.49-6.97 58.8-16.76 66.89-10.03 8.24-30.13 11.77-47.78 10.73-2.59-.14-5.13-.38-7.58-.75-2.54-.33-4.99-.8-7.25-1.41-3.11-.75-5.88-1.69-8.33-2.82-6.03-2.78-9.84-6.68-9.98-11.63-.61-20.01 19.16-25.28 19.16-25.28s11.44-14.12 16.29-48.86c4.8-34.74-3.67-74.14-4.85-76.45l47.78-5.27c3.77 6.59 6.92 14.03 9.56 21.98 2.4 7.3 4.33 15.06 5.79 23.02 2.12 11.2 3.34 22.83 3.81 34.22.24 5.27.29 10.5.14 15.58" class="st5"/><path d="M337.73 344.06c0 1.36-1.85 2.45-4.12 2.45-2.28 0-4.12-1.1-4.12-2.45 0-1.36 1.85-2.45 4.12-2.45 2.28 0 4.12 1.1 4.12 2.45" class="st6"/><ellipse cx="344.8" cy="390.59" class="st6" rx="6.09" ry="3.38"/><path d="M361.68 372.04c-9.98.09-25.66-.85-27.07-5.41-1.55-5.04 13.28-13.37 21.28-17.61 2.4 7.29 4.33 15.06 5.79 23.02M365.63 421.84c-9.32-5.88-22.36-14.78-20.15-17.56 2.45-3.11 13.65.05 20.01 1.98.24 5.27.29 10.5.14 15.58M282.74 496.65c-1.74-.52-3.34-1.18-4.8-1.84-.75-.33-1.46-.71-2.12-1.04-.05-4.33.66-12.62 6.17-16.85 0 0-.33 12.24.75 19.73M296.44 499.42c-.99-.09-1.98-.24-2.92-.38-1.32-.19-2.64-.38-3.91-.66.19-4.61 1.46-16.43 6.97-22.97 0 0-.94 15.02-.14 24.01M313.11 499.5c-2.64.14-5.27.19-7.91.14.33-2.59 1.41-6.83 4.33-12.43 0 .01 1.55 7.31 3.58 12.29" class="st6"/><path d="M130.16 477.43c1.08.61 2.26 1.04 3.53 1.37.99.24 1.98.47 2.97.66 2.26.52 4.47.94 6.54 1.32 2.21.38 4.33.71 6.31.99h.05c8.8 1.13 14.73 1.13 14.73 1.13l-10.31-104.13c-3.95 2.26-26.17 13.42-33.23 40.58-6.55 25.08-3.96 51.06 9.41 58.08" class="st8"/><path d="M143.2 480.6c2.21.44 4.33.82 6.31 1.15-1.27-3.29-2.82-8.62-3.01-14.66-.01.01-2.59 7.15-3.3 13.51M130.16 477.43c1.08.61 2.26 1.04 3.53 1.37.99.24 1.98.47 2.97.66-1.32-2.78-3.06-7.53-3.25-12.99 0-.01-2.4 5.64-3.25 10.96" class="st6"/><path d="M147.54 421.84v.05c.57 31.49 6.97 58.8 16.76 66.89 10.03 8.24 30.13 11.77 47.78 10.73 2.59-.14 5.13-.38 7.58-.75 2.54-.33 4.99-.8 7.25-1.41 3.11-.75 5.88-1.69 8.33-2.82 6.03-2.78 9.84-6.68 9.98-11.63.61-20.01-19.16-25.28-19.16-25.28s-11.44-14.12-16.29-48.86c-4.8-34.74 3.67-74.14 4.85-76.45l-47.78-5.27c-3.77 6.59-6.92 14.03-9.56 21.98-2.4 7.3-4.33 15.06-5.79 23.02-2.12 11.2-3.34 22.83-3.81 34.22-.24 5.27-.28 10.5-.14 15.58" class="st5"/><path d="M191.41 382.1c0 2.59-3.16 4.69-7.06 4.69s-7.06-2.1-7.06-4.69 3.16-4.69 7.06-4.69 7.06 2.1 7.06 4.69M181.61 344.46c0 1.55-1.89 2.8-4.22 2.8s-4.22-1.25-4.22-2.8 1.89-2.8 4.22-2.8 4.22 1.25 4.22 2.8M151.49 372.04c9.98.09 25.66-.85 27.07-5.41 1.55-5.04-13.28-13.37-21.28-17.61-2.4 7.29-4.33 15.06-5.79 23.02M147.54 421.84c9.32-5.88 22.36-14.78 20.15-17.56-2.45-3.11-13.65.05-20.01 1.98-.24 5.27-.28 10.5-.14 15.58M230.43 496.65c1.74-.52 3.34-1.18 4.8-1.84.75-.33 1.46-.71 2.12-1.04.05-4.33-.66-12.62-6.17-16.85 0 0 .33 12.24-.75 19.73M216.73 499.42c.99-.09 1.98-.24 2.92-.38 1.32-.19 2.64-.38 3.91-.66-.19-4.61-1.46-16.43-6.97-22.97 0 0 .94 15.02.14 24.01M200.07 499.5c2.64.14 5.27.19 7.91.14-.33-2.59-1.41-6.83-4.33-12.43-.01.01-1.56 7.31-3.58 12.29" class="st6"/><path d="M432.78 120.24 385.7 74.96l-27.38-26.35s35.56-59.58 89.44-46.43c9.25 2.29 15.87 6.46 20.23 12.01 21.38 26.72-8.05 84.7-35.21 106.05" class="st9"/><path d="M432.78 120.24 385.7 74.96c13.65-24.43 39.97-58.48 81-60.73.44-.05.89-.05 1.29-.05 21.38 26.73-8.05 84.71-35.21 106.06" class="st6"/><path d="m89.68 120.24 47.08-45.28 27.38-26.35S128.58-10.97 74.7 2.18c-9.25 2.29-15.87 6.46-20.23 12.01-21.38 26.72 8.05 84.7 35.21 106.05" class="st9"/><path d="m89.68 120.24 47.08-45.28c-13.65-24.43-39.97-58.48-81-60.73-.44-.05-.89-.05-1.29-.05-21.38 26.73 8.05 84.71 35.21 106.06" class="st6"/><path d="M467.19 194.81c0 45.01-22.27 81.3-58.41 106.56-37.7 26.44-90.6 40.88-149.15 40.88-59.39 0-112.96-14.85-150.79-41.98-35.21-25.21-56.77-61.09-56.77-105.46 0-92.12 92.91-186.07 207.56-186.07 114.6-.01 207.56 93.95 207.56 186.07" class="st5"/><path d="M272.31 75.53c0 9.81-5.91 17.76-13.19 17.76-7.29 0-13.19-7.95-13.19-17.76s5.91-22.91 13.19-22.91c7.29 0 13.19 13.1 13.19 22.91M222.08 79.76c4.03 6.53 3.04 14.62-2.23 18.08-5.26 3.46-12.8.97-16.84-5.56-4.03-6.53-5.15-18.05.11-21.51 5.27-3.45 14.92 2.46 18.96 8.99M295.96 79.76c-4.03 6.53-3.04 14.62 2.23 18.08 5.26 3.46 12.8.97 16.84-5.56 4.03-6.53 5.15-18.05-.11-21.51-5.27-3.45-14.93 2.46-18.96 8.99M366.93 63.39c0 5.28-5.54 9.57-12.36 9.57-6.83 0-12.36-4.28-12.36-9.57s5.54-9.57 12.36-9.57 12.36 4.29 12.36 9.57M171.74 63.39c0 5.28-5.54 9.57-12.36 9.57-6.83 0-12.36-4.28-12.36-9.57s5.54-9.57 12.36-9.57 12.36 4.29 12.36 9.57M220.5 53.79c-10.45-1.19-22.94-20.21-30.36-33.09 9.07-3.16 18.45-5.68 28.1-7.61 8.04 17.19 14.84 42.07 2.26 40.7M323.42 19.14c-7.25 12.83-20.41 33.41-31.25 34.6-12.8 1.47-5.56-24.38 2.71-41.61 9.78 1.69 19.29 4.03 28.54 7.01M269.8 9.33c-1.02 9.62-3.25 18.33-7.78 22.09-7.56 6.23-13.6-6.87-16.98-21.86 4.67-.32 9.34-.5 14.09-.5 3.6 0 7.16.09 10.67.27M458.03 145.63c-14.58 5.36-31.3 9.3-34.5 4.58-3.38-5 10.05-18.79 22.81-30.89 4.66 8.58 8.58 17.33 11.69 26.31M466.7 195.13c0 5.22-.31 10.36-.89 15.35-10.14-1.19-24.76-4.08-25.25-10.63-.49-6.32 13.2-17.37 24.58-25.3 1.02 6.83 1.56 13.71 1.56 20.58M458.7 239.54c-3.73 9.76-8.67 18.93-14.76 27.41-8.85-5.73-18.05-13.8-13.43-20.12 3.82-5.27 16.27-7.06 28.19-7.29M429 284.5c-4.05 3.99-8.4 7.84-12.98 11.46-5.6-6.19-11.51-14.39-5.47-17.05 5.42-2.38 12.85 1.47 18.45 5.59M442.78 173.5c0 4.43-3.48 8.02-7.78 8.02s-7.78-3.59-7.78-8.02 3.48-8.02 7.78-8.02 7.78 3.59 7.78 8.02M412.77 258.57c0 3.69-3.48 6.68-7.78 6.68s-7.78-2.99-7.78-6.68 3.48-6.68 7.78-6.68 7.78 2.99 7.78 6.68M93.14 150.22c-3.07 4.58-18.85 1.05-33.08-4.08 3.02-8.8 6.8-17.42 11.34-25.8 12.44 11.82 25.03 25.02 21.74 29.88M76.11 199.85c-.49 6.23-13.65 9.12-23.65 10.45-.58-4.95-.89-9.99-.89-15.17a137 137 0 0 1 1.38-19.57c11.07 7.84 23.6 18.24 23.16 24.29M73.8 266.21a118 118 0 0 1-14.23-26.63c11.43.37 22.94 2.25 26.58 7.24 4.45 6.1-3.82 13.76-12.35 19.39M101.27 295.22c-4.49-3.62-8.76-7.38-12.71-11.41 5.47-3.85 12.4-7.15 17.56-4.9 5.82 2.52.57 10.22-4.85 16.31M73.88 173.5c0 4.43 3.48 8.02 7.78 8.02s7.78-3.59 7.78-8.02-3.48-8.02-7.78-8.02c-4.29 0-7.78 3.59-7.78 8.02M103.89 258.57c0 3.69 3.48 6.68 7.78 6.68s7.78-2.99 7.78-6.68-3.48-6.68-7.78-6.68-7.78 2.99-7.78 6.68" class="st6"/><path d="M403.71 296.88c3.53 1.88 6.74 3.35 9.12 4.81-38.86 26.44-93.4 40.88-153.76 40.88-61.23 0-116.46-14.85-155.46-41.98 2.06-1.15 4.54-2.29 7.15-3.71 10.68-5.73 22.41-20.03 15.26-36.3-4.22-9.53-46.01-31.71-27.13-95.1 16.41-55 60.27-66.09 91.48-52.43 39.28 17.19 25.02 83 33.41 101.33 8.43 18.33 31.67 22.04 31.67 22.04l7.42-.92c6.97-1.92 21.49-7.42 27.77-21.13 8.43-18.33-5.82-84.15 33.46-101.33 31.21-13.66 75.02-2.57 91.43 52.43 18.93 63.38-22.92 85.57-27.09 95.1-7.14 16.28 4.59 30.58 15.27 36.31" class="st7"/><circle cx="335.48" cy="181.52" r="27.31" class="st6"/><path d="M333.87 165.36c3.51 3.83 2.24 10.71-2.84 15.38-5.08 4.66-12.05 5.34-15.56 1.51s-2.24-10.71 2.84-15.38c5.08-4.66 12.05-5.33 15.56-1.51" class="st7"/><circle cx="182.45" cy="181.52" r="27.31" class="st6"/><path d="M180.84 165.36c3.51 3.83 2.24 10.71-2.84 15.38-5.08 4.66-12.05 5.34-15.56 1.51s-2.24-10.71 2.84-15.38c5.08-4.66 12.04-5.33 15.56-1.51" class="st7"/><path d="M391.39 218.55c0 8.46-9.49 15.32-21.2 15.32s-21.2-6.86-21.2-15.32 9.49-15.32 21.2-15.32 21.2 6.86 21.2 15.32M161.99 218.55c0 8.46-9.49 15.32-21.2 15.32s-21.2-6.86-21.2-15.32 9.49-15.32 21.2-15.32 21.2 6.86 21.2 15.32" class="st10"/><path d="M305.79 275.96s-6.67 13.11-17.48 24.05c-9.76 9.95-22.96 18.12-37.49 13.05-8.28-2.91-14.81-6.8-19.94-10.88-11.37-9.09-16-19.41-17.62-22.88-.35-.74-.56-1.17-.7-1.24l46.61-8.59z" class="st6"/><path d="M288.31 300.01c-9.76 9.95-22.96 18.12-37.49 13.05-8.28-2.91-14.81-6.8-19.94-10.88 7.93-5.01 18.74-7.98 30.61-7.98 10.12 0 19.38 2.16 26.82 5.81" class="st10"/><path d="M200.77 262.73s7.59 17.53 24.6 17.02c14.6-.43 32.47-8.94 32.47-8.94s16.81 11.71 32.9 9.05c20.44-3.38 23.59-18.71 23.59-18.71" style="fill:#fde6c4;stroke:#4d2a16;stroke-width:4.95;stroke-linecap:round;stroke-linejoin:round;stroke-miterlimit:10"/><path d="M257.84 241.76s0 21.31-.55 27.7" style="fill:none;stroke:#4d2a16;stroke-width:4.95;stroke-linecap:round;stroke-linejoin:round;stroke-miterlimit:10"/><path d="M257.23 248.55s-38.21-17.9-31.08-30c7.13-12.11 65.04-8.95 66.47.78 1.43 9.74-29.1 32.43-35.39 29.22" class="st10"/><path d="M38.36 392.59c-4.57-.09-8.29-3.86-8.29-8.52 0-4.57 3.67-8.33 8.19-8.43-.42 1.74-.66 3.58-.8 5.51-.14 2.59-.09 5.37.28 8.29.15 1.08.34 2.17.62 3.15M54.26 341c1.17 2.02-.57 5.2-3.88 7.11s-6.93 1.82-8.1-.2.57-5.2 3.88-7.11 6.94-1.82 8.1.2M35.2 404.95c-.89 1.53-3.04 1.95-4.82.92-1.78-1.02-2.5-3.1-1.61-4.63s3.04-1.95 4.82-.92c1.78 1.02 2.5 3.09 1.61 4.63" class="st6"/><ellipse cx="59.57" cy="420.72" class="st6" rx="3.27" ry="4.38"/><path d="M83.32 418.39c-.19 2.26-2.64 4-5.6 4-3.15 0-5.7-1.93-5.7-4.33 0-.47.09-.89.28-1.32 2.26.52 4.66.89 7.16 1.22.14 0 .28.05.42.05 1.13.15 2.26.29 3.44.38" class="st6"/></svg>