<?xml version="1.0" encoding="utf-8"?>
<!-- Generator: Adobe Illustrator 24.0.0, SVG Export Plug-In . SVG Version: 6.00 Build 0)  -->
<svg version="1.1" id="Layer_1" xmlns="http://www.w3.org/2000/svg" xmlns:xlink="http://www.w3.org/1999/xlink" x="0px" y="0px"
	 viewBox="0 0 500 500" style="enable-background:new 0 0 500 500;" xml:space="preserve">
<style type="text/css">
	.st0{fill:#7C7D7D;}
	.st1{fill:#0C0A08;}
	.st2{fill:#5A5D5D;}
	.st3{fill:#D2D4D5;}
	.st4{fill:#DE8CAB;}
	.st5{fill:#F1A055;}
	.st6{fill:#4D2A16;}
	.st7{fill:#FDE6C4;}
	.st8{fill:#DE893A;}
	.st9{fill:#EEA150;}
	.st10{fill:#F66669;}
	.st11{fill:#FDE6C4;stroke:#4D2A16;stroke-width:1.3386;stroke-linecap:round;stroke-linejoin:round;stroke-miterlimit:10;}
	.st12{fill:none;stroke:#4D2A16;stroke-width:1.3386;stroke-linecap:round;stroke-linejoin:round;stroke-miterlimit:10;}
	.st13{fill:#FFFFFF;}
	.st14{fill:#E64825;}
	.st15{fill:#FDCD4D;}
	.st16{fill:#FDE6CA;}
	.st17{fill:#5E3E2C;}
	.st18{fill:#B37951;}
	.st19{fill:#FFD7AE;}
	.st20{fill:#C1845B;}
	.st21{fill:#39231B;}
	.st22{fill:#FDD9AA;}
	.st23{fill:#906045;}
	.st24{fill:#F1B275;}
	.st25{fill:#F6595D;}
	.st26{fill:#F8E694;}
	.st27{fill:#8AA34F;}
	.st28{fill:#778C46;}
	.st29{fill:#EB96C4;}
	.st30{fill:#B1B6CA;}
	.st31{fill:#CBD0E4;}
	.st32{fill:#E7E7E7;}
	.st33{fill:#B4B3DE;}
	.st34{fill:#9493BA;}
	.st35{fill:#F9B0CD;}
	.st36{fill:#9B9ABF;}
	.st37{fill:#FEFEFE;}
	.st38{fill:#4C4B59;}
	.st39{fill:#41414D;}
	.st40{fill:#12021F;}
	.st41{fill:#679436;}
	.st42{fill:#FFFAC9;}
	.st43{fill:#A9D07F;}
	.st44{fill:#362113;}
	.st45{fill:#FEAD30;}
	.st46{fill:#FFCD4C;}
	.st47{fill:none;stroke:#4D2A16;stroke-width:1.1457;stroke-linecap:round;stroke-linejoin:round;stroke-miterlimit:10;}
	.st48{fill:#573929;}
	.st49{fill:#FFD7AE;stroke:#573929;stroke-width:1.3386;stroke-linecap:round;stroke-linejoin:round;stroke-miterlimit:10;}
	.st50{fill:none;stroke:#573929;stroke-width:1.3386;stroke-linecap:round;stroke-linejoin:round;stroke-miterlimit:10;}
	.st51{fill:#906045;stroke:#39231B;stroke-width:1.2711;stroke-linecap:round;stroke-linejoin:round;stroke-miterlimit:10;}
	.st52{fill:none;stroke:#39231B;stroke-width:1.2711;stroke-linecap:round;stroke-linejoin:round;stroke-miterlimit:10;}
	.st53{fill:#B6B6B6;}
	.st54{fill:#636666;}
	.st55{fill:#D2D4D1;}
	.st56{fill:#DE769D;}
	.st57{fill:#D2D4D5;stroke:#0C0A08;stroke-width:0.9823;stroke-linecap:round;stroke-linejoin:round;stroke-miterlimit:10;}
	.st58{fill:none;stroke:#0C0A08;stroke-width:1.0184;stroke-linecap:round;stroke-linejoin:round;stroke-miterlimit:10;}
	.st59{fill:#4B4A58;}
	.st60{fill:#FFFDFF;stroke:#12021F;stroke-width:1.1279;stroke-linecap:round;stroke-linejoin:round;stroke-miterlimit:10;}
	.st61{fill:none;stroke:#12021F;stroke-width:1.1279;stroke-linecap:round;stroke-linejoin:round;stroke-miterlimit:10;}
	.st62{fill:#A8D182;}
	.st63{fill:#8AB365;}
	.st64{fill:#F8E694;stroke:#39231B;stroke-width:1.0444;stroke-linecap:round;stroke-linejoin:round;stroke-miterlimit:10;}
	.st65{fill:#E7E6E9;}
	.st66{fill:#B6B8CD;}
	.st67{fill:#E376B1;}
	.st68{fill:#8281A3;}
	.st69{fill:#BAB9E6;}
	.st70{fill:none;}
	.st71{fill:#FDE6C4;stroke:#4D2A16;stroke-width:4.95;stroke-linecap:round;stroke-linejoin:round;stroke-miterlimit:10;}
	.st72{fill:none;stroke:#4D2A16;stroke-width:4.95;stroke-linecap:round;stroke-linejoin:round;stroke-miterlimit:10;}
	.st73{fill:#FDE6C4;stroke:#4D2A16;stroke-width:4.5341;stroke-linecap:round;stroke-linejoin:round;stroke-miterlimit:10;}
	.st74{fill:none;stroke:#4D2A16;stroke-width:3.8807;stroke-linecap:round;stroke-linejoin:round;stroke-miterlimit:10;}
	.st75{fill:#FFD7AE;stroke:#573929;stroke-width:4.8275;stroke-linecap:round;stroke-linejoin:round;stroke-miterlimit:10;}
	.st76{fill:none;stroke:#573929;stroke-width:4.8275;stroke-linecap:round;stroke-linejoin:round;stroke-miterlimit:10;}
	.st77{fill:#906045;stroke:#39231B;stroke-width:4.4588;stroke-linecap:round;stroke-linejoin:round;stroke-miterlimit:10;}
	.st78{fill:none;stroke:#39231B;stroke-width:4.4588;stroke-linecap:round;stroke-linejoin:round;stroke-miterlimit:10;}
	.st79{fill:#D2D4D5;stroke:#0C0A08;stroke-width:3.4912;stroke-linecap:round;stroke-linejoin:round;stroke-miterlimit:10;}
	.st80{fill:none;stroke:#0C0A08;stroke-width:3.6196;stroke-linecap:round;stroke-linejoin:round;stroke-miterlimit:10;}
	.st81{fill:#FFFDFF;stroke:#12021F;stroke-width:4.0523;stroke-linecap:round;stroke-linejoin:round;stroke-miterlimit:10;}
	.st82{fill:none;stroke:#12021F;stroke-width:4.0523;stroke-linecap:round;stroke-linejoin:round;stroke-miterlimit:10;}
	.st83{fill:#F8E694;stroke:#39231B;stroke-width:3.4156;stroke-linecap:round;stroke-linejoin:round;stroke-miterlimit:10;}
</style>
<g>
	<g>
		<g>
			<path class="st62" d="M494.78,370.23c-2.61,4.57-5.94,9.87-10.04,15.5c-11.08,15.42-28.16,33.4-52.72,46.73
				c-1.77,0.96-3.63,1.89-5.55,2.85c-1.58,0.8-3.18,1.54-4.82,2.23c-1.59,0.7-3.22,1.39-4.83,1.99c-1.45,0.56-2.84,1.1-4.27,1.58
				c-0.33,0.16-0.7,0.27-1,0.35c-1.53,0.53-3.09,1.01-4.6,1.47c-28.19,8.4-57.7,7.51-79.12,4.84c-0.36-0.03-0.68-0.05-1.03-0.12
				c-2.08-0.3-4.11-0.59-6.02-0.84l-0.12-0.04c-1.9-0.29-3.66-0.57-5.36-0.89c-2.41-0.42-4.66-0.88-6.66-1.29
				c-0.87-0.16-1.69-0.36-2.46-0.53c-2.16-0.47-4.01-0.89-5.46-1.25c-0.59-0.16-1.11-0.29-1.58-0.41c-0.04-0.01-0.04-0.01-0.08-0.03
				c-1.49-0.38-2.63-1.52-3.04-3.01l-11.01-40.3c-0.05-0.11-0.07-0.21-0.06-0.35c-0.05-0.11-0.05-0.25-0.05-0.39l-2.92-32.18
				c-0.28-3.21,2.92-5.58,5.88-4.36c21.02,8.75,88.64,34,143.22,22.11c29.76-6.5,46.78-10.29,57.14-16.02
				c2.64-1.45,5.83-1.55,6.77-0.11C495.41,368.27,495.4,369.1,494.78,370.23z"/>
			<path class="st42" d="M494.78,370.23c-2.61,4.57-5.94,9.87-10.04,15.5c-11.08,15.42-28.16,33.4-52.72,46.73
				c-1.77,0.96-3.63,1.89-5.55,2.85c-1.58,0.8-3.18,1.54-4.82,2.23c-1.59,0.7-3.22,1.39-4.83,1.99c-1.45,0.56-2.84,1.1-4.27,1.58
				c-0.33,0.16-0.7,0.27-1,0.35c-1.53,0.53-3.09,1.01-4.6,1.47c-28.15,8.55-57.69,7.61-79.12,4.84c-0.36-0.03-0.68-0.05-1.03-0.12
				c-2.08-0.3-4.11-0.59-6.02-0.84l-0.12-0.04c-1.9-0.29-3.66-0.57-5.36-0.89c-2.41-0.42-4.66-0.88-6.66-1.29
				c-0.87-0.16-1.69-0.36-2.46-0.53c-2.16-0.47-4.01-0.89-5.46-1.25c-0.59-0.16-1.11-0.29-1.58-0.41c-0.04-0.01-0.04-0.01-0.08-0.03
				c-1.58-0.41-2.42-0.66-2.42-0.66l-0.62-2.35l-11.01-40.3l-0.11-0.36l0.04,0.01c28.46,7.12,89.44,19.42,137.9,8.83
				c27.8-6.07,57.33-20.46,72.14-39.79C495.41,368.27,495.4,369.1,494.78,370.23z"/>
		</g>
		<path class="st63" d="M369.86,387.62c-0.66-0.55,4.46-16.15,9.03-14.27c4.57,1.88,11.31,16.71,11.31,16.71
			S373.94,391.07,369.86,387.62z"/>
		<path class="st63" d="M410.58,388.34c-0.75-0.42,1.41-16.69,6.25-15.68c4.84,1.01,14.2,14.34,14.2,14.34
			S415.23,390.97,410.58,388.34z"/>
		<path class="st63" d="M446.86,383.07c-0.83-0.23-2.76-16.52,2.18-16.74c4.94-0.22,17.3,10.39,17.3,10.39
			S452.02,384.48,446.86,383.07z"/>
	</g>
	<g>
		<g>
			<path class="st63" d="M396.64,365.92c-14.92-9.17-41.72-2.19-56.2,2.68c-5.83,1.93-9.65,3.55-9.91,3.64
				c-13.03,4.96-15.05,64.44-9.87,81.99c4.06,13.65,15.39,20.14,20.63,22.36c11.93,8.27,34.57,8.63,36.13,5.14
				c1.64-3.66-3.11-9.5-3.11-9.5s16.91,5.3,14.71-4.75c-0.8-3.67-6.04-4.5-9.55-7.31c-0.62-0.5-7.65-3.36-8.36-3.84
				c5.66-4.79,15.58-11.76,20.29-18.46c7.94-11.32,15.72-21.93,17.65-34.39C411.6,387.64,408.31,373.16,396.64,365.92z"/>
			<path class="st63" d="M32.93,365.92c14.92-9.17,41.72-2.19,56.2,2.68c5.83,1.93,9.65,3.55,9.91,3.64
				c13.03,4.96,15.05,64.44,9.87,81.99c-4.06,13.65-15.39,20.14-20.63,22.36c-11.93,8.27-34.57,8.63-36.13,5.14
				c-1.65-3.66,3.11-9.5,3.11-9.5s-16.91,5.3-14.71-4.75c0.8-3.67,5.81-5.51,9.32-8.32c0.62-0.5,1.31-0.98,2.03-1.46
				c-5.66-4.79-11.22-10.49-15.93-17.2c-7.94-11.32-13.51-24.57-15.44-37.03C17.97,387.64,21.26,373.16,32.93,365.92z"/>
			<g>
				<g>
					<g>
						<path class="st63" d="M302.38,282.81c0.38-0.57,26.64,4.72,29.64,10.09c3.01,5.37-19.25,26.85-20.9,27.28
							C309.47,320.61,299.8,286.68,302.38,282.81z"/>
					</g>
					<g>
						<path class="st63" d="M310.49,310.5c0.33-0.49,23.15,4.11,25.76,8.77c2.61,4.67-16.73,23.33-18.17,23.71
							C316.65,343.35,308.25,313.86,310.49,310.5z"/>
					</g>
					<g>
						<path class="st63" d="M317.49,336.73c0.32-0.47,22.34,3.96,24.87,8.47c2.52,4.5-16.15,22.52-17.54,22.88
							C323.44,368.44,315.33,339.98,317.49,336.73z"/>
					</g>
				</g>
			</g>
		</g>
		<path class="st42" d="M321.49,334.81c-11.52-25.77-13.16-57.58-13.16-57.58l-95.04,4.86l-95.04-4.86c0,0-1.65,31.81-13.16,57.58
			c-11.52,25.77-42.22,93.77,0,126.13c35.69,27.34,91.7,22.96,108.2,20.95c16.49,2.01,72.51,6.4,108.2-20.95
			C363.72,428.58,333.01,360.59,321.49,334.81z"/>
		<g>
			<g>
				<g>
					<path class="st62" d="M145.76,426.87c10.38,2.99,20.87,5.13,31.43,6.52c10.57,1.34,21.2,1.92,31.81,1.65
						c10.61-0.27,21.19-1.39,31.67-3.3c10.48-1.94,20.82-4.72,31.11-8.02c-9.5,5.18-19.74,9.06-30.29,11.75
						c-10.55,2.72-21.45,4.19-32.37,4.47c-10.92,0.27-21.87-0.64-32.55-2.78C165.91,435.02,155.41,431.76,145.76,426.87z"/>
				</g>
			</g>
			<g>
				<g>
					<path class="st62" d="M187.71,326.18c3.47,1,6.98,1.72,10.51,2.18c3.53,0.45,7.08,0.65,10.63,0.55
						c3.55-0.07,7.08-0.47,10.58-1.11c3.5-0.65,6.96-1.58,10.4-2.68c-3.18,1.73-6.6,3.03-10.12,3.93
						c-3.53,0.91-7.17,1.39-10.82,1.49c-3.65,0.07-7.31-0.21-10.88-0.93C194.45,328.9,190.94,327.81,187.71,326.18z"/>
				</g>
			</g>
			<g>
				<g>
					<path class="st62" d="M150.88,390.32c9.53,2.75,19.17,4.72,28.88,5.99c9.71,1.26,19.48,1.76,29.22,1.51
						c9.75-0.26,19.47-1.25,29.09-3.04c9.63-1.78,19.13-4.33,28.58-7.37c-8.73,4.76-18.13,8.32-27.83,10.79
						c-9.7,2.47-19.7,3.86-29.73,4.1c-10.03,0.26-20.09-0.61-29.9-2.56C169.39,397.8,159.75,394.81,150.88,390.32z"/>
				</g>
			</g>
			<g>
				<g>
					<path class="st62" d="M163.69,352.1c7.42,2.14,14.93,3.67,22.49,4.66c3.78,0.46,7.57,0.86,11.37,1.03
						c3.79,0.2,7.59,0.28,11.39,0.15c3.8-0.07,7.59-0.33,11.36-0.74c3.78-0.36,7.54-0.97,11.29-1.63c7.5-1.39,14.89-3.37,22.26-5.74
						c-6.8,3.7-14.12,6.48-21.67,8.4c-3.77,1-7.62,1.68-11.48,2.25c-3.87,0.52-7.77,0.82-11.67,0.95
						c-3.91,0.06-7.82-0.03-11.71-0.35c-3.89-0.36-7.76-0.85-11.58-1.64C178.11,357.93,170.6,355.6,163.69,352.1z"/>
				</g>
			</g>
		</g>
		<path class="st62" d="M356.85,490.27c-2.9,5.83-19.21-7.72-20.31-8.6c0.66,1.18,8.03,14.74,0.83,16.01
			c-13.95,2.46-25.22-14.52-27.95-13.42c-2.76,1.1,5.22,11.49,1.1,14.52c-4.12,3.03-15.88-3.86-23.6-30.97
			c-7.63-27.16,6.05-48.52,4.69-55.67c-1.36-7.15-17.02-19.48-21.1-54.84c-4.12-35.36,11.23-61.99,11.76-63.35l27.2-5.13
			c1.14,7.9,7.02,23.16,13.6,40.75c1.4,3.69,2.81,7.46,4.26,11.32c5.09,13.86,10.18,28.43,13.47,41.41
			c1.54,6.01,2.68,11.71,3.29,16.85c0.22,1.84,0.35,3.6,0.44,5.31c1.36,32.9-12.28,45.58-12.33,50.19
			c-0.04,4.61,4.12,9.87,10.88,15.09C349.88,474.91,359.88,484.26,356.85,490.27z"/>
		<g>
			<g>
				<g>
					<g>
						<path class="st63" d="M115.16,282.49c-0.38-0.57-26.63,4.72-29.64,10.09c-3.01,5.37,19.25,26.85,20.9,27.28
							C108.07,320.29,117.74,286.36,115.16,282.49z"/>
					</g>
					<g>
						<path class="st63" d="M107.05,310.18c-0.33-0.49-23.15,4.11-25.76,8.77c-2.61,4.67,16.73,23.33,18.17,23.71
							C100.9,343.03,109.29,313.54,107.05,310.18z"/>
					</g>
					<g>
						<path class="st63" d="M100.05,336.41c-0.32-0.47-22.34,3.96-24.87,8.47c-2.52,4.5,16.15,22.52,17.54,22.88
							C94.11,368.12,102.21,339.65,100.05,336.41z"/>
					</g>
				</g>
			</g>
		</g>
		<path class="st62" d="M135.26,293.96c0.55,1.37,15.9,27.97,11.79,63.34c-4.11,35.37-19.74,47.71-21.11,54.84
			c-1.37,7.13,12.34,28.52,4.66,55.66c-7.68,27.14-19.47,34-23.58,30.98c-4.11-3.02,3.84-13.41,1.1-14.51
			c-2.74-1.1-13.98,15.88-27.97,13.41c-7.49-1.32,0.91-16.09,0.91-16.09s-17.37,14.71-20.38,8.68c-3.02-6.03,6.98-15.35,13.77-20.56
			c6.79-5.21,10.94-10.47,10.9-15.08s-13.71-17.27-12.34-50.18c1.37-32.9,32.25-96.38,35.04-115.64L135.26,293.96z"/>
		<g>
			<path class="st43" d="M347.39,272.94c-55.14,35.24-173.76,63.33-270.29,0c-48.81-31.99-63.99-71.24-57-105.6l0.06-0.05
				c1.21-6.1,3.13-11.98,5.72-17.7c17.1-37.93,43.65-34.8,46.45-51.07c2.86-16.27,1.03-86.02,57.88-96.91
				c46.64-8.93,53.16,25.45,82.02,26.55c28.86-1.1,30.17-32.05,82.02-26.55c57.56,6.1,55.03,80.64,57.88,96.91
				c2.86,16.27,29.41,13.14,46.45,51.07c2.64,5.77,4.56,11.82,5.77,17.98C411.37,202.02,396.42,241.55,347.39,272.94z"/>
			<path class="st42" d="M347.39,272.94c-55.14,35.24-173.76,63.33-270.29,0c-48.81-31.99-63.99-71.24-57-105.6l0.06-0.05
				c3.96-5.99,9.24-10.83,16.11-13.58c34.85-13.74,53.38,27.49,71.35,75.09c17.98,47.66,114.67,65.09,179.26,26.61
				s42.11-101.26,84.71-103.57c15.06-0.77,25.67,5.77,32.76,15.72C411.37,202.02,396.42,241.55,347.39,272.94z"/>
			<path class="st44" d="M363.33,151.4c0,0-15.06,11.1-17.87,28.86c-1.92,12.48,0.44,28.48-11.65,47.99
				c-5.06,8.25-12.81,17.1-24.52,26.66c-10.39,8.47-26.28,16-44.91,21.33c-9.13,2.53-18.91,4.56-29.08,5.88
				c-16.27,2.14-33.48,2.47-50.3,0.33c-9.02-1.1-17.92-2.97-26.5-5.66c-15.01-4.62-29.08-11.76-41.17-21.88
				c-13.25-11.05-21.38-21.16-26.39-30.4c-9.79-17.92-7.97-32.54-9.79-44.25C78.41,162.5,63.3,151.4,63.3,151.4
				c1.37,0,11.43-1.37,24.74,28.86c3.79,8.63,8.36,18.42,15.06,27.98c16.77,23.91,46.78,46.62,110.22,46.67
				c64.43-0.05,94.33-23.47,110.93-47.77c6.32-9.24,10.72-18.58,14.35-26.88C351.89,150.02,361.95,151.4,363.33,151.4z"/>
			<path class="st10" d="M333.81,228.25c-5.06,8.25-12.81,17.1-24.52,26.66c-10.39,8.47-26.28,16-44.91,21.33
				c-9.13,2.53-18.91,4.56-29.08,5.88c-16.27,2.14-33.48,2.47-50.3,0.33c-9.02-1.1-17.92-2.97-26.5-5.66
				c-15.01-4.62-29.08-11.76-41.17-21.88c-13.25-11.05-21.38-21.16-26.39-30.4c2.31-8.96,7.53-13.69,12.15-16.27
				c3.13,4.45,6.76,8.91,10.94,13.14c4.62,4.73,10.01,9.18,16.27,13.25c3.13,2.03,6.49,3.96,10.11,5.72
				c4.95,2.47,10.33,4.73,16.22,6.6c15.17,5,33.75,7.97,56.68,7.97c22.21,0,40.24-2.8,55.14-7.48h0.06
				c5.72-1.76,10.99-3.85,15.83-6.16c3.85-1.81,7.37-3.79,10.66-5.88c6.16-3.79,11.43-8.03,16.05-12.53
				c5.22-5,9.51-10.33,13.19-15.72C329.91,214.61,333.42,221.32,333.81,228.25z"/>
			<g>
				<path class="st44" d="M314.18,86.64c0,13.66-11.07,24.73-24.73,24.73c-13.66,0-24.73-11.07-24.73-24.73s11.07-24.73,24.73-24.73
					C303.11,61.91,314.18,72.98,314.18,86.64z"/>
				<path class="st42" d="M289.93,72.01c3.18,3.47,2.03,9.7-2.57,13.93c-4.6,4.22-10.91,4.84-14.09,1.37
					c-3.18-3.47-2.03-9.7,2.57-13.93C280.44,69.15,286.75,68.54,289.93,72.01z"/>
			</g>
			<g>
				<path class="st44" d="M167.13,88.46c0,13.66-11.07,24.73-24.73,24.73s-24.73-11.07-24.73-24.73s11.07-24.73,24.73-24.73
					S167.13,74.8,167.13,88.46z"/>
				<path class="st42" d="M142.88,73.83c3.18,3.47,2.03,9.7-2.57,13.93c-4.6,4.22-10.91,4.84-14.09,1.37
					c-3.18-3.47-2.03-9.7,2.57-13.93C133.39,70.97,139.7,70.36,142.88,73.83z"/>
			</g>
			<path class="st42" d="M185,282.45c-9.02-1.1-17.92-2.97-26.5-5.66c0.99-5.83,4.62-19.46,11.76-19.13
				C176.59,258.04,182.36,273.05,185,282.45z"/>
			<path class="st42" d="M264.38,276.23c-9.13,2.53-18.91,4.56-29.08,5.88c0.38-8.8,1.48-21.11,8.74-23.09
				C251.19,257.05,259.16,267.55,264.38,276.23z"/>
			<g>
				<g>
					<path class="st42" d="M312.26,246.44c-2.69,5.17-13.85-6.16-17.26-11.05c6.16-3.79,11.43-8.03,16.05-12.53
						C312.42,230,314.35,242.43,312.26,246.44z"/>
					<path class="st42" d="M284.33,241.27c-0.44,7.04-2.14,17.48-6.21,16.27c-3.46-1.04-7.15-6.1-9.62-10.11
						C274.22,245.67,279.5,243.58,284.33,241.27z"/>
				</g>
			</g>
			<g>
				<g>
					<path class="st42" d="M130.31,234.62c-2.64,4.34-14.9,17.26-17.76,11.82c-2.2-4.29,0.16-18.31,1.48-25.07
						C118.65,226.1,124.04,230.55,130.31,234.62z"/>
					<path class="st42" d="M156.64,246.94c-2.47,4.12-6.32,9.51-9.95,10.61c-4.23,1.26-5.94-10.17-6.27-17.21
						C145.37,242.81,150.75,245.07,156.64,246.94z"/>
				</g>
			</g>
			<path class="st63" d="M241.55,201.19c-0.13-0.78-2.58-15.55,7.47-19.15c10.05-3.61,18.12,9.45,16.75,15.72
				c-1.37,6.27-7.99-5.41-11.77-2.41c-3.78,3.01-7.99,10.47-10.05,9.96C241.89,204.8,242.19,204.96,241.55,201.19z"/>
			<path class="st63" d="M172.12,201.19c0.13-0.78,2.58-15.55-7.47-19.15c-10.05-3.61-18.12,9.45-16.75,15.72
				c1.37,6.27,7.99-5.41,11.77-2.41c3.78,3.01,7.99,10.47,10.05,9.96C171.78,204.8,171.48,204.96,172.12,201.19z"/>
			<g>
				<g>
					<g>
						<g>
							<g>
								<path class="st63" d="M231.89,154.49c0-0.52,13.23-2.32,20.1,3.86"/>
								<path class="st63" d="M230.56,154.49c0-0.24,0.08-0.56,0.26-0.81c0.09-0.12,0.19-0.23,0.28-0.31l0.09-0.07
									c0.08-0.06,0.17-0.11,0.25-0.16l0.3-0.16l0.42-0.2c0.25-0.11,0.49-0.19,0.73-0.28c0.47-0.17,0.94-0.29,1.4-0.41
									c0.93-0.21,1.86-0.38,2.8-0.46c1.88-0.19,3.78-0.13,5.68,0.16c1.89,0.29,3.79,0.83,5.55,1.74c1.76,0.9,3.41,2.17,4.53,3.85
									c0.41,0.61,0.24,1.44-0.37,1.85c-0.39,0.26-0.87,0.29-1.26,0.11l-0.09-0.04c-1.52-0.67-2.96-1.19-4.48-1.62
									c-1.51-0.41-3.06-0.75-4.66-1.02c-1.59-0.27-3.22-0.45-4.87-0.63l-2.48-0.21l-1.23-0.09l-0.57-0.03
									c-0.07-0.01-0.18-0.01-0.22-0.03c0-0.01-0.08,0-0.01-0.04c0.04-0.02,0.07-0.06,0.11-0.09c0.02-0.02-0.01,0,0.05-0.05
									c0.09-0.07,0.18-0.16,0.26-0.28c0.16-0.23,0.23-0.53,0.21-0.74c0,0.74-0.6,1.34-1.34,1.34S230.56,155.23,230.56,154.49z"/>
							</g>
						</g>
						<g>
							<g>
								<path class="st63" d="M236.48,136.19c0-0.52,13.23-2.32,20.1,3.86"/>
								<path class="st63" d="M235.15,136.19c0-0.24,0.08-0.56,0.26-0.81c0.09-0.12,0.19-0.23,0.28-0.31l0.09-0.07
									c0.08-0.06,0.17-0.11,0.25-0.16l0.3-0.16l0.42-0.2c0.25-0.11,0.49-0.19,0.73-0.28c0.47-0.17,0.94-0.29,1.4-0.41
									c0.93-0.21,1.86-0.38,2.8-0.46c1.88-0.19,3.78-0.13,5.68,0.16c1.89,0.29,3.79,0.83,5.55,1.74c1.76,0.9,3.41,2.17,4.53,3.85
									c0.41,0.61,0.24,1.44-0.37,1.85c-0.39,0.26-0.86,0.29-1.26,0.11l-0.09-0.04c-1.52-0.67-2.96-1.19-4.48-1.62
									c-1.51-0.41-3.06-0.75-4.66-1.02c-1.59-0.27-3.22-0.45-4.87-0.63l-2.48-0.21l-1.23-0.09l-0.57-0.03
									c-0.07-0.01-0.18-0.01-0.22-0.03c0-0.01-0.08,0-0.01-0.04c0.04-0.02,0.07-0.06,0.11-0.09c0.02-0.02-0.01,0,0.05-0.05
									c0.09-0.07,0.18-0.16,0.26-0.28c0.16-0.23,0.23-0.53,0.21-0.74c0,0.74-0.6,1.34-1.34,1.34
									C235.75,137.52,235.15,136.92,235.15,136.19z"/>
							</g>
						</g>
					</g>
					<g>
						<g>
							<g>
								<path class="st63" d="M195.53,153.66c0-0.52-13.23-2.32-20.1,3.87"/>
								<path class="st63" d="M194.19,153.66c-0.02,0.22,0.05,0.52,0.21,0.75c0.08,0.11,0.17,0.21,0.26,0.28
									c0.06,0.05,0.03,0.03,0.05,0.05c0.03,0.03,0.07,0.06,0.11,0.09c0.07,0.04-0.01,0.03-0.01,0.04
									c-0.04,0.01-0.14,0.02-0.22,0.03l-0.57,0.03l-1.23,0.09l-2.48,0.21c-1.65,0.18-3.28,0.36-4.87,0.63
									c-1.59,0.27-3.14,0.6-4.66,1.02c-1.52,0.42-2.96,0.95-4.48,1.62l-0.08,0.04c-0.67,0.3-1.46-0.01-1.76-0.69
									c-0.19-0.43-0.13-0.91,0.11-1.27c1.12-1.68,2.77-2.96,4.53-3.85c1.77-0.9,3.66-1.45,5.55-1.74c1.9-0.29,3.8-0.35,5.68-0.16
									c0.94,0.08,1.87,0.24,2.8,0.46c0.46,0.12,0.93,0.24,1.4,0.41c0.24,0.09,0.48,0.17,0.73,0.28l0.42,0.2l0.3,0.16
									c0.09,0.05,0.17,0.11,0.25,0.16l0.08,0.07c0.1,0.08,0.2,0.18,0.29,0.31c0.18,0.25,0.26,0.57,0.26,0.81
									c0,0.74-0.6,1.34-1.34,1.34S194.19,154.39,194.19,153.66z"/>
							</g>
						</g>
						<g>
							<g>
								<path class="st63" d="M188.27,136.19c0-0.52-13.23-2.32-20.1,3.86"/>
								<path class="st63" d="M186.93,136.19c-0.02,0.22,0.05,0.52,0.21,0.74c0.08,0.11,0.17,0.21,0.26,0.28
									c0.06,0.05,0.03,0.03,0.05,0.05c0.03,0.03,0.07,0.06,0.11,0.09c0.07,0.04-0.01,0.03-0.01,0.04
									c-0.04,0.01-0.14,0.02-0.22,0.03l-0.57,0.03l-1.23,0.09l-2.48,0.21c-1.65,0.18-3.28,0.36-4.87,0.63
									c-1.59,0.27-3.14,0.6-4.66,1.02c-1.52,0.42-2.96,0.95-4.48,1.62l-0.08,0.04c-0.67,0.3-1.46-0.01-1.76-0.69
									c-0.19-0.43-0.13-0.91,0.11-1.27c1.12-1.68,2.77-2.96,4.53-3.85c1.77-0.9,3.66-1.45,5.55-1.74c1.9-0.29,3.8-0.35,5.68-0.16
									c0.94,0.08,1.87,0.24,2.8,0.46c0.46,0.12,0.93,0.24,1.4,0.41c0.24,0.09,0.48,0.17,0.73,0.28l0.42,0.2l0.3,0.16
									c0.09,0.05,0.17,0.11,0.25,0.16l0.09,0.07c0.1,0.08,0.2,0.18,0.28,0.31c0.18,0.25,0.26,0.57,0.26,0.81
									c0,0.74-0.6,1.34-1.34,1.34S186.93,136.92,186.93,136.19z"/>
							</g>
						</g>
					</g>
				</g>
			</g>
		</g>
	</g>
</g>
</svg>
