<svg xmlns="http://www.w3.org/2000/svg" id="Layer_1" data-name="Layer 1" viewBox="0 0 500 500"><defs><style>.cls-3{fill:#e2bb78}</style></defs><path d="M252.46 382.42a1.09 1.09 0 0 0 1-.74c10.57-23.76 9.5-80.37-6.77-110.12-14.89-27.22-28.13-62.55 3.43-137.8 27-64.35 3-105.59-7.23-123.2a70 70 0 0 1-3.4-6.23c-.32-.74-1-1-1.53-.53a1.94 1.94 0 0 0-.38 2.14 71 71 0 0 0 3.58 6.59c9.95 17.11 33.24 57.17 7 119.66-14.17 33.79-20.53 62.25-19.43 87 1.05 23.71 8.75 40.72 16.15 54.24 7.26 13.27 12 33.67 13 56 .9 20.42-1.52 39.82-6.33 50.63a2 2 0 0 0 .36 2.15.9.9 0 0 0 .55.21" style="fill:#030406"/><path d="M271.4 371.06v94.75a4.5 4.5 0 0 1-.28 1.56 4.7 4.7 0 0 1-.41.82l-13 25.86a4.16 4.16 0 0 1-7.28.32l-15.4-26a4.9 4.9 0 0 1-.85-1.68 4.7 4.7 0 0 1-.19-1.32v-94.4a8.63 8.63 0 0 1 8.63-8.63h20.14a8.63 8.63 0 0 1 8.64 8.72" style="fill:#c0654a"/><path d="M271.12 467.38a4.7 4.7 0 0 1-.41.82l-10.9 21.71-2.08 4.15a4.16 4.16 0 0 1-7.28.32l-2.78-4.69L235 468.45a4.9 4.9 0 0 1-.85-1.68c1-1.28 6.12-6.88 13.05.25 0 0 6.09-8.5 12.95 0 0 0 4.84-7.55 11.22-1.2a4.5 4.5 0 0 1-.25 1.56" class="cls-3"/><rect width="37.41" height="5.83" x="234" y="377.68" class="cls-3"/><path d="m259.79 489.95-2.08 4.15a4.16 4.16 0 0 1-7.28.32l-2.78-4.69a8.94 8.94 0 0 1 12.15.22Z" style="fill:#292728"/></svg>