<svg xmlns="http://www.w3.org/2000/svg" id="Layer_1" data-name="Layer 1" viewBox="0 0 500 500"><defs><style>.cls-1{fill:#030406}.cls-4{fill:#ffbdc5}</style></defs><path d="M252.73 391.83a1.09 1.09 0 0 0 1-.74c10.57-23.76 9.5-80.37-6.77-110.12-14.89-27.22-28.13-62.55 3.43-137.8 27-64.35 3-105.59-7.23-123.2a70 70 0 0 1-3.4-6.23c-.32-.74-1-1-1.53-.53a1.94 1.94 0 0 0-.38 2.14 71 71 0 0 0 3.58 6.59c9.95 17.11 33.24 57.17 7 119.66-14.17 33.79-20.53 62.25-19.43 87 1.05 23.71 8.75 40.72 16.15 54.24 7.26 13.27 12 33.67 13 56 .9 20.42-1.52 39.82-6.33 50.63a2 2 0 0 0 .36 2.15.9.9 0 0 0 .55.21" class="cls-1"/><path d="M270.72 360.55v96.9L258.52 479l-2.5 4.43a6.63 6.63 0 0 1-11.76 0l-2.73-4.74-12.25-21.28v-96c0-10.74 8-19.46 17.85-19.46h6.57c9.4.05 17.02 8.35 17.02 18.6" style="fill:#fdd2a7"/><path d="M270.72 360.55v96.3l-11.33-6.35H242l-12.75 6.95v-96c0-10.74 8-19.46 17.85-19.46h6.57c9.43.01 17.05 8.31 17.05 18.56" style="fill:#ff6a7d"/><path d="M259.38 449.12a.55.55 0 0 1-.55-.55v-93.06a.55.55 0 0 1 1.11 0v93.05a.55.55 0 0 1-.56.56M241.68 449.12a.55.55 0 0 1-.55-.55v-93.06a.55.55 0 0 1 1.11 0v93.05a.55.55 0 0 1-.56.56" class="cls-4"/><path d="m258.52 479-2.52 4.42a6.63 6.63 0 0 1-11.75.05l-2.73-4.75a15.74 15.74 0 0 1 17 .27Z" class="cls-1"/><path d="M273.4 377.65a2.68 2.68 0 0 1-3.64 1.87c-2.53-1.15-8-2.75-18.62-2.75-11.08 0-17.35 2.27-20.3 3.78a2.68 2.68 0 0 1-3.74-1.71 9.9 9.9 0 0 1 .46-7.38 3.11 3.11 0 0 0-.22-2.84 9.7 9.7 0 0 1-1.27-6.68 17 17 0 0 1 1.54-5c.42-.79 1.24-1 2-1.43 7.3-4.08 25.31-9.07 41.66.57a3.34 3.34 0 0 1 1.37 1.35c.91 1.82 2.56 6.07.38 9.55a3.12 3.12 0 0 0-.27 2.66c.63 1.91 1.45 5.15.65 8.01" class="cls-4"/></svg>