<svg xmlns="http://www.w3.org/2000/svg" id="Layer_1" data-name="Layer 1" viewBox="0 0 500 500"><defs><style>.cls-1{fill:#030406}.cls-4{fill:#217ade}</style></defs><path d="M248.86 398.83a1.09 1.09 0 0 1-1-.74c-10.57-23.76-9.5-80.37 6.77-110.12 14.89-27.22 28.13-62.55-3.43-137.8-27-64.35-3-105.59 7.23-123.2a70 70 0 0 0 3.4-6.23c.32-.74 1-1 1.53-.53a1.94 1.94 0 0 1 .38 2.14 71 71 0 0 1-3.58 6.59c-9.95 17.11-33.24 57.17-7 119.66 14.17 33.79 20.53 62.25 19.43 87-1.05 23.71-8.75 40.72-16.15 54.24-7.26 13.27-12 33.67-13 56-.9 20.42 1.52 39.82 6.33 50.63a2 2 0 0 1-.36 2.15.9.9 0 0 1-.55.21" class="cls-1"/><path d="M268.71 348.8v111.26l-12.2 24.74-2.5 5.09c-2.69 5.46-9 5.49-11.76.05l-2.73-5.44-12.25-24.43V349.84c0-12.34 8-22.34 17.85-22.34h6.57c9.4 0 17.02 9.5 17.02 21.3" style="fill:#fdd2a7"/><path d="M268.71 348.8v110.58l-11.33-7.29H240l-12.75 8V349.84c0-12.34 8-22.34 17.85-22.34h6.57c9.42 0 17.04 9.5 17.04 21.3" style="fill:#88c2f7"/><path d="M257.38 450.46a.59.59 0 0 1-.59-.59V343a.59.59 0 0 1 1.19 0v106.86a.59.59 0 0 1-.6.6M239.67 450.46a.59.59 0 0 1-.59-.59V343a.59.59 0 0 1 1.19 0v106.86a.59.59 0 0 1-.6.6" class="cls-4"/><path d="M268.71 348.8v8.82c-3.66-6.45-9.54-12.81-18.53-13.11-13.53-.44-20.28 7.29-22.9 11.44v-6.11c0-12.34 8-22.34 17.85-22.34h6.57c9.39 0 17.01 9.5 17.01 21.3" class="cls-4"/><path d="m256.51 484.8-2.51 5.09c-2.69 5.46-9 5.49-11.75.06l-2.73-5.45a14.05 14.05 0 0 1 17 .31Z" class="cls-1"/></svg>