<svg xmlns="http://www.w3.org/2000/svg" xml:space="preserve" id="Layer_1" x="0" y="0" style="enable-background:new 0 0 500 500" version="1.1" viewBox="0 0 500 500"><style type="text/css">.st21{fill:#39231b}.st29{fill:#eb96c4}.st30{fill:#b1b6ca}.st31{fill:#cbd0e4}.st32{fill:#e7e7e7}.st65{fill:#e7e6e9}.st66{fill:#b6b8cd}.st67{fill:#e376b1}</style><path d="m329.41 264.92-86.45 7.89-86.45-7.89s-44.63 53.11-42.12 129.99c2.59 79.55 99.32 76.81 128.57 74.15 29.25 2.66 125.97 5.4 128.57-74.15 2.5-76.88-42.12-129.99-42.12-129.99" class="st30"/><ellipse cx="238.46" cy="371.59" class="st31" rx="67.34" ry="85.82"/><path d="M334.59 387.4c.81-.68 30.88-25.74 56.72 0 25.85 25.74.77 89.59-45.36 89.59s-22.39-80.23-11.36-89.59" class="st30"/><path d="M321.05 396.42c2.41-3.96 5.31-7.66 8.7-10.92 3.39-3.25 7.21-6.11 11.46-8.29 2.13-1.08 4.35-1.99 6.65-2.69 2.31-.67 4.69-1.12 7.08-1.3 2.4-.2 4.81.01 7.14.38 2.34.43 4.59 1.18 6.68 2.2-2.34-.16-4.59-.36-6.83-.24-2.23.09-4.43.33-6.58.78-2.15.46-4.25 1.04-6.31 1.78-2.05.76-4.06 1.65-6.01 2.65-3.92 2-7.64 4.45-11.26 7.12-3.64 2.65-7.04 5.65-10.72 8.53M382.89 470.97c-12.59 15.16-36.52 22.42-51.23 10.2s-13.35-36.9-.75-52.06c12.59-15.16 35.18-21.34 49.89-9.12s14.68 35.82 2.09 50.98" class="st31"/><path d="M371.61 462.47c-7.02 10.71-19.81 14.73-28.57 8.99s-10.18-19.08-3.16-29.79 19.81-14.73 28.57-8.99c8.77 5.75 10.18 19.08 3.16 29.79" class="st29"/><path d="M354.6 411.05c-.65.28-6.89 4.51-1.87 9.19 5.01 4.68 15.58 2.84 16.31-2.67.73-5.52-7.97-9.36-14.44-6.52M372.13 415.25c-.4.53-3.89 6.99 1.96 13.51s14.59 4.71 15.76.87c1.17-3.85-13.43-20.03-17.72-14.38M395.03 442.99c.04.3.08.59.1.88.54 6.37-3.49 10.53-8.12 7.65-4.85-3.01-3.31-12.77-2.84-13.54 1.02-1.65 4.01-4.51 7.52-1.84s3.39 7.15 3.39 7.15" class="st32"/><path d="M314.56 483.35c-4.04 4.73-8.85 8.3-14 10.83-5.92 2.93-12.27 4.49-18.48 4.89-3.23.2-6.39.12-9.44-.24-6.43-.76-12.27-2.73-16.68-5.66-2.28-1.44-4.15-3.17-5.55-5.09-.59-.8-1.1-1.6-1.51-2.49-4.12-8.66-1.25-14.96 4.34-24.47 4.59-7.74 10.53-17.81 16.94-32.61 25.31-58.5 16.84-118.64 16.22-120.01 0 0 32.64-15.76 42.68-11.2 6.67 3.03 13.04 26.24 13.04 26.24 7.34 41.77-7.65 136.38-27.56 159.81" class="st30"/><path d="M254.71 465.3c1.65 6.74-2.09 17.37-4.3 22.78-.59-.8-1.1-1.6-1.51-2.49-4.12-8.66-1.25-14.96 4.34-24.47.48.85.99 2.13 1.47 4.18M272.64 498.83c-6.43-.76-12.27-2.73-16.68-5.66 1.14-7.74 3.71-18.41 9.3-19.7 6.61-1.47 7.27 16.18 7.38 25.36M300.56 494.18c-5.92 2.93-12.27 4.49-18.48 4.89-1.29-7.82-2.72-22.02 3.23-23.59 5.33-1.4 11.61 9.83 15.25 18.7" class="st65"/><path d="M145.59 387.4c-.81-.68-30.88-25.74-56.72 0-25.85 25.74-.77 89.59 45.36 89.59 46.13-.01 22.39-80.23 11.36-89.59" class="st30"/><path d="M159.13 396.42c-3.69-2.88-7.08-5.88-10.73-8.53-3.61-2.67-7.34-5.12-11.26-7.12-1.96-1-3.96-1.88-6.01-2.65-2.06-.75-4.16-1.33-6.31-1.78s-4.35-.69-6.58-.78c-2.25-.13-4.5.08-6.83.24 2.09-1.02 4.35-1.77 6.68-2.2 2.34-.37 4.75-.58 7.14-.38 2.39.18 4.77.62 7.08 1.3 2.3.7 4.52 1.61 6.65 2.69 4.25 2.18 8.08 5.04 11.46 8.29 3.4 3.26 6.3 6.96 8.71 10.92M97.29 470.97c12.59 15.16 36.52 22.42 51.23 10.2s13.35-36.9.75-52.06c-12.59-15.16-35.18-21.34-49.89-9.12s-14.69 35.82-2.09 50.98" class="st31"/><path d="M108.57 462.47c7.02 10.71 19.81 14.73 28.57 8.99s10.18-19.08 3.16-29.79-19.81-14.73-28.57-8.99-10.18 19.08-3.16 29.79" class="st29"/><path d="M125.17 410.53c.65.28 6.89 4.51 1.87 9.19-5.01 4.68-15.58 2.84-16.31-2.67-.73-5.52 7.97-9.36 14.44-6.52M107.49 414.87c.4.53 3.89 6.99-1.96 13.51s-14.59 4.71-15.76.87c-1.17-3.85 13.43-20.03 17.72-14.38M84.59 442.62c-.04.3-.08.59-.1.88-.54 6.37 3.49 10.53 8.12 7.65 4.85-3.01 3.31-12.77 2.84-13.54-1.02-1.65-4.01-4.51-7.52-1.84s-3.39 7.15-3.39 7.15" class="st32"/><path d="M165.62 483.35c4.04 4.73 8.85 8.3 14 10.83 5.92 2.93 12.27 4.49 18.48 4.89 3.23.2 6.39.12 9.44-.24 6.43-.76 12.27-2.73 16.68-5.66 2.28-1.44 4.15-3.17 5.55-5.09.59-.8 1.1-1.6 1.51-2.49 4.11-8.66 1.25-14.96-4.34-24.47-4.59-7.74-10.53-17.81-16.94-32.61-25.31-58.5-16.84-118.64-16.22-120.01 0 0-31.2-15.81-41.05-11.7-7.04 2.94-14.67 26.74-14.67 26.74-7.35 41.77 7.65 136.38 27.56 159.81" class="st30"/><path d="M225.47 465.3c-1.65 6.74 2.09 17.37 4.3 22.78.59-.8 1.1-1.6 1.51-2.49 4.11-8.66 1.25-14.96-4.34-24.47-.48.85-.99 2.13-1.47 4.18M207.54 498.83c6.43-.76 12.27-2.73 16.68-5.66-1.14-7.74-3.71-18.41-9.3-19.7-6.61-1.47-7.27 16.18-7.38 25.36M179.62 494.18c5.92 2.93 12.27 4.49 18.48 4.89 1.29-7.82 2.72-22.02-3.23-23.59-5.33-1.4-11.62 9.83-15.25 18.7" class="st65"/><path d="M313.14 64.83s.21-53.12 18.54-61.09c25.62-11.13 45.92 11.8 47.61 27.8 1.69 16.01-42.17 41.35-42.17 41.35z" class="st66"/><path d="M323.05 56.62s.27-33.5 11.79-38.86 29.21 7.5 30.28 17.69c1.07 10.18-26.83 26.3-26.83 26.3z" class="st67"/><path d="M174.75 64.83s-.21-53.12-18.54-61.09c-25.62-11.13-45.92 11.8-47.61 27.8-1.68 16.01 42.17 41.35 42.17 41.35z" class="st66"/><path d="M164.09 55.36s-.27-33.5-11.79-38.86-29.21 7.5-30.28 17.69c-1.07 10.18 26.83 26.3 26.83 26.3z" class="st67"/><path d="M389.44 179.11c-3.46 64.73-72.36 85.82-151.84 85.82S89.78 252.19 85.55 187.5C78.48 79.56 158.12 30.16 237.6 30.16s157.16 49.4 151.84 148.95" class="st30"/><path d="M364.3 126.44c0 6.58-8.09 11.92-18.06 11.92-9.98 0-18.06-5.34-18.06-11.92s8.09-11.92 18.06-11.92c9.97.01 18.06 5.34 18.06 11.92M147.99 130.58c0 6.58-8.09 11.92-18.06 11.92-9.98 0-18.06-5.34-18.06-11.92s8.09-11.92 18.06-11.92 18.06 5.34 18.06 11.92" class="st29"/><ellipse cx="240.19" cy="223.89" class="st31" rx="170.08" ry="93.31"/><path d="M280.19 218.55s-.55 20.66-12.76 34.39c-6.1 6.89-15.13 12.02-28.44 11.98-10.81-.04-18.69-4.26-24.41-10.18-13.14-13.56-14.79-35.84-14.32-35.71 41.7 15.18 79.93-.48 79.93-.48" class="st21"/><path d="M267.43 252.95c-6.1 6.89-15.13 12.02-28.44 11.98-10.81-.04-18.69-4.26-24.41-10.18 6.36-6.67 16.23-10.92 27.38-10.92 10.09-.01 19.11 3.5 25.47 9.12" class="st29"/><circle cx="307.54" cy="97.59" r="19.66" class="st21"/><path d="M306.39 85.95c2.53 2.76 1.62 7.71-2.04 11.07s-8.67 3.84-11.21 1.09c-2.53-2.76-1.62-7.71 2.04-11.07s8.67-3.84 11.21-1.09" class="st65"/><circle cx="167.65" cy="99.22" r="19.66" class="st21"/><path d="M166.49 87.59c2.53 2.76 1.62 7.71-2.04 11.07s-8.67 3.84-11.21 1.09c-2.53-2.76-1.62-7.71 2.04-11.07 3.67-3.36 8.68-3.85 11.21-1.09" class="st65"/><path d="M171.19 192.23c-8.23 9.45-19.96 12.71-26.22 7.27-6.25-5.44-4.65-17.51 3.57-26.97 8.23-9.45 19.96-12.71 26.22-7.27 6.26 5.45 4.66 17.52-3.57 26.97M304.7 192.23c8.23 9.45 19.96 12.71 26.22 7.27 6.25-5.44 4.65-17.51-3.57-26.97-8.23-9.45-19.96-12.71-26.22-7.27-6.26 5.45-4.66 17.52 3.57 26.97" class="st30"/></svg>