<svg xmlns="http://www.w3.org/2000/svg" xml:space="preserve" id="Layer_1" x="0" y="0" style="enable-background:new 0 0 500 500" version="1.1" viewBox="0 0 500 500"><style type="text/css">.st19{fill:#ffd7ae}.st21{fill:#39231b}.st22{fill:#fdd9aa}.st23{fill:#906045}.st24{fill:#f1b275}.st25{fill:#f6595d}</style><path d="M317.47 57.87s50.41-48.88 70.55-55.39c20.13-6.51 40.18 54.8 38.4 91.51s-40.13 63.22-40.13 63.22-67.63-70.33-68.82-99.34" class="st21"/><path d="M348.17 81.11c-1.32-1.46 20.54-51.02 36.34-52.14 15.79-1.12 22.45 44.27 20.39 63.88-3.27 31.04-21.23 40.65-21.23 40.65s-25.15-40.95-35.5-52.39" class="st22"/><path d="M163.06 57.87S112.65 8.99 92.51 2.48s-40.18 54.8-38.4 91.51 40.13 63.22 40.13 63.22 67.64-70.33 68.82-99.34" class="st21"/><path d="M131.77 82.21c1.29-1.43-20.11-49.96-35.57-51.05-15.47-1.09-21.99 43.34-19.96 62.55 3.2 30.39 20.79 39.8 20.79 39.8s24.61-40.1 34.74-51.3" class="st22"/><path d="M356.71 417.59s19.94-.45 40-17.46 22.02-67.45 44.34-70.68 35.92 11.68 28.7 35.98-41.85 57.66-69.86 66.66c-28.01 8.99-44.91 3.11-44.91 3.11z" class="st24"/><ellipse cx="237.62" cy="385.95" class="st22" rx="95.64" ry="107.72"/><path d="M358.05 478.42c-1.03.58-2.14.98-3.35 1.3-.94.22-1.88.45-2.81.62-2.14.49-4.24.89-6.21 1.25-2.1.36-4.11.67-5.98.94h-.04c-8.35 1.07-13.98 1.07-13.98 1.07l9.78-98.78c3.75 2.14 24.83 12.73 31.53 38.49 6.2 23.81 3.74 48.46-8.94 55.11" class="st23"/><path d="M345.68 481.44c-2.1.42-4.11.78-5.98 1.09 1.21-3.12 2.68-8.18 2.86-13.91-.01.01 2.45 6.78 3.12 12.82M358.05 478.42c-1.03.58-2.14.98-3.35 1.3-.94.22-1.88.45-2.81.62 1.25-2.63 2.9-7.14 3.08-12.32 0 0 2.28 5.36 3.08 10.4" class="st21"/><path d="M341.57 425.7v.04c-.54 29.87-6.61 55.77-15.9 63.46-9.51 7.81-28.58 11.16-45.33 10.18a75 75 0 0 1-7.19-.71 52 52 0 0 1-6.88-1.34c-2.95-.71-5.58-1.61-7.9-2.68-5.72-2.63-9.33-6.34-9.47-11.03-.58-18.98 18.17-23.98 18.17-23.98s10.85-13.4 15.45-46.35c4.55-32.96-3.48-70.33-4.6-72.52l45.33-5c3.57 6.25 6.56 13.31 9.07 20.85 2.28 6.92 4.11 14.29 5.49 21.84 2.01 10.63 3.17 21.66 3.62 32.46.23 5 .27 9.95.14 14.78" class="st24"/><path d="M307.64 359.77c.33-1.67 4.74-8.65 12.56-3.07 7.81 5.58 10.49 16.53 5.47 19.82-4.26 2.79-21.1-1.12-18.03-16.75M325.67 387.35a4.97 4.97 0 1 1-4.97-4.97c2.75 0 4.97 2.22 4.97 4.97M341.62 416.92c-1.16.45-2.41.71-3.75.71-5.49 0-9.96-4.42-9.96-9.96 0-5.49 4.47-9.96 9.96-9.96.94 0 1.83.13 2.68.4.45 4.29.71 8.57.89 12.82.1 2.01.14 4.02.18 5.99M310.21 395.45a4.98 4.98 0 1 1-9.961-.001 4.98 4.98 0 0 1 9.961.001M329.35 430.23c0 3.98-2.23 7.2-4.98 7.2s-4.98-3.22-4.98-7.2 2.23-7.2 4.98-7.2 4.98 3.23 4.98 7.2M262.93 496.26c-1.65-.49-3.17-1.12-4.56-1.74-.71-.31-1.38-.67-2.01-.98-.04-4.11.63-11.97 5.85-15.99.01 0-.3 11.61.72 18.71M275.93 498.9c-.94-.09-1.88-.22-2.77-.36-1.25-.18-2.5-.36-3.71-.63.18-4.38 1.38-15.58 6.61-21.79 0 0-.89 14.25-.13 22.78M291.74 498.97c-2.5.13-5 .18-7.5.13.31-2.46 1.34-6.48 4.11-11.79-.01.01 1.47 6.93 3.39 11.66M118.19 478.42c1.03.58 2.14.98 3.35 1.3.94.22 1.88.45 2.81.62 2.14.49 4.24.89 6.21 1.25 2.1.36 4.11.67 5.98.94h.04c8.35 1.07 13.98 1.07 13.98 1.07l-9.78-98.78c-3.75 2.14-24.83 12.73-31.53 38.49-6.19 23.81-3.74 48.46 8.94 55.11" class="st23"/><path d="M130.56 481.44c2.1.42 4.11.78 5.98 1.09-1.21-3.12-2.68-8.18-2.86-13.91.01.01-2.45 6.78-3.12 12.82M118.19 478.42c1.03.58 2.14.98 3.35 1.3.94.22 1.88.45 2.81.62-1.25-2.63-2.9-7.14-3.08-12.32.01 0-2.27 5.36-3.08 10.4" class="st21"/><path d="M227.35 483.63c-.13 4.69-3.75 8.4-9.47 11.03-2.32 1.07-4.96 1.96-7.9 2.68-2.14.58-4.47 1.03-6.88 1.34-2.32.36-4.73.58-7.19.71-16.75.98-35.81-2.37-45.32-10.18-9.29-7.68-15.36-33.58-15.9-63.46v-.04c-.09-3.3-.09-6.65-.04-10 .04-1.61.09-3.17.18-4.78.18-3.97.45-7.99.8-11.97.63-6.88 1.56-13.75 2.81-20.5 1.38-7.55 3.22-14.92 5.49-21.84 2.5-7.55 5.49-14.6 9.06-20.85l45.33 5c-1.12 2.19-9.15 39.56-4.6 72.52 4.6 32.96 15.45 46.35 15.45 46.35s18.76 5.02 18.18 23.99" class="st24"/><path d="M170.75 359.77c-.33-1.67-4.74-8.65-12.56-3.07-7.81 5.58-10.49 16.53-5.47 19.82 4.26 2.79 21.1-1.12 18.03-16.75M152.72 387.35c0 2.74 2.23 4.97 4.97 4.97s4.97-2.23 4.97-4.97a4.97 4.97 0 0 0-4.97-4.97c-2.75 0-4.97 2.22-4.97 4.97M150.5 407.67c0 5.54-4.47 9.96-9.96 9.96-2.19 0-4.24-.71-5.89-1.92.04-1.61.09-3.17.18-4.78.18-3.97.45-7.99.8-11.97 1.47-.8 3.13-1.25 4.91-1.25 5.49.01 9.96 4.47 9.96 9.96M168.18 395.45a4.98 4.98 0 1 0 9.961-.001 4.98 4.98 0 0 0-9.961.001" class="st23"/><ellipse cx="154.02" cy="430.23" class="st23" rx="4.98" ry="7.2"/><path d="M213.31 496.26c1.65-.49 3.17-1.12 4.56-1.74.71-.31 1.38-.67 2.01-.98.04-4.11-.63-11.97-5.85-15.99 0 0 .31 11.61-.72 18.71M200.32 499.29c.94-.09 1.88-.22 2.77-.36 1.25-.18 2.5-.36 3.71-.63-.18-4.38-1.38-15.58-6.61-21.79-.01.01.89 14.25.13 22.78M184.51 499.37c2.5.13 5 .18 7.5.13-.31-2.46-1.34-6.47-4.11-11.79 0 0-1.47 6.92-3.39 11.66" class="st23"/><path d="M410.35 199.29c-9.49-13.4-12.84-77.03-65.31-125.04-41.64-38.1-90.63-38.22-109.09-36.65-18.46-1.57-67.45-1.44-109.09 36.65-52.47 48-55.82 111.64-65.31 125.04s-21.77 24-20.65 34.61 13.95 16.75 13.95 16.75S67.9 350.53 231.92 350c172.26-.56 185.13-99.36 185.13-99.36s12.84-6.14 13.95-16.75c1.12-10.6-11.16-21.2-20.65-34.6" class="st24"/><path d="M431.9 233.91c-1.12 10.58-13.98 16.75-13.98 16.75s-12.86 98.78-185.14 99.36c-163.97.54-177.06-99.36-177.06-99.36s-12.82-6.16-13.93-16.75c-1.12-10.63 11.16-21.21 20.63-34.61 9.51-13.4 12.86-77.03 65.33-125.04 21.26-19.47 44.48-29.03 64.57-33.49 17.95-4.02 33.45-3.97 42.74-3.3.63.04 1.21.09 1.79.13 8.31-.71 22.73-1.07 39.92 2.19 11.34 2.19 23.85 5.89 36.57 12.19 10.94 5.36 22.01 12.59 32.6 22.28 52.47 48 55.82 111.64 65.29 125.04 9.51 13.4 21.79 23.98 20.67 34.61" class="st24"/><path d="M335.98 181.2c0 13.25-10.74 23.99-23.99 23.99S288 194.45 288 181.2s10.74-23.99 23.99-23.99 23.99 10.74 23.99 23.99" class="st21"/><path d="M310.58 167.01c3.09 3.36 1.97 9.41-2.49 13.51s-10.59 4.69-13.67 1.33c-3.09-3.36-1.97-9.41 2.49-13.51s10.58-4.69 13.67-1.33" class="st19"/><path d="M181.49 181.2c0 13.25-10.74 23.99-23.99 23.99s-23.99-10.74-23.99-23.99 10.74-23.99 23.99-23.99 23.99 10.74 23.99 23.99" class="st21"/><ellipse cx="148.89" cy="175.4" class="st19" rx="10.97" ry="8.27" transform="rotate(-42.548 148.884 175.395)"/><path d="M238.31 196.78c-.85-.01-36.73-3.21-54.29 28.15-22.27 39.76-23.44 73.4-10.61 86.52 12.84 13.12 51.35 29.58 96.29 15.63 44.93-13.95 38.24-48.28 32.1-70.89s-25.39-58.77-63.49-59.41" class="st23"/><path d="M280.3 278.44s-6.01 11.81-15.74 21.67c-8.79 8.97-20.68 16.32-33.77 11.75-7.46-2.62-13.34-6.13-17.96-9.8-10.24-8.19-14.42-17.49-15.87-20.61-.32-.67-.51-1.06-.63-1.11l41.99-7.74z" class="st21"/><path d="M264.55 300.11c-8.79 8.97-20.68 16.32-33.77 11.75-7.46-2.62-13.34-6.13-17.96-9.8 7.15-4.51 16.88-7.18 27.57-7.18 9.12-.01 17.46 1.94 24.16 5.23" style="fill:#f66669"/><path d="M185.69 266.53s6.84 15.79 22.16 15.34c13.15-.39 29.25-8.05 29.25-8.05s15.14 10.55 29.64 8.15c18.41-3.05 21.25-16.85 21.25-16.85" style="fill:#906045;stroke:#39231b;stroke-width:4.4588;stroke-linecap:round;stroke-linejoin:round;stroke-miterlimit:10"/><path d="M235 247.97s2.11 18.87 1.61 24.63" style="fill:none;stroke:#39231b;stroke-width:4.4588;stroke-linecap:round;stroke-linejoin:round;stroke-miterlimit:10"/><path d="M233.26 262.3s-39.64-18.57-32.24-31.12c7.4-12.56 67.47-9.29 68.96.81 1.48 10.1-30.2 33.64-36.72 30.31" class="st21"/><path d="M222.39 62.66c-11.03 5.4-24.07 1.38-29.25-8.98-2.05-4.15-2.55-8.62-1.7-12.91 17.95-4.02 33.45-3.97 42.74-3.3 2.72 9.65-2.1 20.32-11.79 25.19M245.74 70c1.85 3.73.16 8.33-3.77 10.28s-8.62.51-10.47-3.22-.16-8.33 3.77-10.28c3.94-1.95 8.62-.51 10.47 3.22" class="st23"/><ellipse cx="276.79" cy="79.01" class="st23" rx="10.39" ry="10.96"/><path d="M227.57 97.42c4.63 0 8.38 3 8.38 6.71 0 3.7-3.75 6.71-8.38 6.71s-8.38-3-8.38-6.71c.01-3.71 3.76-6.71 8.38-6.71" class="st23"/><ellipse cx="200.46" cy="88.54" class="st23" rx="7.72" ry="8.14"/><path d="M370.13 226.89c0 8.03-9 14.54-20.11 14.54-11.1 0-20.11-6.51-20.11-14.54s9-14.54 20.11-14.54c11.1 0 20.11 6.51 20.11 14.54M141.99 228.99c0 8.03-9 14.54-20.11 14.54s-20.11-6.51-20.11-14.54 9-14.54 20.11-14.54 20.11 6.51 20.11 14.54" class="st25"/><path d="M395.9 248.73c2.62 4.54-1.53 11.84-9.27 16.31s-16.14 4.41-18.76-.12c-2.62-4.54 1.53-11.84 9.27-16.31 7.74-4.48 16.14-4.42 18.76.12M393.75 272.91c1.68 2.92-.98 7.61-5.96 10.49-4.98 2.87-10.38 2.84-12.06-.08s.98-7.61 5.96-10.49c4.97-2.87 10.37-2.83 12.06.08M373.34 292.47c1.29 2.23-.75 5.83-4.57 8.03-3.81 2.2-7.95 2.17-9.24-.06-1.29-2.24.75-5.83 4.57-8.03 3.81-2.21 7.95-2.18 9.24.06M66.03 233.33c-2.62 4.54 1.53 11.84 9.27 16.31s16.14 4.41 18.76-.12c2.62-4.54-1.53-11.84-9.27-16.31s-16.14-4.42-18.76.12M82.99 277.43c-1.68 2.92.98 7.61 5.96 10.49 4.98 2.87 10.38 2.84 12.06-.08s-.99-7.61-5.96-10.49c-4.98-2.87-10.38-2.84-12.06.08M103.39 296.98c-1.29 2.24.75 5.83 4.57 8.03 3.81 2.2 7.95 2.17 9.24-.06 1.29-2.24-.75-5.83-4.57-8.03-3.81-2.2-7.95-2.17-9.24.06" class="st23"/></svg>