<?xml version="1.0" encoding="utf-8"?>
<!-- Generator: Adobe Illustrator 24.0.0, SVG Export Plug-In . SVG Version: 6.00 Build 0)  -->
<svg version="1.1" id="Layer_1" xmlns="http://www.w3.org/2000/svg" xmlns:xlink="http://www.w3.org/1999/xlink" x="0px" y="0px"
	 viewBox="0 0 500 500" style="enable-background:new 0 0 500 500;" xml:space="preserve">
<style type="text/css">
	.st0{fill:#7C7D7D;}
	.st1{fill:#0C0A08;}
	.st2{fill:#5A5D5D;}
	.st3{fill:#D2D4D5;}
	.st4{fill:#DE8CAB;}
	.st5{fill:#F1A055;}
	.st6{fill:#4D2A16;}
	.st7{fill:#FDE6C4;}
	.st8{fill:#DE893A;}
	.st9{fill:#EEA150;}
	.st10{fill:#F66669;}
	.st11{fill:#FDE6C4;stroke:#4D2A16;stroke-width:1.3386;stroke-linecap:round;stroke-linejoin:round;stroke-miterlimit:10;}
	.st12{fill:none;stroke:#4D2A16;stroke-width:1.3386;stroke-linecap:round;stroke-linejoin:round;stroke-miterlimit:10;}
	.st13{fill:#FFFFFF;}
	.st14{fill:#E64825;}
	.st15{fill:#FDCD4D;}
	.st16{fill:#FDE6CA;}
	.st17{fill:#5E3E2C;}
	.st18{fill:#B37951;}
	.st19{fill:#FFD7AE;}
	.st20{fill:#C1845B;}
	.st21{fill:#39231B;}
	.st22{fill:#FDD9AA;}
	.st23{fill:#906045;}
	.st24{fill:#F1B275;}
	.st25{fill:#F6595D;}
	.st26{fill:#F8E694;}
	.st27{fill:#8AA34F;}
	.st28{fill:#778C46;}
	.st29{fill:#EB96C4;}
	.st30{fill:#B1B6CA;}
	.st31{fill:#CBD0E4;}
	.st32{fill:#E7E7E7;}
	.st33{fill:#B4B3DE;}
	.st34{fill:#9493BA;}
	.st35{fill:#F9B0CD;}
	.st36{fill:#9B9ABF;}
	.st37{fill:#FEFEFE;}
	.st38{fill:#4C4B59;}
	.st39{fill:#41414D;}
	.st40{fill:#12021F;}
	.st41{fill:#679436;}
	.st42{fill:#FFFAC9;}
	.st43{fill:#A9D07F;}
	.st44{fill:#362113;}
	.st45{fill:#FEAD30;}
	.st46{fill:#FFCD4C;}
	.st47{fill:none;stroke:#4D2A16;stroke-width:1.1457;stroke-linecap:round;stroke-linejoin:round;stroke-miterlimit:10;}
	.st48{fill:#573929;}
	.st49{fill:#FFD7AE;stroke:#573929;stroke-width:1.3386;stroke-linecap:round;stroke-linejoin:round;stroke-miterlimit:10;}
	.st50{fill:none;stroke:#573929;stroke-width:1.3386;stroke-linecap:round;stroke-linejoin:round;stroke-miterlimit:10;}
	.st51{fill:#906045;stroke:#39231B;stroke-width:1.2711;stroke-linecap:round;stroke-linejoin:round;stroke-miterlimit:10;}
	.st52{fill:none;stroke:#39231B;stroke-width:1.2711;stroke-linecap:round;stroke-linejoin:round;stroke-miterlimit:10;}
	.st53{fill:#B6B6B6;}
	.st54{fill:#636666;}
	.st55{fill:#D2D4D1;}
	.st56{fill:#DE769D;}
	.st57{fill:#D2D4D5;stroke:#0C0A08;stroke-width:0.9823;stroke-linecap:round;stroke-linejoin:round;stroke-miterlimit:10;}
	.st58{fill:none;stroke:#0C0A08;stroke-width:1.0184;stroke-linecap:round;stroke-linejoin:round;stroke-miterlimit:10;}
	.st59{fill:#4B4A58;}
	.st60{fill:#FFFDFF;stroke:#12021F;stroke-width:1.1279;stroke-linecap:round;stroke-linejoin:round;stroke-miterlimit:10;}
	.st61{fill:none;stroke:#12021F;stroke-width:1.1279;stroke-linecap:round;stroke-linejoin:round;stroke-miterlimit:10;}
	.st62{fill:#A8D182;}
	.st63{fill:#8AB365;}
	.st64{fill:#F8E694;stroke:#39231B;stroke-width:1.0444;stroke-linecap:round;stroke-linejoin:round;stroke-miterlimit:10;}
	.st65{fill:#E7E6E9;}
	.st66{fill:#B6B8CD;}
	.st67{fill:#E376B1;}
	.st68{fill:#8281A3;}
	.st69{fill:#BAB9E6;}
	.st70{fill:none;}
	.st71{fill:#FDE6C4;stroke:#4D2A16;stroke-width:4.95;stroke-linecap:round;stroke-linejoin:round;stroke-miterlimit:10;}
	.st72{fill:none;stroke:#4D2A16;stroke-width:4.95;stroke-linecap:round;stroke-linejoin:round;stroke-miterlimit:10;}
	.st73{fill:#FDE6C4;stroke:#4D2A16;stroke-width:4.5341;stroke-linecap:round;stroke-linejoin:round;stroke-miterlimit:10;}
	.st74{fill:none;stroke:#4D2A16;stroke-width:3.8807;stroke-linecap:round;stroke-linejoin:round;stroke-miterlimit:10;}
	.st75{fill:#FFD7AE;stroke:#573929;stroke-width:4.8275;stroke-linecap:round;stroke-linejoin:round;stroke-miterlimit:10;}
	.st76{fill:none;stroke:#573929;stroke-width:4.8275;stroke-linecap:round;stroke-linejoin:round;stroke-miterlimit:10;}
	.st77{fill:#906045;stroke:#39231B;stroke-width:4.4588;stroke-linecap:round;stroke-linejoin:round;stroke-miterlimit:10;}
	.st78{fill:none;stroke:#39231B;stroke-width:4.4588;stroke-linecap:round;stroke-linejoin:round;stroke-miterlimit:10;}
	.st79{fill:#D2D4D5;stroke:#0C0A08;stroke-width:3.4912;stroke-linecap:round;stroke-linejoin:round;stroke-miterlimit:10;}
	.st80{fill:none;stroke:#0C0A08;stroke-width:3.6196;stroke-linecap:round;stroke-linejoin:round;stroke-miterlimit:10;}
	.st81{fill:#FFFDFF;stroke:#12021F;stroke-width:4.0523;stroke-linecap:round;stroke-linejoin:round;stroke-miterlimit:10;}
	.st82{fill:none;stroke:#12021F;stroke-width:4.0523;stroke-linecap:round;stroke-linejoin:round;stroke-miterlimit:10;}
	.st83{fill:#F8E694;stroke:#39231B;stroke-width:3.4156;stroke-linecap:round;stroke-linejoin:round;stroke-miterlimit:10;}
</style>
<g>
	<g>
		<g>
			<g>
				<path class="st0" d="M471.73,400.63c-50.85,53.42-138.37,37.57-138.37,37.57l-31.31-18.14c-3.91,0.84,5.47-63.41,72.73-80.77
					c8.76-2.23,16.86-4.47,24.34-6.64c49.73-14.34,71.61-26.74,80.43-42.42C479.55,290.22,522.52,347.21,471.73,400.63z"/>
				<path class="st3" d="M471.73,400.63c-18.92,11.72-19.49-23.55-19.49-23.55s-18.13,11.16-32.97,4.86
					c-14.85-6.25,9.27-25.12,9.27-25.12s-19.15,0.67-29.64-7.03c-5.41-3.96-3.8-10.72,0.22-17.14
					c49.73-14.34,71.61-26.74,80.43-42.42C479.55,290.22,522.52,347.21,471.73,400.63z"/>
			</g>
			<ellipse class="st53" cx="215.33" cy="384.25" rx="96.86" ry="109.03"/>
			<g>
				<g>
					<path class="st54" d="M336.95,477.83c-1.04,0.59-2.17,1-3.39,1.31c-0.95,0.23-1.9,0.45-2.85,0.63c-2.17,0.5-4.3,0.91-6.29,1.27
						c-2.13,0.36-4.16,0.68-6.06,0.95h-0.05c-8.46,1.09-14.16,1.09-14.16,1.09L314.05,383c3.8,2.17,25.16,12.89,31.94,39
						C352.29,446.11,349.8,471.09,336.95,477.83z"/>
					<g>
						<path class="st1" d="M324.41,480.88c-2.13,0.42-4.16,0.79-6.06,1.11c1.22-3.17,2.71-8.29,2.9-14.09
							C321.25,467.9,323.74,474.76,324.41,480.88z"/>
						<path class="st1" d="M336.95,477.83c-1.04,0.59-2.17,1-3.39,1.31c-0.95,0.23-1.9,0.45-2.85,0.63
							c1.27-2.67,2.94-7.24,3.12-12.49C333.83,467.29,336.13,472.72,336.95,477.83z"/>
					</g>
				</g>
				<path class="st0" d="M304.14,488.73c-9.64,7.92-28.96,11.31-45.92,10.32c-2.49-0.14-4.93-0.36-7.28-0.72
					c-2.44-0.32-4.8-0.77-6.97-1.36c-2.99-0.72-5.66-1.63-8.01-2.71c-5.79-2.67-9.46-6.42-9.59-11.18
					c-0.59-19.23,18.41-24.3,18.41-24.3s10.99-13.57,15.66-46.96c4.61-33.39-3.53-71.26-4.66-73.48l45.92-5.07
					C328.85,380.73,323.37,472.9,304.14,488.73z"/>
				<g>
					<path class="st54" d="M240.58,496.02c-1.67-0.5-3.21-1.13-4.62-1.76c-0.72-0.32-1.4-0.68-2.04-1
						c-0.05-4.16,0.63-12.13,5.93-16.2C239.85,477.06,239.54,488.82,240.58,496.02z"/>
					<path class="st54" d="M253.74,498.69c-0.95-0.09-1.9-0.23-2.81-0.36c-1.27-0.18-2.53-0.36-3.76-0.63
						c0.18-4.43,1.4-15.79,6.7-22.08C253.88,475.61,252.97,490.04,253.74,498.69z"/>
					<path class="st54" d="M269.76,499.05c-2.53,0.14-5.07,0.18-7.6,0.14c0.32-2.49,1.36-6.56,4.16-11.94
						C266.32,487.24,267.81,494.25,269.76,499.05z"/>
				</g>
			</g>
			<g>
				<g>
					<path class="st54" d="M93.93,477.83c1.04,0.59,2.17,1,3.39,1.31c0.95,0.23,1.9,0.45,2.85,0.63c2.17,0.5,4.3,0.91,6.29,1.27
						c2.13,0.36,4.16,0.68,6.06,0.95h0.05c8.46,1.09,14.16,1.09,14.16,1.09L116.83,383c-3.8,2.17-25.16,12.89-31.94,39
						C78.59,446.11,81.08,471.09,93.93,477.83z"/>
					<g>
						<path class="st1" d="M106.46,480.88c2.13,0.42,4.16,0.79,6.06,1.11c-1.22-3.17-2.71-8.29-2.9-14.09
							C109.63,467.9,107.14,474.76,106.46,480.88z"/>
						<path class="st1" d="M93.93,477.83c1.04,0.59,2.17,1,3.39,1.31c0.95,0.23,1.9,0.45,2.85,0.63c-1.27-2.67-2.94-7.24-3.12-12.49
							C97.05,467.29,94.75,472.72,93.93,477.83z"/>
					</g>
				</g>
				<path class="st0" d="M126.73,488.73c9.64,7.92,28.96,11.31,45.92,10.32c2.49-0.14,4.93-0.36,7.28-0.72
					c2.44-0.32,4.8-0.77,6.97-1.36c2.99-0.72,5.66-1.63,8.01-2.71c5.79-2.67,9.46-6.42,9.59-11.18c0.59-19.23-18.41-24.3-18.41-24.3
					s-10.99-13.57-15.65-46.96c-4.61-33.39,3.53-71.26,4.66-73.48l-45.92-5.07C102.03,380.73,107.5,472.9,126.73,488.73z"/>
				<g>
					<path class="st54" d="M190.3,496.02c1.67-0.5,3.21-1.13,4.61-1.76c0.72-0.32,1.4-0.68,2.04-1c0.05-4.16-0.63-12.13-5.93-16.2
						C191.03,477.06,191.34,488.82,190.3,496.02z"/>
					<path class="st54" d="M177.14,498.69c0.95-0.09,1.9-0.23,2.81-0.36c1.27-0.18,2.53-0.36,3.76-0.63
						c-0.18-4.43-1.4-15.79-6.7-22.08C177,475.61,177.91,490.04,177.14,498.69z"/>
					<path class="st54" d="M161.12,499.05c2.53,0.14,5.07,0.18,7.6,0.14c-0.32-2.49-1.36-6.56-4.16-11.94
						C164.56,487.24,163.07,494.25,161.12,499.05z"/>
				</g>
			</g>
		</g>
		<g>
			<g>
				<g>
					<path class="st54" d="M261.06,66.64c-0.57,0.57,21.68-34.31,60.89-57.88c39.21-23.57,47.88,8.29,49.39,50.9
						c1.35,38.18-14.52,74.09-14.52,74.09L261.06,66.64z"/>
					<path class="st55" d="M298.76,77.19c-0.57-0.38,26.2-48.83,40.72-50.15c14.52-1.32,20.55,67.68,8.48,89.92L298.76,77.19z"/>
				</g>
				<g>
					<path class="st54" d="M158.76,66.64c0.57,0.57-21.68-34.31-60.89-57.88c-39.21-23.57-47.88,8.29-49.39,50.9
						c-1.35,38.18,14.52,74.09,14.52,74.09L158.76,66.64z"/>
					<path class="st55" d="M121.06,77.19c0.57-0.38-26.2-48.83-40.72-50.15c-14.52-1.32-20.55,67.68-8.48,89.92L121.06,77.19z"/>
				</g>
			</g>
			<ellipse class="st0" cx="206.57" cy="198.03" rx="175.89" ry="148.74"/>
			<path class="st53" d="M391.51,205.76c-8.29,9.43-28.65,21.49-32.43-15.46c-3.77-36.95-21.49-78.05-72.39-65.6
				s-25.26,96.52-36.2,110.85c-8.17,10.7-28.5,13.4-39.07,13.21l-0.02-0.98c-0.21,0.23-0.8,0.44-1.7,0.6
				c-0.45,0.08-0.98,0.15-1.57,0.21c-0.59-0.06-1.12-0.13-1.57-0.21c-0.9-0.16-1.49-0.37-1.7-0.6l-0.02,0.98
				c-10.57,0.19-30.9-2.51-39.07-13.21c-10.93-14.33,14.7-98.41-36.2-110.85c-50.9-12.44-68.62,28.65-72.39,65.6
				c-3.77,36.95-24.13,24.88-32.43,15.46c-8.29-9.43-24.84-8.3-19.98,38.08c4.15,39.59,49.71,86.82,128.19,98.03
				c42.09,6.01,62.74,7.48,72.43,7.72c0.71,0.03,1.61,0.04,2.73,0.04c1.12,0,2.01-0.01,2.73-0.04c9.69-0.24,30.34-1.71,72.43-7.72
				c78.48-11.21,124.05-58.44,128.19-98.03C416.35,197.46,399.81,196.34,391.51,205.76z"/>
			<path class="st3" d="M201.86,244.79c-0.43,0.13-51.42-14.52-63.58,10.79c-12.16,25.31,8.06,45.1,38.46,58.96
				c30.4,13.86,35.21,16.68,54.86,5.66c19.65-11.03,48.18-23.37,48.36-52.88C280.09,245.54,260.54,227.54,201.86,244.79z"/>
			<ellipse class="st56" cx="325.06" cy="235.5" rx="20.93" ry="15.13"/>
			<path class="st56" d="M116.93,235.09c0,8.36-9.37,15.13-20.93,15.13c-11.56,0-20.93-6.77-20.93-15.13s9.37-15.13,20.93-15.13
				C107.56,219.96,116.93,226.74,116.93,235.09z"/>
			<g>
				<g>
					<path class="st1" d="M248.12,281.26c0,0-5.46,12.19-14.31,22.36c-7.99,9.25-18.8,16.84-30.7,12.13
						c-6.78-2.7-12.13-6.32-16.33-10.12c-9.31-8.45-13.11-18.05-14.43-21.27c-0.29-0.69-0.46-1.09-0.57-1.15l38.17-7.99
						L248.12,281.26z"/>
					<path class="st56" d="M233.8,303.62c-7.99,9.25-18.8,16.84-30.7,12.13c-6.78-2.7-12.13-6.32-16.33-10.12
						c6.5-4.66,15.35-7.42,25.06-7.42C220.12,298.22,227.71,300.23,233.8,303.62z"/>
				</g>
				<g>
					<path class="st79" d="M165.05,275.08c0,0,6.75,8.28,18.3,9.37c11.54,1.09,25.75-8.05,25.75-8.05s13.46,11.29,26.09,8.14
						c12.63-3.15,16.99-10.33,16.99-10.33"/>
				</g>
				<g>
					<path class="st80" d="M209.02,253.64c0,0,0,16.6-0.38,21.59"/>
				</g>
			</g>
			<path class="st1" d="M208.3,265.34c-11.88,0.1-36.01-16.94-36.01-25.84c0-7.15,10.72-13.2,26.39-13.75
				c15.67-0.55,42.35-1.37,46.64,9.07C251.98,251.04,220.6,265.23,208.3,265.34z"/>
		</g>
	</g>
	<g>
		<g>
			<g>
				<ellipse class="st1" cx="287.68" cy="199.42" rx="24.43" ry="26.25"/>
				<path class="st3" d="M286.24,183.9c3.14,3.68,2.01,10.3-2.54,14.78c-4.54,4.48-10.78,5.13-13.92,1.45
					c-3.14-3.68-2.01-10.3,2.54-14.78C276.87,180.87,283.1,180.22,286.24,183.9z"/>
			</g>
			<g>
				<ellipse class="st1" cx="133.24" cy="199.42" rx="24.3" ry="26.25"/>
				<path class="st3" d="M131.81,183.9c3.13,3.68,2,10.3-2.52,14.78c-4.52,4.48-10.72,5.13-13.85,1.45c-3.13-3.68-2-10.3,2.52-14.78
					C122.48,180.87,128.68,180.22,131.81,183.9z"/>
			</g>
		</g>
	</g>
</g>
</svg>
