<svg xmlns="http://www.w3.org/2000/svg" xml:space="preserve" id="Layer_1" x="0" y="0" style="enable-background:new 0 0 500 500" version="1.1" viewBox="0 0 500 500"><style type="text/css">.st10{fill:#f66669}.st37{fill:#fefefe}.st38{fill:#4c4b59}.st39{fill:#41414d}.st40{fill:#12021f}.st59{fill:#4b4a58}</style><path d="M335.25 384.62c1.21-1.52 4.95-22.11 15.63-25.16 10.67-3.05 14.48 5.75 14.48 5.75s11.43-4.22 20.2 2.64 6.1 12.96 6.1 12.96 10.29.96 10.67 18.02c.38 17.05-12.58 22.39-12.58 22.39s1.8 8.39-9.15 13.34-34.82-7.62-36.09-8.77c-1.26-1.15-15.36-33.54-9.26-41.17" class="st38"/><ellipse cx="249.97" cy="383.09" class="st38" rx="97.95" ry="110.33"/><path d="M297.72 425.69c0 27.7-23.08 50.16-51.55 50.16s-51.55-22.46-51.55-50.16 21.74-56.16 50.21-56.16 52.89 28.45 52.89 56.16" class="st37"/><path d="M373.32 477.8c-1.05.59-2.19 1.01-3.43 1.33-.96.23-1.92.46-2.88.64-2.19.5-4.34.92-6.36 1.28-2.15.37-4.21.69-6.13.96h-.05c-8.55 1.1-14.32 1.1-14.32 1.1l10.02-101.17c3.84 2.2 25.43 13.04 32.29 39.43 6.37 24.37 3.85 49.62-9.14 56.43" class="st39"/><path d="M360.65 480.89c-2.15.43-4.21.8-6.13 1.12 1.23-3.2 2.74-8.38 2.93-14.24 0 0 2.52 6.93 3.2 13.12M373.32 477.8c-1.05.59-2.19 1.01-3.43 1.33-.96.23-1.92.46-2.88.64 1.28-2.7 2.97-7.32 3.16-12.62 0 0 2.33 5.49 3.15 10.65" class="st40"/><path d="M356.44 423.8v.05c-.55 30.6-6.77 57.13-16.28 64.99-9.74 8-29.27 11.43-46.42 10.43-2.52-.14-4.99-.37-7.36-.73-2.47-.32-4.85-.78-7.04-1.37-3.02-.73-5.72-1.65-8.1-2.74-5.85-2.7-9.56-6.49-9.7-11.3-.59-19.44 18.61-24.56 18.61-24.56s11.11-13.72 15.83-47.48c4.67-33.75-3.57-72.04-4.71-74.28l46.42-5.12c3.66 6.4 6.72 13.63 9.29 21.36 2.33 7.09 4.21 14.64 5.63 22.37 2.06 10.89 3.25 22.18 3.7 33.25.22 5.11.27 10.19.13 15.13" class="st38"/><path d="M275.9 496.48c-1.69-.5-3.25-1.14-4.67-1.78-.73-.32-1.42-.69-2.06-1.01-.05-4.21.64-12.26 5.99-16.37.01-.01-.31 11.88.74 19.16M289.21 499.17c-.96-.09-1.92-.23-2.84-.37-1.28-.18-2.56-.37-3.8-.64.18-4.48 1.42-15.96 6.77-22.32.01.01-.91 14.6-.13 23.33M305.4 499.25c-2.56.14-5.12.18-7.68.14.32-2.52 1.37-6.63 4.21-12.07 0 0 1.51 7.09 3.47 11.93" class="st40"/><path d="M127.65 477.8c1.05.59 2.19 1.01 3.43 1.33.96.23 1.92.46 2.88.64 2.19.5 4.34.92 6.36 1.28 2.15.37 4.21.69 6.13.96h.05c8.55 1.1 14.32 1.1 14.32 1.1L150.8 381.94c-3.84 2.2-25.43 13.04-32.29 39.43-6.36 24.37-3.85 49.62 9.14 56.43" class="st39"/><path d="M140.32 480.89c2.15.43 4.21.8 6.13 1.12-1.23-3.2-2.74-8.38-2.93-14.24.01 0-2.51 6.93-3.2 13.12M127.65 477.8c1.05.59 2.19 1.01 3.43 1.33.96.23 1.92.46 2.88.64-1.28-2.7-2.97-7.32-3.16-12.62.01 0-2.32 5.49-3.15 10.65" class="st40"/><path d="M144.54 423.8v.05c.55 30.6 6.77 57.13 16.28 64.99 9.74 8 29.27 11.43 46.42 10.43 2.52-.14 4.99-.37 7.36-.73 2.47-.32 4.85-.78 7.04-1.37 3.02-.73 5.72-1.65 8.1-2.74 5.85-2.7 9.56-6.49 9.7-11.3.59-19.44-18.62-24.56-18.62-24.56s-11.11-13.72-15.83-47.48c-4.67-33.75 3.57-72.04 4.71-74.28l-46.42-5.12c-3.66 6.4-6.72 13.63-9.28 21.36-2.33 7.09-4.21 14.64-5.63 22.37-2.06 10.89-3.25 22.18-3.7 33.25-.22 5.11-.27 10.19-.13 15.13" class="st38"/><path d="M225.07 496.48c1.69-.5 3.25-1.14 4.67-1.78.73-.32 1.42-.69 2.06-1.01.05-4.21-.64-12.26-5.99-16.37 0-.01.32 11.88-.74 19.16M211.77 499.17c.96-.09 1.92-.23 2.84-.37 1.28-.18 2.56-.37 3.8-.64-.18-4.48-1.42-15.96-6.77-22.32-.01.01.9 14.6.13 23.33M195.57 499.25c2.56.14 5.12.18 7.68.14-.32-2.52-1.37-6.63-4.21-12.07.01 0-1.5 7.09-3.47 11.93" class="st40"/><path d="M463.74 108.01c-16.39 32.24-54.93 48.67-90.67 30.5-35.74-18.18-61.32-67.96-44.93-100.2s62.25-46.11 98-27.93c35.74 18.17 53.99 65.39 37.6 97.63" class="st38"/><path d="M428.38 95.46c-9.41 18.5-33.66 25.04-54.18 14.61-20.51-10.43-29.51-33.89-20.11-52.39 9.41-18.5 33.66-25.04 54.18-14.61 20.52 10.44 29.52 33.89 20.11 52.39" class="st10"/><path d="M37.24 108.01c16.39 32.24 54.93 48.67 90.67 30.5 35.74-18.18 61.32-67.96 44.93-100.2s-62.25-46.11-98-27.93c-35.74 18.17-53.99 65.39-37.6 97.63" class="st38"/><path d="M72.59 95.46c9.41 18.5 33.66 25.04 54.18 14.61s29.51-33.89 20.11-52.39-33.67-25.03-54.18-14.6-29.52 33.88-20.11 52.38" class="st10"/><path d="M436.05 196.07c.56-4.88.87-9.82.87-14.82 0-84.66-82.59-153.3-184.47-153.3S67.99 96.59 67.99 181.26c0 5 .31 9.94.87 14.82-7.86 12.09-12.18 25.16-12.18 38.82 0 61.66 87.65 111.64 195.78 111.64s195.78-49.98 195.78-111.64c-.01-13.66-4.32-26.73-12.19-38.83" class="st37"/><path d="M205.23 213.12c1.09 1.09 11.98-54.19-28.05-68.07-40.03-13.89-83.05 37.18-77.87 76.79 5.58 42.74 62.35 43.84 83.32 27.5 21.1-16.45 22.6-36.22 22.6-36.22" class="st59"/><path d="M223.58 36.13c.54-3.27 7.62-35.94 20.69-35.94s4.92 22.87 4.92 22.87 20.33-16.7 26.67-4.9c6.34 11.79-15.79 27.23-15.79 27.23" class="st37"/><path d="M292.74 213.12c-1.09 1.09-11.98-54.19 28.05-68.07 40.03-13.89 83.05 37.18 77.87 76.79-5.58 42.74-62.35 43.84-83.32 27.5-21.1-16.45-22.6-36.22-22.6-36.22" class="st59"/><circle cx="331.18" cy="204.19" r="26.47" class="st40"/><path d="M331.7 188.53c3.41 3.71 2.18 10.39-2.75 14.91-4.92 4.52-11.68 5.18-15.09 1.46-3.41-3.71-2.18-10.39 2.75-14.91s11.68-5.17 15.09-1.46" class="st37"/><circle cx="165.73" cy="204.19" r="26.47" class="st40"/><path d="M166.25 188.53c3.41 3.71 2.18 10.39-2.75 14.91-4.92 4.52-11.68 5.18-15.09 1.46-3.41-3.71-2.18-10.39 2.75-14.91s11.68-5.17 15.09-1.46" class="st37"/><path d="M289.96 260.03s-5.46 10.73-14.31 19.69c-7.99 8.15-18.79 14.83-30.69 10.68-6.78-2.38-12.13-5.57-16.32-8.91-9.31-7.44-13.1-15.89-14.42-18.73-.29-.61-.46-.96-.57-1.01l38.16-7.04z" class="st40"/><path d="M275.65 279.72c-7.99 8.15-18.79 14.83-30.69 10.68-6.78-2.38-12.13-5.57-16.32-8.91 6.49-4.1 15.34-6.53 25.06-6.53 8.27 0 15.86 1.77 21.95 4.76" class="st10"/><path d="M203.98 249.19s6.21 14.35 20.14 13.94c11.96-.35 26.59-7.32 26.59-7.32s13.76 9.59 26.94 7.41c16.74-2.77 19.32-15.31 19.32-15.31" style="fill:#fffdff;stroke:#12021f;stroke-width:4.0523;stroke-linecap:round;stroke-linejoin:round;stroke-miterlimit:10"/><path d="M250.7 232.03s0 17.44-.45 22.68" style="fill:none;stroke:#12021f;stroke-width:4.0523;stroke-linecap:round;stroke-linejoin:round;stroke-miterlimit:10"/><path d="M249.59 242.34s-24.47-11.46-19.9-19.21 41.65-5.73 42.57.5c.91 6.24-18.64 20.77-22.67 18.71" class="st40"/><path d="M416.27 273.19c0 7.83-8.78 14.18-19.62 14.18-10.83 0-19.62-6.35-19.62-14.18s8.78-14.18 19.62-14.18 19.62 6.34 19.62 14.18M131.59 273.19c0 7.83-8.78 14.18-19.62 14.18-10.83 0-19.62-6.35-19.62-14.18s8.78-14.18 19.62-14.18c10.83 0 19.62 6.34 19.62 14.18" class="st10"/></svg>