<svg xmlns="http://www.w3.org/2000/svg" xml:space="preserve" id="Layer_1" x="0" y="0" style="enable-background:new 0 0 500 500" version="1.1" viewBox="0 0 500 500"><style type="text/css">.st42{fill:#fffac9}.st44{fill:#362113}.st62{fill:#a8d182}.st63{fill:#8ab365}</style><path d="M494.78 370.23a168 168 0 0 1-10.04 15.5c-11.08 15.42-28.16 33.4-52.72 46.73-1.77.96-3.63 1.89-5.55 2.85-1.58.8-3.18 1.54-4.82 2.23-1.59.7-3.22 1.39-4.83 1.99-1.45.56-2.84 1.1-4.27 1.58-.33.16-.7.27-1 .35-1.53.53-3.09 1.01-4.6 1.47-28.19 8.4-57.7 7.51-79.12 4.84-.36-.03-.68-.05-1.03-.12-2.08-.3-4.11-.59-6.02-.84l-.12-.04c-1.9-.29-3.66-.57-5.36-.89-2.41-.42-4.66-.88-6.66-1.29-.87-.16-1.69-.36-2.46-.53-2.16-.47-4.01-.89-5.46-1.25-.59-.16-1.11-.29-1.58-.41-.04-.01-.04-.01-.08-.03-1.49-.38-2.63-1.52-3.04-3.01l-11.01-40.3a.67.67 0 0 1-.06-.35c-.05-.11-.05-.25-.05-.39l-2.92-32.18c-.28-3.21 2.92-5.58 5.88-4.36 21.02 8.75 88.64 34 143.22 22.11 29.76-6.5 46.78-10.29 57.14-16.02 2.64-1.45 5.83-1.55 6.77-.11.42.51.41 1.34-.21 2.47" class="st62"/><path d="M494.78 370.23a168 168 0 0 1-10.04 15.5c-11.08 15.42-28.16 33.4-52.72 46.73-1.77.96-3.63 1.89-5.55 2.85-1.58.8-3.18 1.54-4.82 2.23-1.59.7-3.22 1.39-4.83 1.99-1.45.56-2.84 1.1-4.27 1.58-.33.16-.7.27-1 .35-1.53.53-3.09 1.01-4.6 1.47-28.15 8.55-57.69 7.61-79.12 4.84-.36-.03-.68-.05-1.03-.12-2.08-.3-4.11-.59-6.02-.84l-.12-.04c-1.9-.29-3.66-.57-5.36-.89-2.41-.42-4.66-.88-6.66-1.29-.87-.16-1.69-.36-2.46-.53-2.16-.47-4.01-.89-5.46-1.25-.59-.16-1.11-.29-1.58-.41-.04-.01-.04-.01-.08-.03-1.58-.41-2.42-.66-2.42-.66l-.62-2.35-11.01-40.3-.11-.36.04.01c28.46 7.12 89.44 19.42 137.9 8.83 27.8-6.07 57.33-20.46 72.14-39.79.43.52.42 1.35-.2 2.48" class="st42"/><path d="M369.86 387.62c-.66-.55 4.46-16.15 9.03-14.27s11.31 16.71 11.31 16.71-16.26 1.01-20.34-2.44M410.58 388.34c-.75-.42 1.41-16.69 6.25-15.68s14.2 14.34 14.2 14.34-15.8 3.97-20.45 1.34M446.86 383.07c-.83-.23-2.76-16.52 2.18-16.74s17.3 10.39 17.3 10.39-14.32 7.76-19.48 6.35" class="st63"/><path d="M396.64 365.92c-14.92-9.17-41.72-2.19-56.2 2.68-5.83 1.93-9.65 3.55-9.91 3.64-13.03 4.96-15.05 64.44-9.87 81.99 4.06 13.65 15.39 20.14 20.63 22.36 11.93 8.27 34.57 8.63 36.13 5.14 1.64-3.66-3.11-9.5-3.11-9.5s16.91 5.3 14.71-4.75c-.8-3.67-6.04-4.5-9.55-7.31-.62-.5-7.65-3.36-8.36-3.84 5.66-4.79 15.58-11.76 20.29-18.46 7.94-11.32 15.72-21.93 17.65-34.39 2.55-15.84-.74-30.32-12.41-37.56M32.93 365.92c14.92-9.17 41.72-2.19 56.2 2.68 5.83 1.93 9.65 3.55 9.91 3.64 13.03 4.96 15.05 64.44 9.87 81.99-4.06 13.65-15.39 20.14-20.63 22.36-11.93 8.27-34.57 8.63-36.13 5.14-1.65-3.66 3.11-9.5 3.11-9.5s-16.91 5.3-14.71-4.75c.8-3.67 5.81-5.51 9.32-8.32.62-.5 1.31-.98 2.03-1.46-5.66-4.79-11.22-10.49-15.93-17.2-7.94-11.32-13.51-24.57-15.44-37.03-2.56-15.83.73-30.31 12.4-37.55M302.38 282.81c.38-.57 26.64 4.72 29.64 10.09 3.01 5.37-19.25 26.85-20.9 27.28s-11.32-33.5-8.74-37.37" class="st63"/><path d="M310.49 310.5c.33-.49 23.15 4.11 25.76 8.77 2.61 4.67-16.73 23.33-18.17 23.71-1.43.37-9.83-29.12-7.59-32.48" class="st63"/><path d="M317.49 336.73c.32-.47 22.34 3.96 24.87 8.47 2.52 4.5-16.15 22.52-17.54 22.88-1.38.36-9.49-28.1-7.33-31.35" class="st63"/><path d="M321.49 334.81c-11.52-25.77-13.16-57.58-13.16-57.58l-95.04 4.86-95.04-4.86s-1.65 31.81-13.16 57.58c-11.52 25.77-42.22 93.77 0 126.13 35.69 27.34 91.7 22.96 108.2 20.95 16.49 2.01 72.51 6.4 108.2-20.95 42.23-32.36 11.52-100.35 0-126.13" class="st42"/><path d="M145.76 426.87c10.38 2.99 20.87 5.13 31.43 6.52 10.57 1.34 21.2 1.92 31.81 1.65s21.19-1.39 31.67-3.3c10.48-1.94 20.82-4.72 31.11-8.02-9.5 5.18-19.74 9.06-30.29 11.75-10.55 2.72-21.45 4.19-32.37 4.47-10.92.27-21.87-.64-32.55-2.78-10.66-2.14-21.16-5.4-30.81-10.29M187.71 326.18c3.47 1 6.98 1.72 10.51 2.18 3.53.45 7.08.65 10.63.55 3.55-.07 7.08-.47 10.58-1.11 3.5-.65 6.96-1.58 10.4-2.68-3.18 1.73-6.6 3.03-10.12 3.93-3.53.91-7.17 1.39-10.82 1.49-3.65.07-7.31-.21-10.88-.93-3.56-.71-7.07-1.8-10.3-3.43M150.88 390.32c9.53 2.75 19.17 4.72 28.88 5.99 9.71 1.26 19.48 1.76 29.22 1.51 9.75-.26 19.47-1.25 29.09-3.04 9.63-1.78 19.13-4.33 28.58-7.37-8.73 4.76-18.13 8.32-27.83 10.79s-19.7 3.86-29.73 4.1c-10.03.26-20.09-.61-29.9-2.56-9.8-1.94-19.44-4.93-28.31-9.42M163.69 352.1c7.42 2.14 14.93 3.67 22.49 4.66 3.78.46 7.57.86 11.37 1.03 3.79.2 7.59.28 11.39.15 3.8-.07 7.59-.33 11.36-.74 3.78-.36 7.54-.97 11.29-1.63 7.5-1.39 14.89-3.37 22.26-5.74-6.8 3.7-14.12 6.48-21.67 8.4-3.77 1-7.62 1.68-11.48 2.25-3.87.52-7.77.82-11.67.95-3.91.06-7.82-.03-11.71-.35-3.89-.36-7.76-.85-11.58-1.64-7.63-1.51-15.14-3.84-22.05-7.34M356.85 490.27c-2.9 5.83-19.21-7.72-20.31-8.6.66 1.18 8.03 14.74.83 16.01-13.95 2.46-25.22-14.52-27.95-13.42-2.76 1.1 5.22 11.49 1.1 14.52s-15.88-3.86-23.6-30.97c-7.63-27.16 6.05-48.52 4.69-55.67s-17.02-19.48-21.1-54.84c-4.12-35.36 11.23-61.99 11.76-63.35l27.2-5.13c1.14 7.9 7.02 23.16 13.6 40.75 1.4 3.69 2.81 7.46 4.26 11.32 5.09 13.86 10.18 28.43 13.47 41.41 1.54 6.01 2.68 11.71 3.29 16.85.22 1.84.35 3.6.44 5.31 1.36 32.9-12.28 45.58-12.33 50.19-.04 4.61 4.12 9.87 10.88 15.09 6.8 5.17 16.8 14.52 13.77 20.53" class="st62"/><path d="M115.16 282.49c-.38-.57-26.63 4.72-29.64 10.09s19.25 26.85 20.9 27.28 11.32-33.5 8.74-37.37" class="st63"/><path d="M107.05 310.18c-.33-.49-23.15 4.11-25.76 8.77-2.61 4.67 16.73 23.33 18.17 23.71 1.44.37 9.83-29.12 7.59-32.48" class="st63"/><path d="M100.05 336.41c-.32-.47-22.34 3.96-24.87 8.47-2.52 4.5 16.15 22.52 17.54 22.88s9.49-28.11 7.33-31.35" class="st63"/><path d="M135.26 293.96c.55 1.37 15.9 27.97 11.79 63.34s-19.74 47.71-21.11 54.84 12.34 28.52 4.66 55.66-19.47 34-23.58 30.98 3.84-13.41 1.1-14.51-13.98 15.88-27.97 13.41c-7.49-1.32.91-16.09.91-16.09s-17.37 14.71-20.38 8.68c-3.02-6.03 6.98-15.35 13.77-20.56s10.94-10.47 10.9-15.08-13.71-17.27-12.34-50.18c1.37-32.9 32.25-96.38 35.04-115.64z" class="st62"/><path d="M347.39 272.94c-55.14 35.24-173.76 63.33-270.29 0-48.81-31.99-63.99-71.24-57-105.6l.06-.05c1.21-6.1 3.13-11.98 5.72-17.7 17.1-37.93 43.65-34.8 46.45-51.07 2.86-16.27 1.03-86.02 57.88-96.91 46.64-8.93 53.16 25.45 82.02 26.55 28.86-1.1 30.17-32.05 82.02-26.55 57.56 6.1 55.03 80.64 57.88 96.91 2.86 16.27 29.41 13.14 46.45 51.07a80.5 80.5 0 0 1 5.77 17.98c7.02 34.45-7.93 73.98-56.96 105.37" style="fill:#a9d07f"/><path d="M347.39 272.94c-55.14 35.24-173.76 63.33-270.29 0-48.81-31.99-63.99-71.24-57-105.6l.06-.05c3.96-5.99 9.24-10.83 16.11-13.58 34.85-13.74 53.38 27.49 71.35 75.09 17.98 47.66 114.67 65.09 179.26 26.61s42.11-101.26 84.71-103.57c15.06-.77 25.67 5.77 32.76 15.72 7.02 34.46-7.93 73.99-56.96 105.38" class="st42"/><path d="M363.33 151.4s-15.06 11.1-17.87 28.86c-1.92 12.48.44 28.48-11.65 47.99-5.06 8.25-12.81 17.1-24.52 26.66-10.39 8.47-26.28 16-44.91 21.33-9.13 2.53-18.91 4.56-29.08 5.88-16.27 2.14-33.48 2.47-50.3.33-9.02-1.1-17.92-2.97-26.5-5.66-15.01-4.62-29.08-11.76-41.17-21.88-13.25-11.05-21.38-21.16-26.39-30.4-9.79-17.92-7.97-32.54-9.79-44.25C78.41 162.5 63.3 151.4 63.3 151.4c1.37 0 11.43-1.37 24.74 28.86 3.79 8.63 8.36 18.42 15.06 27.98 16.77 23.91 46.78 46.62 110.22 46.67 64.43-.05 94.33-23.47 110.93-47.77 6.32-9.24 10.72-18.58 14.35-26.88 13.29-30.24 23.35-28.86 24.73-28.86" class="st44"/><path d="M333.81 228.25c-5.06 8.25-12.81 17.1-24.52 26.66-10.39 8.47-26.28 16-44.91 21.33-9.13 2.53-18.91 4.56-29.08 5.88-16.27 2.14-33.48 2.47-50.3.33-9.02-1.1-17.92-2.97-26.5-5.66-15.01-4.62-29.08-11.76-41.17-21.88-13.25-11.05-21.38-21.16-26.39-30.4 2.31-8.96 7.53-13.69 12.15-16.27 3.13 4.45 6.76 8.91 10.94 13.14 4.62 4.73 10.01 9.18 16.27 13.25 3.13 2.03 6.49 3.96 10.11 5.72 4.95 2.47 10.33 4.73 16.22 6.6 15.17 5 33.75 7.97 56.68 7.97 22.21 0 40.24-2.8 55.14-7.48h.06c5.72-1.76 10.99-3.85 15.83-6.16 3.85-1.81 7.37-3.79 10.66-5.88a92 92 0 0 0 16.05-12.53c5.22-5 9.51-10.33 13.19-15.72 5.67 7.46 9.18 14.17 9.57 21.1" style="fill:#f66669"/><path d="M314.18 86.64c0 13.66-11.07 24.73-24.73 24.73s-24.73-11.07-24.73-24.73 11.07-24.73 24.73-24.73 24.73 11.07 24.73 24.73" class="st44"/><path d="M289.93 72.01c3.18 3.47 2.03 9.7-2.57 13.93-4.6 4.22-10.91 4.84-14.09 1.37s-2.03-9.7 2.57-13.93 10.91-4.84 14.09-1.37" class="st42"/><path d="M167.13 88.46c0 13.66-11.07 24.73-24.73 24.73s-24.73-11.07-24.73-24.73 11.07-24.73 24.73-24.73 24.73 11.07 24.73 24.73" class="st44"/><path d="M142.88 73.83c3.18 3.47 2.03 9.7-2.57 13.93-4.6 4.22-10.91 4.84-14.09 1.37s-2.03-9.7 2.57-13.93 10.91-4.84 14.09-1.37M185 282.45c-9.02-1.1-17.92-2.97-26.5-5.66.99-5.83 4.62-19.46 11.76-19.13 6.33.38 12.1 15.39 14.74 24.79M264.38 276.23c-9.13 2.53-18.91 4.56-29.08 5.88.38-8.8 1.48-21.11 8.74-23.09 7.15-1.97 15.12 8.53 20.34 17.21M312.26 246.44c-2.69 5.17-13.85-6.16-17.26-11.05a92 92 0 0 0 16.05-12.53c1.37 7.14 3.3 19.57 1.21 23.58M284.33 241.27c-.44 7.04-2.14 17.48-6.21 16.27-3.46-1.04-7.15-6.1-9.62-10.11 5.72-1.76 11-3.85 15.83-6.16M130.31 234.62c-2.64 4.34-14.9 17.26-17.76 11.82-2.2-4.29.16-18.31 1.48-25.07 4.62 4.73 10.01 9.18 16.28 13.25M156.64 246.94c-2.47 4.12-6.32 9.51-9.95 10.61-4.23 1.26-5.94-10.17-6.27-17.21 4.95 2.47 10.33 4.73 16.22 6.6" class="st42"/><path d="M241.55 201.19c-.13-.78-2.58-15.55 7.47-19.15 10.05-3.61 18.12 9.45 16.75 15.72s-7.99-5.41-11.77-2.41c-3.78 3.01-7.99 10.47-10.05 9.96s-1.76-.35-2.4-4.12M172.12 201.19c.13-.78 2.58-15.55-7.47-19.15-10.05-3.61-18.12 9.45-16.75 15.72s7.99-5.41 11.77-2.41c3.78 3.01 7.99 10.47 10.05 9.96s1.76-.35 2.4-4.12M231.89 154.49c0-.52 13.23-2.32 20.1 3.86" class="st63"/><path d="M230.56 154.49c0-.24.08-.56.26-.81.09-.12.19-.23.28-.31l.09-.07c.08-.06.17-.11.25-.16l.3-.16.42-.2c.25-.11.49-.19.73-.28.47-.17.94-.29 1.4-.41.93-.21 1.86-.38 2.8-.46 1.88-.19 3.78-.13 5.68.16 1.89.29 3.79.83 5.55 1.74 1.76.9 3.41 2.17 4.53 3.85.41.61.24 1.44-.37 1.85-.39.26-.87.29-1.26.11l-.09-.04c-1.52-.67-2.96-1.19-4.48-1.62-1.51-.41-3.06-.75-4.66-1.02-1.59-.27-3.22-.45-4.87-.63l-2.48-.21-1.23-.09-.57-.03c-.07-.01-.18-.01-.22-.03 0-.01-.08 0-.01-.04.04-.02.07-.06.11-.09.02-.02-.01 0 .05-.05.09-.07.18-.16.26-.28.16-.23.23-.53.21-.74 0 .74-.6 1.34-1.34 1.34s-1.34-.58-1.34-1.32M236.48 136.19c0-.52 13.23-2.32 20.1 3.86" class="st63"/><path d="M235.15 136.19c0-.24.08-.56.26-.81.09-.12.19-.23.28-.31l.09-.07c.08-.06.17-.11.25-.16l.3-.16.42-.2c.25-.11.49-.19.73-.28.47-.17.94-.29 1.4-.41.93-.21 1.86-.38 2.8-.46 1.88-.19 3.78-.13 5.68.16 1.89.29 3.79.83 5.55 1.74 1.76.9 3.41 2.17 4.53 3.85.41.61.24 1.44-.37 1.85-.39.26-.86.29-1.26.11l-.09-.04c-1.52-.67-2.96-1.19-4.48-1.62-1.51-.41-3.06-.75-4.66-1.02-1.59-.27-3.22-.45-4.87-.63l-2.48-.21-1.23-.09-.57-.03c-.07-.01-.18-.01-.22-.03 0-.01-.08 0-.01-.04.04-.02.07-.06.11-.09.02-.02-.01 0 .05-.05.09-.07.18-.16.26-.28.16-.23.23-.53.21-.74 0 .74-.6 1.34-1.34 1.34-.74.01-1.34-.59-1.34-1.32M195.53 153.66c0-.52-13.23-2.32-20.1 3.87" class="st63"/><path d="M194.19 153.66c-.02.22.05.52.21.75.08.11.17.21.26.28.06.05.03.03.05.05.03.03.07.06.11.09.07.04-.01.03-.01.04-.04.01-.14.02-.22.03l-.57.03-1.23.09-2.48.21c-1.65.18-3.28.36-4.87.63s-3.14.6-4.66 1.02-2.96.95-4.48 1.62l-.08.04c-.67.3-1.46-.01-1.76-.69-.19-.43-.13-.91.11-1.27 1.12-1.68 2.77-2.96 4.53-3.85 1.77-.9 3.66-1.45 5.55-1.74 1.9-.29 3.8-.35 5.68-.16.94.08 1.87.24 2.8.46.46.12.93.24 1.4.41.24.09.48.17.73.28l.42.2.3.16c.09.05.17.11.25.16l.08.07a1.45 1.45 0 0 1 .55 1.12c0 .74-.6 1.34-1.34 1.34s-1.33-.64-1.33-1.37M188.27 136.19c0-.52-13.23-2.32-20.1 3.86" class="st63"/><path d="M186.93 136.19c-.02.22.05.52.21.74.08.11.17.21.26.28.06.05.03.03.05.05.03.03.07.06.11.09.07.04-.01.03-.01.04-.04.01-.14.02-.22.03l-.57.03-1.23.09-2.48.21c-1.65.18-3.28.36-4.87.63s-3.14.6-4.66 1.02-2.96.95-4.48 1.62l-.08.04c-.67.3-1.46-.01-1.76-.69-.19-.43-.13-.91.11-1.27 1.12-1.68 2.77-2.96 4.53-3.85 1.77-.9 3.66-1.45 5.55-1.74 1.9-.29 3.8-.35 5.68-.16.94.08 1.87.24 2.8.46.46.12.93.24 1.4.41.24.09.48.17.73.28l.42.2.3.16c.09.05.17.11.25.16l.09.07c.1.08.2.18.28.31.18.25.26.57.26.81 0 .74-.6 1.34-1.34 1.34s-1.33-.63-1.33-1.36" class="st63"/></svg>