<?xml version="1.0" encoding="utf-8"?>
<!-- Generator: Adobe Illustrator 24.0.0, SVG Export Plug-In . SVG Version: 6.00 Build 0)  -->
<svg version="1.1" id="Layer_1" xmlns="http://www.w3.org/2000/svg" xmlns:xlink="http://www.w3.org/1999/xlink" x="0px" y="0px"
	 viewBox="0 0 500 500" style="enable-background:new 0 0 500 500;" xml:space="preserve">
<style type="text/css">
	.st0{fill:#7C7D7D;}
	.st1{fill:#0C0A08;}
	.st2{fill:#5A5D5D;}
	.st3{fill:#D2D4D5;}
	.st4{fill:#DE8CAB;}
	.st5{fill:#F1A055;}
	.st6{fill:#4D2A16;}
	.st7{fill:#FDE6C4;}
	.st8{fill:#DE893A;}
	.st9{fill:#EEA150;}
	.st10{fill:#F66669;}
	.st11{fill:#FDE6C4;stroke:#4D2A16;stroke-width:1.3386;stroke-linecap:round;stroke-linejoin:round;stroke-miterlimit:10;}
	.st12{fill:none;stroke:#4D2A16;stroke-width:1.3386;stroke-linecap:round;stroke-linejoin:round;stroke-miterlimit:10;}
	.st13{fill:#FFFFFF;}
	.st14{fill:#E64825;}
	.st15{fill:#FDCD4D;}
	.st16{fill:#FDE6CA;}
	.st17{fill:#5E3E2C;}
	.st18{fill:#B37951;}
	.st19{fill:#FFD7AE;}
	.st20{fill:#C1845B;}
	.st21{fill:#39231B;}
	.st22{fill:#FDD9AA;}
	.st23{fill:#906045;}
	.st24{fill:#F1B275;}
	.st25{fill:#F6595D;}
	.st26{fill:#F8E694;}
	.st27{fill:#8AA34F;}
	.st28{fill:#778C46;}
	.st29{fill:#EB96C4;}
	.st30{fill:#B1B6CA;}
	.st31{fill:#CBD0E4;}
	.st32{fill:#E7E7E7;}
	.st33{fill:#B4B3DE;}
	.st34{fill:#9493BA;}
	.st35{fill:#F9B0CD;}
	.st36{fill:#9B9ABF;}
	.st37{fill:#FEFEFE;}
	.st38{fill:#4C4B59;}
	.st39{fill:#41414D;}
	.st40{fill:#12021F;}
	.st41{fill:#679436;}
	.st42{fill:#FFFAC9;}
	.st43{fill:#A9D07F;}
	.st44{fill:#362113;}
	.st45{fill:#FEAD30;}
	.st46{fill:#FFCD4C;}
	.st47{fill:none;stroke:#4D2A16;stroke-width:1.1457;stroke-linecap:round;stroke-linejoin:round;stroke-miterlimit:10;}
	.st48{fill:#573929;}
	.st49{fill:#FFD7AE;stroke:#573929;stroke-width:1.3386;stroke-linecap:round;stroke-linejoin:round;stroke-miterlimit:10;}
	.st50{fill:none;stroke:#573929;stroke-width:1.3386;stroke-linecap:round;stroke-linejoin:round;stroke-miterlimit:10;}
	.st51{fill:#906045;stroke:#39231B;stroke-width:1.2711;stroke-linecap:round;stroke-linejoin:round;stroke-miterlimit:10;}
	.st52{fill:none;stroke:#39231B;stroke-width:1.2711;stroke-linecap:round;stroke-linejoin:round;stroke-miterlimit:10;}
	.st53{fill:#B6B6B6;}
	.st54{fill:#636666;}
	.st55{fill:#D2D4D1;}
	.st56{fill:#DE769D;}
	.st57{fill:#D2D4D5;stroke:#0C0A08;stroke-width:0.9823;stroke-linecap:round;stroke-linejoin:round;stroke-miterlimit:10;}
	.st58{fill:none;stroke:#0C0A08;stroke-width:1.0184;stroke-linecap:round;stroke-linejoin:round;stroke-miterlimit:10;}
	.st59{fill:#4B4A58;}
	.st60{fill:#FFFDFF;stroke:#12021F;stroke-width:1.1279;stroke-linecap:round;stroke-linejoin:round;stroke-miterlimit:10;}
	.st61{fill:none;stroke:#12021F;stroke-width:1.1279;stroke-linecap:round;stroke-linejoin:round;stroke-miterlimit:10;}
	.st62{fill:#A8D182;}
	.st63{fill:#8AB365;}
	.st64{fill:#F8E694;stroke:#39231B;stroke-width:1.0444;stroke-linecap:round;stroke-linejoin:round;stroke-miterlimit:10;}
	.st65{fill:#E7E6E9;}
	.st66{fill:#B6B8CD;}
	.st67{fill:#E376B1;}
	.st68{fill:#8281A3;}
	.st69{fill:#BAB9E6;}
	.st70{fill:none;}
	.st71{fill:#FDE6C4;stroke:#4D2A16;stroke-width:4.95;stroke-linecap:round;stroke-linejoin:round;stroke-miterlimit:10;}
	.st72{fill:none;stroke:#4D2A16;stroke-width:4.95;stroke-linecap:round;stroke-linejoin:round;stroke-miterlimit:10;}
	.st73{fill:#FDE6C4;stroke:#4D2A16;stroke-width:4.5341;stroke-linecap:round;stroke-linejoin:round;stroke-miterlimit:10;}
	.st74{fill:none;stroke:#4D2A16;stroke-width:3.8807;stroke-linecap:round;stroke-linejoin:round;stroke-miterlimit:10;}
	.st75{fill:#FFD7AE;stroke:#573929;stroke-width:4.8275;stroke-linecap:round;stroke-linejoin:round;stroke-miterlimit:10;}
	.st76{fill:none;stroke:#573929;stroke-width:4.8275;stroke-linecap:round;stroke-linejoin:round;stroke-miterlimit:10;}
	.st77{fill:#906045;stroke:#39231B;stroke-width:4.4588;stroke-linecap:round;stroke-linejoin:round;stroke-miterlimit:10;}
	.st78{fill:none;stroke:#39231B;stroke-width:4.4588;stroke-linecap:round;stroke-linejoin:round;stroke-miterlimit:10;}
	.st79{fill:#D2D4D5;stroke:#0C0A08;stroke-width:3.4912;stroke-linecap:round;stroke-linejoin:round;stroke-miterlimit:10;}
	.st80{fill:none;stroke:#0C0A08;stroke-width:3.6196;stroke-linecap:round;stroke-linejoin:round;stroke-miterlimit:10;}
	.st81{fill:#FFFDFF;stroke:#12021F;stroke-width:4.0523;stroke-linecap:round;stroke-linejoin:round;stroke-miterlimit:10;}
	.st82{fill:none;stroke:#12021F;stroke-width:4.0523;stroke-linecap:round;stroke-linejoin:round;stroke-miterlimit:10;}
	.st83{fill:#F8E694;stroke:#39231B;stroke-width:3.4156;stroke-linecap:round;stroke-linejoin:round;stroke-miterlimit:10;}
</style>
<g>
	<g>
		<g>
			<g>
				<g>
					<path class="st5" d="M246.06,441.6c-0.66,0.19-1.27,0.24-1.93,0.24c-3.67,0-7.01-2.5-7.91-6.31
						c-0.05-0.09-3.39-12.9-16.15-19.49c-2.92-1.51-6.17-2.64-9.7-3.25c-11.3-2.17-25.37,0.19-42.08,7.01
						c-2.5,1.04-4.94,1.98-7.44,2.87c-0.85,0.33-1.65,0.61-2.45,0.89c-3.58,1.27-7.15,2.45-10.69,3.48
						c-10.03,3.01-20.01,5.18-29.66,6.59h-0.05c-28.62,4.1-54.65,1.08-72.82-9.23c-0.38-0.19-0.71-0.38-1.04-0.56
						c-1.65-0.99-3.2-1.98-4.66-3.06c-0.75-0.52-1.46-1.04-2.12-1.65c-0.8-0.61-1.55-1.27-2.26-1.98
						c-7.67-6.97-12.29-15.68-13.56-25.66c-1.08-8.61-0.38-16.29,1.6-23.02c0.33-1.08,0.66-2.12,1.08-3.15
						c0.14-0.52,0.33-1.04,0.57-1.51c0-0.05,0-0.05,0.05-0.09c0.24-0.75,0.57-1.51,0.94-2.21c0.24-0.61,0.52-1.18,0.85-1.74
						c0.38-0.8,0.8-1.6,1.27-2.35c0.66-1.13,1.32-2.17,2.02-3.2c4.57-6.59,10.45-11.58,16.33-14.83c8.52-4.71,17.51-6.03,24.86-3.95
						c0.09,0.05,0.19,0.05,0.28,0.09c0.66,0.19,1.27,0.38,1.93,0.66c0.47,0.14,0.89,0.38,1.37,0.61c0.42,0.14,0.8,0.33,1.18,0.56
						c1.13,0.61,2.21,1.37,3.25,2.21c0.42,0.38,0.89,0.8,1.36,1.22c7.44,6.64,11.25,14.22,11.3,22.45
						c0.14,13.32-9.84,22.45-10.97,23.49c-3.44,2.97-8.57,2.59-11.53-0.85c-1.6-1.84-2.21-4.19-1.84-6.45
						c0.05-0.42,0.14-0.89,0.24-1.32c0-0.09,0-0.24,0.14-0.33c0.05-0.28,0.14-0.61,0.33-0.89c0.19-0.47,0.38-0.89,0.71-1.27
						c0.38-0.52,0.8-0.94,1.27-1.36c0.05-0.05,1.79-1.69,3.3-4.19c1.13-1.88,2.07-4.24,2.07-6.68c-0.05-3.62-2.35-7.39-6.83-11.16
						c-2.31-1.93-8.05-2.02-14.59,1.6c-6.78,3.77-13.51,11.11-15.82,21.8c-0.42,1.74-0.66,3.58-0.8,5.51
						c-0.14,2.59-0.09,5.37,0.28,8.29c0.14,1.08,0.33,2.17,0.61,3.15c0.05,0.14,0.09,0.28,0.14,0.42
						c1.79,6.64,6.5,12.24,13.89,16.62c2.97,1.74,6.45,3.34,10.4,4.66c1.27,0.42,2.54,0.8,3.91,1.18c1.32,0.38,2.73,0.71,4.14,0.99
						c0.47,0.09,0.94,0.19,1.46,0.28c2.26,0.52,4.66,0.89,7.16,1.22c0.14,0,0.28,0.05,0.42,0.05c1.13,0.14,2.26,0.28,3.44,0.38
						c11.2,0.99,24.1,0.52,38.27-1.98c8.24-1.46,16.95-3.62,25.94-6.54c2.92-0.94,5.84-1.98,8.85-3.15c0.09,0,0.24-0.05,0.38-0.09
						c1.79-0.66,3.58-1.37,5.37-2.12c1.13-0.47,2.26-0.89,3.39-1.32c16.15-6.17,30.55-8.61,43.07-7.34
						c6.92,0.71,13.28,2.59,19.02,5.55c19.44,10.07,24.24,29.47,24.48,30.27C253.16,436.09,250.39,440.56,246.06,441.6z"/>
				</g>
			</g>
			<g>
				<path class="st6" d="M71.13,335.43c0.65,4.85-1.33,13.71,0.21,14.23c1.35,0.47,6.88-5.66,9.17-8.86
					c-0.47-0.42-0.93-0.85-1.4-1.22C76.82,337.64,74.12,336.28,71.13,335.43z"/>
				<path class="st6" d="M23.14,368.48c5.04-0.85,12.62-0.75,14.02-3.25c1.31-2.31-3.66-7.63-7.21-11.02
					C27.1,358.31,24.72,363.11,23.14,368.48z"/>
				<path class="st6" d="M35.08,417.2c2.66,2.45,5.69,4.66,9.1,6.64c0.33,0.19,0.65,0.38,1.03,0.57c0.93-5.32,0.98-10.59-2.52-10.73
					C40.63,413.57,37.92,415.03,35.08,417.2z"/>
			</g>
		</g>
		<g>
			<ellipse class="st7" cx="256.51" cy="382.1" rx="102.68" ry="111.4"/>
			<g>
				<g>
					<path class="st8" d="M383.01,477.43c-1.08,0.61-2.26,1.04-3.53,1.37c-0.99,0.24-1.98,0.47-2.97,0.66
						c-2.26,0.52-4.47,0.94-6.54,1.32c-2.21,0.38-4.33,0.71-6.31,0.99h-0.05c-8.8,1.13-14.73,1.13-14.73,1.13l10.31-104.13
						c3.95,2.26,26.17,13.42,33.23,40.58C398.97,444.43,396.38,470.41,383.01,477.43z"/>
					<g>
						<path class="st6" d="M369.97,480.6c-2.21,0.44-4.33,0.82-6.31,1.15c1.27-3.29,2.82-8.62,3.01-14.66
							C366.68,467.1,369.27,474.24,369.97,480.6z"/>
						<path class="st6" d="M383.01,477.43c-1.08,0.61-2.26,1.04-3.53,1.37c-0.99,0.24-1.98,0.47-2.97,0.66
							c1.32-2.78,3.06-7.53,3.25-12.99C379.76,466.46,382.16,472.11,383.01,477.43z"/>
					</g>
				</g>
				<path class="st5" d="M365.63,421.84v0.05c-0.57,31.49-6.97,58.8-16.76,66.89c-10.03,8.24-30.13,11.77-47.78,10.73
					c-2.59-0.14-5.13-0.38-7.58-0.75c-2.54-0.33-4.99-0.8-7.25-1.41c-3.11-0.75-5.88-1.69-8.33-2.82
					c-6.03-2.78-9.84-6.68-9.98-11.63c-0.61-20.01,19.16-25.28,19.16-25.28s11.44-14.12,16.29-48.86
					c4.8-34.74-3.67-74.14-4.85-76.45l47.78-5.27c3.77,6.59,6.92,14.03,9.56,21.98c2.4,7.3,4.33,15.06,5.79,23.02
					c2.12,11.2,3.34,22.83,3.81,34.22C365.73,411.53,365.78,416.76,365.63,421.84z"/>
				<path class="st6" d="M337.73,344.06c0,1.36-1.85,2.45-4.12,2.45c-2.28,0-4.12-1.1-4.12-2.45c0-1.36,1.85-2.45,4.12-2.45
					C335.89,341.61,337.73,342.71,337.73,344.06z"/>
				<ellipse class="st6" cx="344.8" cy="390.59" rx="6.09" ry="3.38"/>
				<g>
					<path class="st6" d="M361.68,372.04c-9.98,0.09-25.66-0.85-27.07-5.41c-1.55-5.04,13.28-13.37,21.28-17.61
						C358.29,356.31,360.22,364.08,361.68,372.04z"/>
					<path class="st6" d="M365.63,421.84c-9.32-5.88-22.36-14.78-20.15-17.56c2.45-3.11,13.65,0.05,20.01,1.98
						C365.73,411.53,365.78,416.76,365.63,421.84z"/>
				</g>
				<g>
					<path class="st6" d="M282.74,496.65c-1.74-0.52-3.34-1.18-4.8-1.84c-0.75-0.33-1.46-0.71-2.12-1.04
						c-0.05-4.33,0.66-12.62,6.17-16.85C281.99,476.92,281.66,489.16,282.74,496.65z"/>
					<path class="st6" d="M296.44,499.42c-0.99-0.09-1.98-0.24-2.92-0.38c-1.32-0.19-2.64-0.38-3.91-0.66
						c0.19-4.61,1.46-16.43,6.97-22.97C296.58,475.41,295.64,490.43,296.44,499.42z"/>
					<path class="st6" d="M313.11,499.5c-2.64,0.14-5.27,0.19-7.91,0.14c0.33-2.59,1.41-6.83,4.33-12.43
						C309.53,487.22,311.08,494.52,313.11,499.5z"/>
				</g>
			</g>
			<g>
				<g>
					<path class="st8" d="M130.16,477.43c1.08,0.61,2.26,1.04,3.53,1.37c0.99,0.24,1.98,0.47,2.97,0.66
						c2.26,0.52,4.47,0.94,6.54,1.32c2.21,0.38,4.33,0.71,6.31,0.99h0.05c8.8,1.13,14.73,1.13,14.73,1.13l-10.31-104.13
						c-3.95,2.26-26.17,13.42-33.23,40.58C114.2,444.43,116.79,470.41,130.16,477.43z"/>
					<g>
						<path class="st6" d="M143.2,480.6c2.21,0.44,4.33,0.82,6.31,1.15c-1.27-3.29-2.82-8.62-3.01-14.66
							C146.49,467.1,143.91,474.24,143.2,480.6z"/>
						<path class="st6" d="M130.16,477.43c1.08,0.61,2.26,1.04,3.53,1.37c0.99,0.24,1.98,0.47,2.97,0.66
							c-1.32-2.78-3.06-7.53-3.25-12.99C133.41,466.46,131.01,472.11,130.16,477.43z"/>
					</g>
				</g>
				<path class="st5" d="M147.54,421.84v0.05c0.57,31.49,6.97,58.8,16.76,66.89c10.03,8.24,30.13,11.77,47.78,10.73
					c2.59-0.14,5.13-0.38,7.58-0.75c2.54-0.33,4.99-0.8,7.25-1.41c3.11-0.75,5.88-1.69,8.33-2.82c6.03-2.78,9.84-6.68,9.98-11.63
					c0.61-20.01-19.16-25.28-19.16-25.28s-11.44-14.12-16.29-48.86c-4.8-34.74,3.67-74.14,4.85-76.45l-47.78-5.27
					c-3.77,6.59-6.92,14.03-9.56,21.98c-2.4,7.3-4.33,15.06-5.79,23.02c-2.12,11.2-3.34,22.83-3.81,34.22
					C147.44,411.53,147.4,416.76,147.54,421.84z"/>
				<g>
					<path class="st6" d="M191.41,382.1c0,2.59-3.16,4.69-7.06,4.69c-3.9,0-7.06-2.1-7.06-4.69c0-2.59,3.16-4.69,7.06-4.69
						C188.25,377.41,191.41,379.51,191.41,382.1z"/>
					<path class="st6" d="M181.61,344.46c0,1.55-1.89,2.8-4.22,2.8c-2.33,0-4.22-1.25-4.22-2.8c0-1.55,1.89-2.8,4.22-2.8
						C179.72,341.66,181.61,342.91,181.61,344.46z"/>
				</g>
				<g>
					<path class="st6" d="M151.49,372.04c9.98,0.09,25.66-0.85,27.07-5.41c1.55-5.04-13.28-13.37-21.28-17.61
						C154.88,356.31,152.95,364.08,151.49,372.04z"/>
					<path class="st6" d="M147.54,421.84c9.32-5.88,22.36-14.78,20.15-17.56c-2.45-3.11-13.65,0.05-20.01,1.98
						C147.44,411.53,147.4,416.76,147.54,421.84z"/>
				</g>
				<g>
					<path class="st6" d="M230.43,496.65c1.74-0.52,3.34-1.18,4.8-1.84c0.75-0.33,1.46-0.71,2.12-1.04
						c0.05-4.33-0.66-12.62-6.17-16.85C231.18,476.92,231.51,489.16,230.43,496.65z"/>
					<path class="st6" d="M216.73,499.42c0.99-0.09,1.98-0.24,2.92-0.38c1.32-0.19,2.64-0.38,3.91-0.66
						c-0.19-4.61-1.46-16.43-6.97-22.97C216.59,475.41,217.53,490.43,216.73,499.42z"/>
					<path class="st6" d="M200.07,499.5c2.64,0.14,5.27,0.19,7.91,0.14c-0.33-2.59-1.41-6.83-4.33-12.43
						C203.64,487.22,202.09,494.52,200.07,499.5z"/>
				</g>
			</g>
		</g>
	</g>
	<g>
		<g>
			<g>
				<path class="st9" d="M432.78,120.24L385.7,74.96l-27.38-26.35c0,0,35.56-59.58,89.44-46.43c9.25,2.29,15.87,6.46,20.23,12.01
					C489.37,40.91,459.94,98.89,432.78,120.24z"/>
				<path class="st6" d="M432.78,120.24L385.7,74.96c13.65-24.43,39.97-58.48,81-60.73c0.44-0.05,0.89-0.05,1.29-0.05
					C489.37,40.91,459.94,98.89,432.78,120.24z"/>
			</g>
			<g>
				<path class="st9" d="M89.68,120.24l47.08-45.28l27.38-26.35c0,0-35.56-59.58-89.44-46.43c-9.25,2.29-15.87,6.46-20.23,12.01
					C33.09,40.91,62.52,98.89,89.68,120.24z"/>
				<path class="st6" d="M89.68,120.24l47.08-45.28c-13.65-24.43-39.97-58.48-81-60.73c-0.44-0.05-0.89-0.05-1.29-0.05
					C33.09,40.91,62.52,98.89,89.68,120.24z"/>
			</g>
			<path class="st5" d="M467.19,194.81c0,45.01-22.27,81.3-58.41,106.56c-37.7,26.44-90.6,40.88-149.15,40.88
				c-59.39,0-112.96-14.85-150.79-41.98c-35.21-25.21-56.77-61.09-56.77-105.46c0-92.12,92.91-186.07,207.56-186.07
				C374.23,8.73,467.19,102.69,467.19,194.81z"/>
			<path class="st6" d="M272.31,75.53c0,9.81-5.91,17.76-13.19,17.76c-7.29,0-13.19-7.95-13.19-17.76c0-9.81,5.91-22.91,13.19-22.91
				C266.41,52.62,272.31,65.72,272.31,75.53z"/>
			<path class="st6" d="M222.08,79.76c4.03,6.53,3.04,14.62-2.23,18.08c-5.26,3.46-12.8,0.97-16.84-5.56
				c-4.03-6.53-5.15-18.05,0.11-21.51C208.39,67.32,218.04,73.23,222.08,79.76z"/>
			<path class="st6" d="M295.96,79.76c-4.03,6.53-3.04,14.62,2.23,18.08c5.26,3.46,12.8,0.97,16.84-5.56
				c4.03-6.53,5.15-18.05-0.11-21.51C309.65,67.32,299.99,73.23,295.96,79.76z"/>
			<path class="st6" d="M366.93,63.39c0,5.28-5.54,9.57-12.36,9.57c-6.83,0-12.36-4.28-12.36-9.57s5.54-9.57,12.36-9.57
				C361.39,53.82,366.93,58.11,366.93,63.39z"/>
			<path class="st6" d="M171.74,63.39c0,5.28-5.54,9.57-12.36,9.57c-6.83,0-12.36-4.28-12.36-9.57s5.54-9.57,12.36-9.57
				C166.2,53.82,171.74,58.11,171.74,63.39z"/>
			<g>
				<path class="st6" d="M220.5,53.79c-10.45-1.19-22.94-20.21-30.36-33.09c9.07-3.16,18.45-5.68,28.1-7.61
					C226.28,30.28,233.08,55.16,220.5,53.79z"/>
				<path class="st6" d="M323.42,19.14c-7.25,12.83-20.41,33.41-31.25,34.6c-12.8,1.47-5.56-24.38,2.71-41.61
					C304.66,13.82,314.17,16.16,323.42,19.14z"/>
				<path class="st6" d="M269.8,9.33c-1.02,9.62-3.25,18.33-7.78,22.09c-7.56,6.23-13.6-6.87-16.98-21.86
					c4.67-0.32,9.34-0.5,14.09-0.5C262.73,9.06,266.29,9.15,269.8,9.33z"/>
				<g>
					<path class="st6" d="M458.03,145.63c-14.58,5.36-31.3,9.3-34.5,4.58c-3.38-5,10.05-18.79,22.81-30.89
						C451,127.9,454.92,136.65,458.03,145.63z"/>
					<path class="st6" d="M466.7,195.13c0,5.22-0.31,10.36-0.89,15.35c-10.14-1.19-24.76-4.08-25.25-10.63
						c-0.49-6.32,13.2-17.37,24.58-25.3C466.16,181.38,466.7,188.26,466.7,195.13z"/>
					<path class="st6" d="M458.7,239.54c-3.73,9.76-8.67,18.93-14.76,27.41c-8.85-5.73-18.05-13.8-13.43-20.12
						C434.33,241.56,446.78,239.77,458.7,239.54z"/>
					<path class="st6" d="M429,284.5c-4.05,3.99-8.4,7.84-12.98,11.46c-5.6-6.19-11.51-14.39-5.47-17.05
						C415.97,276.53,423.4,280.38,429,284.5z"/>
					<path class="st6" d="M442.78,173.5c0,4.43-3.48,8.02-7.78,8.02s-7.78-3.59-7.78-8.02c0-4.43,3.48-8.02,7.78-8.02
						S442.78,169.07,442.78,173.5z"/>
					<path class="st6" d="M412.77,258.57c0,3.69-3.48,6.68-7.78,6.68c-4.3,0-7.78-2.99-7.78-6.68c0-3.69,3.48-6.68,7.78-6.68
						C409.29,251.89,412.77,254.88,412.77,258.57z"/>
				</g>
				<g>
					<path class="st6" d="M93.14,150.22c-3.07,4.58-18.85,1.05-33.08-4.08c3.02-8.8,6.8-17.42,11.34-25.8
						C83.84,132.16,96.43,145.36,93.14,150.22z"/>
					<path class="st6" d="M76.11,199.85c-0.49,6.23-13.65,9.12-23.65,10.45c-0.58-4.95-0.89-9.99-0.89-15.17
						c0-6.51,0.44-13.06,1.38-19.57C64.02,183.4,76.55,193.8,76.11,199.85z"/>
					<path class="st6" d="M73.8,266.21c-5.87-8.25-10.63-17.14-14.23-26.63c11.43,0.37,22.94,2.25,26.58,7.24
						C90.6,252.92,82.33,260.58,73.8,266.21z"/>
					<path class="st6" d="M101.27,295.22c-4.49-3.62-8.76-7.38-12.71-11.41c5.47-3.85,12.4-7.15,17.56-4.9
						C111.94,281.43,106.69,289.13,101.27,295.22z"/>
					<path class="st6" d="M73.88,173.5c0,4.43,3.48,8.02,7.78,8.02c4.3,0,7.78-3.59,7.78-8.02c0-4.43-3.48-8.02-7.78-8.02
						C77.37,165.48,73.88,169.07,73.88,173.5z"/>
					<path class="st6" d="M103.89,258.57c0,3.69,3.48,6.68,7.78,6.68c4.3,0,7.78-2.99,7.78-6.68c0-3.69-3.48-6.68-7.78-6.68
						C107.37,251.89,103.89,254.88,103.89,258.57z"/>
				</g>
			</g>
		</g>
		<g>
			<path class="st7" d="M403.71,296.88c3.53,1.88,6.74,3.35,9.12,4.81c-38.86,26.44-93.4,40.88-153.76,40.88
				c-61.23,0-116.46-14.85-155.46-41.98c2.06-1.15,4.54-2.29,7.15-3.71c10.68-5.73,22.41-20.03,15.26-36.3
				c-4.22-9.53-46.01-31.71-27.13-95.1c16.41-55,60.27-66.09,91.48-52.43c39.28,17.19,25.02,83,33.41,101.33
				c8.43,18.33,31.67,22.04,31.67,22.04l7.42-0.92c6.97-1.92,21.49-7.42,27.77-21.13c8.43-18.33-5.82-84.15,33.46-101.33
				c31.21-13.66,75.02-2.57,91.43,52.43c18.93,63.38-22.92,85.57-27.09,95.1C381.3,276.85,393.03,291.15,403.71,296.88z"/>
			<g>
				<g>
					<g>
						<circle class="st6" cx="335.48" cy="181.52" r="27.31"/>
						<path class="st7" d="M333.87,165.36c3.51,3.83,2.24,10.71-2.84,15.38c-5.08,4.66-12.05,5.34-15.56,1.51
							c-3.51-3.83-2.24-10.71,2.84-15.38C323.39,162.21,330.36,161.54,333.87,165.36z"/>
					</g>
					<g>
						<circle class="st6" cx="182.45" cy="181.52" r="27.31"/>
						<path class="st7" d="M180.84,165.36c3.51,3.83,2.24,10.71-2.84,15.38c-5.08,4.66-12.05,5.34-15.56,1.51
							c-3.51-3.83-2.24-10.71,2.84-15.38C170.36,162.21,177.32,161.54,180.84,165.36z"/>
					</g>
				</g>
			</g>
			<path class="st10" d="M391.39,218.55c0,8.46-9.49,15.32-21.2,15.32c-11.71,0-21.2-6.86-21.2-15.32c0-8.46,9.49-15.32,21.2-15.32
				C381.9,203.23,391.39,210.09,391.39,218.55z"/>
			<path class="st10" d="M161.99,218.55c0,8.46-9.49,15.32-21.2,15.32s-21.2-6.86-21.2-15.32c0-8.46,9.49-15.32,21.2-15.32
				S161.99,210.09,161.99,218.55z"/>
			<g>
				<g>
					<g>
						<g>
							<path class="st6" d="M305.79,275.96c0,0-6.67,13.11-17.48,24.05c-9.76,9.95-22.96,18.12-37.49,13.05
								c-8.28-2.91-14.81-6.8-19.94-10.88c-11.37-9.09-16-19.41-17.62-22.88c-0.35-0.74-0.56-1.17-0.7-1.24l46.61-8.59
								L305.79,275.96z"/>
							<path class="st10" d="M288.31,300.01c-9.76,9.95-22.96,18.12-37.49,13.05c-8.28-2.91-14.81-6.8-19.94-10.88
								c7.93-5.01,18.74-7.98,30.61-7.98C271.61,294.2,280.87,296.36,288.31,300.01z"/>
						</g>
						<g>
							<path class="st71" d="M200.77,262.73c0,0,7.59,17.53,24.6,17.02c14.6-0.43,32.47-8.94,32.47-8.94s16.81,11.71,32.9,9.05
								c20.44-3.38,23.59-18.71,23.59-18.71"/>
						</g>
						<g>
							<path class="st72" d="M257.84,241.76c0,0,0,21.31-0.55,27.7"/>
						</g>
					</g>
					<path class="st10" d="M257.23,248.55c0,0-38.21-17.9-31.08-30c7.13-12.11,65.04-8.95,66.47,0.78
						C294.05,229.07,263.52,251.76,257.23,248.55z"/>
				</g>
			</g>
		</g>
	</g>
	<path class="st6" d="M38.36,392.59c-4.57-0.09-8.29-3.86-8.29-8.52c0-4.57,3.67-8.33,8.19-8.43c-0.42,1.74-0.66,3.58-0.8,5.51
		c-0.14,2.59-0.09,5.37,0.28,8.29C37.89,390.52,38.08,391.61,38.36,392.59z"/>
	<path class="st6" d="M54.26,341c1.17,2.02-0.57,5.2-3.88,7.11c-3.31,1.91-6.93,1.82-8.1-0.2c-1.17-2.02,0.57-5.2,3.88-7.11
		C49.47,338.89,53.1,338.98,54.26,341z"/>
	<path class="st6" d="M35.2,404.95c-0.89,1.53-3.04,1.95-4.82,0.92c-1.78-1.02-2.5-3.1-1.61-4.63c0.89-1.53,3.04-1.95,4.82-0.92
		C35.37,401.34,36.09,403.41,35.2,404.95z"/>
	<ellipse class="st6" cx="59.57" cy="420.72" rx="3.27" ry="4.38"/>
	<path class="st6" d="M83.32,418.39c-0.19,2.26-2.64,4-5.6,4c-3.15,0-5.7-1.93-5.7-4.33c0-0.47,0.09-0.89,0.28-1.32
		c2.26,0.52,4.66,0.89,7.16,1.22c0.14,0,0.28,0.05,0.42,0.05C81.01,418.16,82.14,418.3,83.32,418.39z"/>
</g>
</svg>
