<?xml version="1.0" encoding="utf-8"?>
<!-- Generator: Adobe Illustrator 24.0.0, SVG Export Plug-In . SVG Version: 6.00 Build 0)  -->
<svg version="1.1" id="Layer_1" xmlns="http://www.w3.org/2000/svg" xmlns:xlink="http://www.w3.org/1999/xlink" x="0px" y="0px"
	 viewBox="0 0 500 500" style="enable-background:new 0 0 500 500;" xml:space="preserve">
<style type="text/css">
	.st0{fill:#7C7D7D;}
	.st1{fill:#0C0A08;}
	.st2{fill:#5A5D5D;}
	.st3{fill:#D2D4D5;}
	.st4{fill:#DE8CAB;}
	.st5{fill:#F1A055;}
	.st6{fill:#4D2A16;}
	.st7{fill:#FDE6C4;}
	.st8{fill:#DE893A;}
	.st9{fill:#EEA150;}
	.st10{fill:#F66669;}
	.st11{fill:#FDE6C4;stroke:#4D2A16;stroke-width:1.3386;stroke-linecap:round;stroke-linejoin:round;stroke-miterlimit:10;}
	.st12{fill:none;stroke:#4D2A16;stroke-width:1.3386;stroke-linecap:round;stroke-linejoin:round;stroke-miterlimit:10;}
	.st13{fill:#FFFFFF;}
	.st14{fill:#E64825;}
	.st15{fill:#FDCD4D;}
	.st16{fill:#FDE6CA;}
	.st17{fill:#5E3E2C;}
	.st18{fill:#B37951;}
	.st19{fill:#FFD7AE;}
	.st20{fill:#C1845B;}
	.st21{fill:#39231B;}
	.st22{fill:#FDD9AA;}
	.st23{fill:#906045;}
	.st24{fill:#F1B275;}
	.st25{fill:#F6595D;}
	.st26{fill:#F8E694;}
	.st27{fill:#8AA34F;}
	.st28{fill:#778C46;}
	.st29{fill:#EB96C4;}
	.st30{fill:#B1B6CA;}
	.st31{fill:#CBD0E4;}
	.st32{fill:#E7E7E7;}
	.st33{fill:#B4B3DE;}
	.st34{fill:#9493BA;}
	.st35{fill:#F9B0CD;}
	.st36{fill:#9B9ABF;}
	.st37{fill:#FEFEFE;}
	.st38{fill:#4C4B59;}
	.st39{fill:#41414D;}
	.st40{fill:#12021F;}
	.st41{fill:#679436;}
	.st42{fill:#FFFAC9;}
	.st43{fill:#A9D07F;}
	.st44{fill:#362113;}
	.st45{fill:#FEAD30;}
	.st46{fill:#FFCD4C;}
	.st47{fill:none;stroke:#4D2A16;stroke-width:1.1457;stroke-linecap:round;stroke-linejoin:round;stroke-miterlimit:10;}
	.st48{fill:#573929;}
	.st49{fill:#FFD7AE;stroke:#573929;stroke-width:1.3386;stroke-linecap:round;stroke-linejoin:round;stroke-miterlimit:10;}
	.st50{fill:none;stroke:#573929;stroke-width:1.3386;stroke-linecap:round;stroke-linejoin:round;stroke-miterlimit:10;}
	.st51{fill:#906045;stroke:#39231B;stroke-width:1.2711;stroke-linecap:round;stroke-linejoin:round;stroke-miterlimit:10;}
	.st52{fill:none;stroke:#39231B;stroke-width:1.2711;stroke-linecap:round;stroke-linejoin:round;stroke-miterlimit:10;}
	.st53{fill:#B6B6B6;}
	.st54{fill:#636666;}
	.st55{fill:#D2D4D1;}
	.st56{fill:#DE769D;}
	.st57{fill:#D2D4D5;stroke:#0C0A08;stroke-width:0.9823;stroke-linecap:round;stroke-linejoin:round;stroke-miterlimit:10;}
	.st58{fill:none;stroke:#0C0A08;stroke-width:1.0184;stroke-linecap:round;stroke-linejoin:round;stroke-miterlimit:10;}
	.st59{fill:#4B4A58;}
	.st60{fill:#FFFDFF;stroke:#12021F;stroke-width:1.1279;stroke-linecap:round;stroke-linejoin:round;stroke-miterlimit:10;}
	.st61{fill:none;stroke:#12021F;stroke-width:1.1279;stroke-linecap:round;stroke-linejoin:round;stroke-miterlimit:10;}
	.st62{fill:#A8D182;}
	.st63{fill:#8AB365;}
	.st64{fill:#F8E694;stroke:#39231B;stroke-width:1.0444;stroke-linecap:round;stroke-linejoin:round;stroke-miterlimit:10;}
	.st65{fill:#E7E6E9;}
	.st66{fill:#B6B8CD;}
	.st67{fill:#E376B1;}
	.st68{fill:#8281A3;}
	.st69{fill:#BAB9E6;}
	.st70{fill:none;}
	.st71{fill:#FDE6C4;stroke:#4D2A16;stroke-width:4.95;stroke-linecap:round;stroke-linejoin:round;stroke-miterlimit:10;}
	.st72{fill:none;stroke:#4D2A16;stroke-width:4.95;stroke-linecap:round;stroke-linejoin:round;stroke-miterlimit:10;}
	.st73{fill:#FDE6C4;stroke:#4D2A16;stroke-width:4.5341;stroke-linecap:round;stroke-linejoin:round;stroke-miterlimit:10;}
	.st74{fill:none;stroke:#4D2A16;stroke-width:3.8807;stroke-linecap:round;stroke-linejoin:round;stroke-miterlimit:10;}
	.st75{fill:#FFD7AE;stroke:#573929;stroke-width:4.8275;stroke-linecap:round;stroke-linejoin:round;stroke-miterlimit:10;}
	.st76{fill:none;stroke:#573929;stroke-width:4.8275;stroke-linecap:round;stroke-linejoin:round;stroke-miterlimit:10;}
	.st77{fill:#906045;stroke:#39231B;stroke-width:4.4588;stroke-linecap:round;stroke-linejoin:round;stroke-miterlimit:10;}
	.st78{fill:none;stroke:#39231B;stroke-width:4.4588;stroke-linecap:round;stroke-linejoin:round;stroke-miterlimit:10;}
	.st79{fill:#D2D4D5;stroke:#0C0A08;stroke-width:3.4912;stroke-linecap:round;stroke-linejoin:round;stroke-miterlimit:10;}
	.st80{fill:none;stroke:#0C0A08;stroke-width:3.6196;stroke-linecap:round;stroke-linejoin:round;stroke-miterlimit:10;}
	.st81{fill:#FFFDFF;stroke:#12021F;stroke-width:4.0523;stroke-linecap:round;stroke-linejoin:round;stroke-miterlimit:10;}
	.st82{fill:none;stroke:#12021F;stroke-width:4.0523;stroke-linecap:round;stroke-linejoin:round;stroke-miterlimit:10;}
	.st83{fill:#F8E694;stroke:#39231B;stroke-width:3.4156;stroke-linecap:round;stroke-linejoin:round;stroke-miterlimit:10;}
</style>
<g>
	<path class="st20" d="M325.65,383.94c1.22-1.52,4.97-22.19,15.69-25.25c10.71-3.06,14.54,5.77,14.54,5.77s11.48-4.24,20.28,2.65
		s6.12,13.01,6.12,13.01s10.33,0.97,10.71,18.08c0.38,17.11-12.63,22.47-12.63,22.47s1.8,8.43-9.18,13.39
		c-10.99,4.96-34.95-7.65-36.22-8.8C333.68,424.11,319.53,391.59,325.65,383.94z"/>
	<g>
		<g>
			<g>
				<ellipse class="st20" cx="240.05" cy="382.4" rx="98.32" ry="110.75"/>
				<ellipse class="st19" cx="240.05" cy="373.07" rx="84.07" ry="94.69"/>
				<g>
					<g>
						<path class="st18" d="M363.86,477.47c-1.06,0.6-2.2,1.01-3.44,1.33c-0.96,0.23-1.93,0.46-2.89,0.64
							c-2.2,0.51-4.36,0.92-6.38,1.29c-2.16,0.37-4.22,0.69-6.15,0.96h-0.05c-8.58,1.1-14.37,1.1-14.37,1.1l10.05-101.55
							c3.86,2.2,25.53,13.08,32.41,39.57C379.43,445.28,376.9,470.63,363.86,477.47z"/>
						<g>
							<path class="st48" d="M351.15,480.57c-2.16,0.43-4.22,0.8-6.15,1.12c1.24-3.21,2.75-8.41,2.94-14.3
								C347.93,467.39,350.46,474.35,351.15,480.57z"/>
							<path class="st48" d="M363.86,477.47c-1.06,0.6-2.2,1.01-3.44,1.33c-0.96,0.23-1.93,0.46-2.89,0.64
								c1.29-2.71,2.98-7.35,3.17-12.67C360.7,466.77,363.04,472.28,363.86,477.47z"/>
						</g>
					</g>
					<path class="st20" d="M346.92,423.26v0.05c-0.55,30.71-6.79,57.34-16.34,65.24c-9.78,8.03-29.38,11.48-46.6,10.47
						c-2.52-0.14-5-0.37-7.39-0.73c-2.48-0.32-4.87-0.78-7.07-1.38c-3.03-0.73-5.74-1.65-8.13-2.75c-5.88-2.71-9.6-6.52-9.73-11.34
						c-0.6-19.51,18.69-24.65,18.69-24.65s11.16-13.77,15.88-47.65c4.68-33.88-3.58-72.31-4.73-74.56l46.6-5.14
						c3.67,6.43,6.75,13.68,9.32,21.44c2.34,7.12,4.22,14.69,5.65,22.45c2.07,10.93,3.26,22.27,3.72,33.38
						C347.01,413.2,347.05,418.3,346.92,423.26z"/>
					<g>
						<path class="st48" d="M266.08,496.21c-1.7-0.5-3.26-1.15-4.68-1.79c-0.73-0.32-1.42-0.69-2.07-1.01
							c-0.05-4.22,0.64-12.3,6.01-16.44C265.34,476.97,265.02,488.91,266.08,496.21z"/>
						<path class="st48" d="M279.44,498.92c-0.96-0.09-1.93-0.23-2.85-0.37c-1.29-0.18-2.57-0.37-3.81-0.64
							c0.18-4.5,1.42-16.02,6.8-22.4C279.57,475.5,278.65,490.15,279.44,498.92z"/>
						<path class="st48" d="M295.69,499c-2.57,0.14-5.14,0.18-7.71,0.14c0.32-2.52,1.38-6.66,4.22-12.12
							C292.2,487.02,293.71,494.13,295.69,499z"/>
					</g>
				</g>
				<g>
					<g>
						<path class="st18" d="M117.27,477.47c1.06,0.6,2.2,1.01,3.44,1.33c0.96,0.23,1.93,0.46,2.89,0.64
							c2.2,0.51,4.36,0.92,6.38,1.29c2.16,0.37,4.22,0.69,6.15,0.96h0.05c8.58,1.1,14.37,1.1,14.37,1.1L140.5,381.24
							c-3.86,2.2-25.53,13.08-32.41,39.57C101.71,445.28,104.23,470.63,117.27,477.47z"/>
						<g>
							<path class="st48" d="M129.99,480.57c2.16,0.43,4.22,0.8,6.15,1.12c-1.24-3.21-2.75-8.41-2.94-14.3
								C133.2,467.39,130.68,474.35,129.99,480.57z"/>
							<path class="st48" d="M117.27,477.47c1.06,0.6,2.2,1.01,3.44,1.33c0.96,0.23,1.93,0.46,2.89,0.64
								c-1.29-2.71-2.98-7.35-3.17-12.67C120.44,466.77,118.1,472.28,117.27,477.47z"/>
						</g>
					</g>
					<path class="st20" d="M134.22,423.26v0.05c0.55,30.71,6.79,57.34,16.34,65.24c9.78,8.03,29.38,11.48,46.6,10.47
						c2.52-0.14,5-0.37,7.39-0.73c2.48-0.32,4.87-0.78,7.07-1.38c3.03-0.73,5.74-1.65,8.13-2.75c5.88-2.71,9.6-6.52,9.73-11.34
						c0.6-19.51-18.68-24.65-18.68-24.65s-11.16-13.77-15.89-47.65c-4.68-33.88,3.58-72.31,4.73-74.56l-46.6-5.14
						c-3.67,6.43-6.75,13.68-9.32,21.44c-2.34,7.12-4.22,14.69-5.65,22.45c-2.07,10.93-3.26,22.27-3.72,33.38
						C134.13,413.2,134.08,418.3,134.22,423.26z"/>
					<g>
						<path class="st48" d="M215.06,496.21c1.7-0.5,3.26-1.15,4.68-1.79c0.73-0.32,1.42-0.69,2.07-1.01
							c0.05-4.22-0.64-12.3-6.01-16.44C215.79,476.97,216.11,488.91,215.06,496.21z"/>
						<path class="st48" d="M201.7,498.92c0.96-0.09,1.93-0.23,2.85-0.37c1.29-0.18,2.57-0.37,3.81-0.64
							c-0.18-4.5-1.42-16.02-6.79-22.4C201.56,475.5,202.48,490.15,201.7,498.92z"/>
						<path class="st48" d="M185.45,499c2.57,0.14,5.14,0.18,7.71,0.14c-0.32-2.52-1.38-6.66-4.22-12.12
							C188.93,487.02,187.42,494.13,185.45,499z"/>
					</g>
				</g>
			</g>
		</g>
	</g>
	<g>
		<path class="st20" d="M437.7,185.66c-5.36-6.89-14.92-84.17-81.11-131.23c-59.55-42.34-169.8-42.34-229.35,0
			c-66.19,47.06-75.75,124.34-81.11,131.23c-5.36,6.89-23.72,21.42-21.42,35.96c2.3,14.54,12.63,17.98,12.63,17.98
			s-16.07,26.78,27.16,43.23c0,0,51.84,58.19,177.42,58.19c125.58,0,177.42-58.19,177.42-58.19c43.23-16.45,27.16-43.23,27.16-43.23
			s10.33-3.44,12.63-17.98C461.42,207.08,443.05,192.54,437.7,185.66z"/>
		<g>
			<path class="st10" d="M378.2,223.34c0,8.25-9.25,14.95-20.67,14.95c-11.42,0-20.67-6.69-20.67-14.95
				c0-8.25,9.26-14.95,20.67-14.95C368.94,208.39,378.2,215.08,378.2,223.34z"/>
			<path class="st10" d="M143.65,225.49c0,8.25-9.25,14.95-20.67,14.95s-20.67-6.69-20.67-14.95s9.25-14.94,20.67-14.94
				S143.65,217.24,143.65,225.49z"/>
		</g>
		<g>
			<g>
				<path class="st20" d="M333.73,55.87c-0.57,1.15,11.76-58.82,60.83-55.67c49.07,3.16,60.25,54.57,47.91,79.25
					c-12.34,24.68-45.9,36.67-45.9,36.67L333.73,55.87z"/>
				<path class="st48" d="M364.53,58.93c0,0,3.84-35.77,33-32.23c25.25,3.06,35.43,27.75,26.45,47.25
					c-8.73,18.95-25.92,19.89-27.77,20.75C395.94,94.82,391.41,77.01,364.53,58.93z"/>
			</g>
			<g>
				<path class="st20" d="M153.25,55.87c0.57,1.15-11.76-58.82-60.83-55.67C43.36,3.36,32.17,54.78,44.51,79.45
					c12.34,24.68,45.9,36.67,45.9,36.67L153.25,55.87z"/>
				<path class="st48" d="M122.46,58.93c0,0-3.84-35.77-33-32.23c-25.25,3.06-35.43,27.75-26.45,47.25
					c8.73,18.95,25.92,19.89,27.77,20.75C91.05,94.82,95.58,77.01,122.46,58.93z"/>
			</g>
		</g>
		<g>
			<path class="st19" d="M313.58,251.14c0,36.1-31.67,65.36-70.73,65.36c-39.06,0-70.73-29.26-70.73-65.36
				c0-36.1,31.67-55.73,70.73-55.73C281.91,195.41,313.58,215.04,313.58,251.14z"/>
			<g>
				<g>
					<g>
						<g>
							<path class="st48" d="M289.89,268.57c0,0-6.5,12.78-17.05,23.46c-9.52,9.71-22.39,17.67-36.56,12.72
								c-8.08-2.83-14.45-6.63-19.44-10.61c-11.09-8.86-15.61-18.93-17.18-22.31c-0.34-0.72-0.55-1.15-0.68-1.21l45.46-8.38
								L289.89,268.57z"/>
							<path class="st10" d="M272.85,292.03c-9.52,9.71-22.39,17.67-36.56,12.72c-8.08-2.83-14.45-6.63-19.44-10.61
								c7.74-4.88,18.28-7.78,29.85-7.78C256.56,286.36,265.59,288.47,272.85,292.03z"/>
						</g>
						<g>
							<path class="st75" d="M187.47,255.67c0,0,7.4,17.09,23.99,16.6c14.24-0.42,31.67-8.72,31.67-8.72s16.4,11.42,32.09,8.82
								c19.94-3.3,23.01-18.24,23.01-18.24"/>
						</g>
						<g>
							<path class="st76" d="M243.13,235.22c0,0,0,20.78-0.54,27.02"/>
						</g>
					</g>
					<path class="st48" d="M240.5,251.49c0,0-37.27-17.45-30.31-29.26c6.95-11.81,63.43-8.73,64.83,0.77
						C276.41,232.49,246.64,254.63,240.5,251.49z"/>
				</g>
			</g>
		</g>
		<g>
			<g>
				<g>
					<path class="st48" d="M345.54,173.13c0,13.62-11.04,24.67-24.67,24.67c-13.62,0-24.67-11.04-24.67-24.67
						c0-13.62,11.04-24.67,24.67-24.67C334.5,148.46,345.54,159.51,345.54,173.13z"/>
					<path class="st19" d="M321.36,158.54c3.17,3.46,2.03,9.68-2.56,13.89c-4.59,4.21-10.88,4.82-14.06,1.36
						c-3.17-3.46-2.03-9.68,2.56-13.89C311.89,155.69,318.19,155.08,321.36,158.54z"/>
				</g>
				<g>
					<path class="st48" d="M192.93,173.13c0,13.62-11.04,24.67-24.67,24.67c-13.62,0-24.67-11.04-24.67-24.67
						c0-13.62,11.04-24.67,24.67-24.67C181.88,148.46,192.93,159.51,192.93,173.13z"/>
					<path class="st19" d="M168.75,158.54c3.17,3.46,2.03,9.68-2.56,13.89s-10.88,4.82-14.06,1.36c-3.17-3.46-2.03-9.68,2.56-13.89
						C159.28,155.69,165.57,155.08,168.75,158.54z"/>
				</g>
			</g>
		</g>
	</g>
</g>
</svg>
