<?xml version="1.0" encoding="utf-8"?>
<!-- Generator: Adobe Illustrator 24.0.0, SVG Export Plug-In . SVG Version: 6.00 Build 0)  -->
<svg version="1.1" id="Layer_1" xmlns="http://www.w3.org/2000/svg" xmlns:xlink="http://www.w3.org/1999/xlink" x="0px" y="0px"
	 viewBox="0 0 500 500" style="enable-background:new 0 0 500 500;" xml:space="preserve">
<style type="text/css">
	.st0{fill:#7C7D7D;}
	.st1{fill:#0C0A08;}
	.st2{fill:#5A5D5D;}
	.st3{fill:#D2D4D5;}
	.st4{fill:#DE8CAB;}
	.st5{fill:#F1A055;}
	.st6{fill:#4D2A16;}
	.st7{fill:#FDE6C4;}
	.st8{fill:#DE893A;}
	.st9{fill:#EEA150;}
	.st10{fill:#F66669;}
	.st11{fill:#FDE6C4;stroke:#4D2A16;stroke-width:1.3386;stroke-linecap:round;stroke-linejoin:round;stroke-miterlimit:10;}
	.st12{fill:none;stroke:#4D2A16;stroke-width:1.3386;stroke-linecap:round;stroke-linejoin:round;stroke-miterlimit:10;}
	.st13{fill:#FFFFFF;}
	.st14{fill:#E64825;}
	.st15{fill:#FDCD4D;}
	.st16{fill:#FDE6CA;}
	.st17{fill:#5E3E2C;}
	.st18{fill:#B37951;}
	.st19{fill:#FFD7AE;}
	.st20{fill:#C1845B;}
	.st21{fill:#39231B;}
	.st22{fill:#FDD9AA;}
	.st23{fill:#906045;}
	.st24{fill:#F1B275;}
	.st25{fill:#F6595D;}
	.st26{fill:#F8E694;}
	.st27{fill:#8AA34F;}
	.st28{fill:#778C46;}
	.st29{fill:#EB96C4;}
	.st30{fill:#B1B6CA;}
	.st31{fill:#CBD0E4;}
	.st32{fill:#E7E7E7;}
	.st33{fill:#B4B3DE;}
	.st34{fill:#9493BA;}
	.st35{fill:#F9B0CD;}
	.st36{fill:#9B9ABF;}
	.st37{fill:#FEFEFE;}
	.st38{fill:#4C4B59;}
	.st39{fill:#41414D;}
	.st40{fill:#12021F;}
	.st41{fill:#679436;}
	.st42{fill:#FFFAC9;}
	.st43{fill:#A9D07F;}
	.st44{fill:#362113;}
	.st45{fill:#FEAD30;}
	.st46{fill:#FFCD4C;}
	.st47{fill:none;stroke:#4D2A16;stroke-width:1.1457;stroke-linecap:round;stroke-linejoin:round;stroke-miterlimit:10;}
	.st48{fill:#573929;}
	.st49{fill:#FFD7AE;stroke:#573929;stroke-width:1.3386;stroke-linecap:round;stroke-linejoin:round;stroke-miterlimit:10;}
	.st50{fill:none;stroke:#573929;stroke-width:1.3386;stroke-linecap:round;stroke-linejoin:round;stroke-miterlimit:10;}
	.st51{fill:#906045;stroke:#39231B;stroke-width:1.2711;stroke-linecap:round;stroke-linejoin:round;stroke-miterlimit:10;}
	.st52{fill:none;stroke:#39231B;stroke-width:1.2711;stroke-linecap:round;stroke-linejoin:round;stroke-miterlimit:10;}
	.st53{fill:#B6B6B6;}
	.st54{fill:#636666;}
	.st55{fill:#D2D4D1;}
	.st56{fill:#DE769D;}
	.st57{fill:#D2D4D5;stroke:#0C0A08;stroke-width:0.9823;stroke-linecap:round;stroke-linejoin:round;stroke-miterlimit:10;}
	.st58{fill:none;stroke:#0C0A08;stroke-width:1.0184;stroke-linecap:round;stroke-linejoin:round;stroke-miterlimit:10;}
	.st59{fill:#4B4A58;}
	.st60{fill:#FFFDFF;stroke:#12021F;stroke-width:1.1279;stroke-linecap:round;stroke-linejoin:round;stroke-miterlimit:10;}
	.st61{fill:none;stroke:#12021F;stroke-width:1.1279;stroke-linecap:round;stroke-linejoin:round;stroke-miterlimit:10;}
	.st62{fill:#A8D182;}
	.st63{fill:#8AB365;}
	.st64{fill:#F8E694;stroke:#39231B;stroke-width:1.0444;stroke-linecap:round;stroke-linejoin:round;stroke-miterlimit:10;}
	.st65{fill:#E7E6E9;}
	.st66{fill:#B6B8CD;}
	.st67{fill:#E376B1;}
	.st68{fill:#8281A3;}
	.st69{fill:#BAB9E6;}
	.st70{fill:none;}
	.st71{fill:#FDE6C4;stroke:#4D2A16;stroke-width:4.95;stroke-linecap:round;stroke-linejoin:round;stroke-miterlimit:10;}
	.st72{fill:none;stroke:#4D2A16;stroke-width:4.95;stroke-linecap:round;stroke-linejoin:round;stroke-miterlimit:10;}
	.st73{fill:#FDE6C4;stroke:#4D2A16;stroke-width:4.5341;stroke-linecap:round;stroke-linejoin:round;stroke-miterlimit:10;}
	.st74{fill:none;stroke:#4D2A16;stroke-width:3.8807;stroke-linecap:round;stroke-linejoin:round;stroke-miterlimit:10;}
	.st75{fill:#FFD7AE;stroke:#573929;stroke-width:4.8275;stroke-linecap:round;stroke-linejoin:round;stroke-miterlimit:10;}
	.st76{fill:none;stroke:#573929;stroke-width:4.8275;stroke-linecap:round;stroke-linejoin:round;stroke-miterlimit:10;}
	.st77{fill:#906045;stroke:#39231B;stroke-width:4.4588;stroke-linecap:round;stroke-linejoin:round;stroke-miterlimit:10;}
	.st78{fill:none;stroke:#39231B;stroke-width:4.4588;stroke-linecap:round;stroke-linejoin:round;stroke-miterlimit:10;}
	.st79{fill:#D2D4D5;stroke:#0C0A08;stroke-width:3.4912;stroke-linecap:round;stroke-linejoin:round;stroke-miterlimit:10;}
	.st80{fill:none;stroke:#0C0A08;stroke-width:3.6196;stroke-linecap:round;stroke-linejoin:round;stroke-miterlimit:10;}
	.st81{fill:#FFFDFF;stroke:#12021F;stroke-width:4.0523;stroke-linecap:round;stroke-linejoin:round;stroke-miterlimit:10;}
	.st82{fill:none;stroke:#12021F;stroke-width:4.0523;stroke-linecap:round;stroke-linejoin:round;stroke-miterlimit:10;}
	.st83{fill:#F8E694;stroke:#39231B;stroke-width:3.4156;stroke-linecap:round;stroke-linejoin:round;stroke-miterlimit:10;}
</style>
<g>
	<path class="st38" d="M335.25,384.62c1.21-1.52,4.95-22.11,15.63-25.16c10.67-3.05,14.48,5.75,14.48,5.75s11.43-4.22,20.2,2.64
		c8.77,6.86,6.1,12.96,6.1,12.96s10.29,0.96,10.67,18.02c0.38,17.05-12.58,22.39-12.58,22.39s1.8,8.39-9.15,13.34
		s-34.82-7.62-36.09-8.77C343.25,424.64,329.15,392.25,335.25,384.62z"/>
	<g>
		<g>
			<g>
				<ellipse class="st38" cx="249.97" cy="383.09" rx="97.95" ry="110.33"/>
				<path class="st37" d="M297.72,425.69c0,27.7-23.08,50.16-51.55,50.16s-51.55-22.46-51.55-50.16c0-27.7,21.74-56.16,50.21-56.16
					S297.72,397.98,297.72,425.69z"/>
				<g>
					<g>
						<path class="st39" d="M373.32,477.8c-1.05,0.59-2.19,1.01-3.43,1.33c-0.96,0.23-1.92,0.46-2.88,0.64
							c-2.19,0.5-4.34,0.92-6.36,1.28c-2.15,0.37-4.21,0.69-6.13,0.96h-0.05c-8.55,1.1-14.32,1.1-14.32,1.1l10.02-101.17
							c3.84,2.2,25.43,13.04,32.29,39.43C388.83,445.74,386.31,470.99,373.32,477.8z"/>
						<g>
							<path class="st40" d="M360.65,480.89c-2.15,0.43-4.21,0.8-6.13,1.12c1.23-3.2,2.74-8.38,2.93-14.24
								C357.45,467.77,359.97,474.7,360.65,480.89z"/>
							<path class="st40" d="M373.32,477.8c-1.05,0.59-2.19,1.01-3.43,1.33c-0.96,0.23-1.92,0.46-2.88,0.64
								c1.28-2.7,2.97-7.32,3.16-12.62C370.17,467.15,372.5,472.64,373.32,477.8z"/>
						</g>
					</g>
					<path class="st38" d="M356.44,423.8v0.05c-0.55,30.6-6.77,57.13-16.28,64.99c-9.74,8-29.27,11.43-46.42,10.43
						c-2.52-0.14-4.99-0.37-7.36-0.73c-2.47-0.32-4.85-0.78-7.04-1.37c-3.02-0.73-5.72-1.65-8.1-2.74c-5.85-2.7-9.56-6.49-9.7-11.3
						c-0.59-19.44,18.61-24.56,18.61-24.56s11.11-13.72,15.83-47.48c4.67-33.75-3.57-72.04-4.71-74.28l46.42-5.12
						c3.66,6.4,6.72,13.63,9.29,21.36c2.33,7.09,4.21,14.64,5.63,22.37c2.06,10.89,3.25,22.18,3.7,33.25
						C356.53,413.78,356.58,418.86,356.44,423.8z"/>
					<g>
						<path class="st40" d="M275.9,496.48c-1.69-0.5-3.25-1.14-4.67-1.78c-0.73-0.32-1.42-0.69-2.06-1.01
							c-0.05-4.21,0.64-12.26,5.99-16.37C275.17,477.31,274.85,489.2,275.9,496.48z"/>
						<path class="st40" d="M289.21,499.17c-0.96-0.09-1.92-0.23-2.84-0.37c-1.28-0.18-2.56-0.37-3.8-0.64
							c0.18-4.48,1.42-15.96,6.77-22.32C289.35,475.85,288.43,490.44,289.21,499.17z"/>
						<path class="st40" d="M305.4,499.25c-2.56,0.14-5.12,0.18-7.68,0.14c0.32-2.52,1.37-6.63,4.21-12.07
							C301.93,487.32,303.44,494.41,305.4,499.25z"/>
					</g>
				</g>
				<g>
					<g>
						<path class="st39" d="M127.65,477.8c1.05,0.59,2.19,1.01,3.43,1.33c0.96,0.23,1.92,0.46,2.88,0.64
							c2.19,0.5,4.34,0.92,6.36,1.28c2.15,0.37,4.21,0.69,6.13,0.96h0.05c8.55,1.1,14.32,1.1,14.32,1.1L150.8,381.94
							c-3.84,2.2-25.43,13.04-32.29,39.43C112.15,445.74,114.66,470.99,127.65,477.8z"/>
						<g>
							<path class="st40" d="M140.32,480.89c2.15,0.43,4.21,0.8,6.13,1.12c-1.23-3.2-2.74-8.38-2.93-14.24
								C143.53,467.77,141.01,474.7,140.32,480.89z"/>
							<path class="st40" d="M127.65,477.8c1.05,0.59,2.19,1.01,3.43,1.33c0.96,0.23,1.92,0.46,2.88,0.64
								c-1.28-2.7-2.97-7.32-3.16-12.62C130.81,467.15,128.48,472.64,127.65,477.8z"/>
						</g>
					</g>
					<path class="st38" d="M144.54,423.8v0.05c0.55,30.6,6.77,57.13,16.28,64.99c9.74,8,29.27,11.43,46.42,10.43
						c2.52-0.14,4.99-0.37,7.36-0.73c2.47-0.32,4.85-0.78,7.04-1.37c3.02-0.73,5.72-1.65,8.1-2.74c5.85-2.7,9.56-6.49,9.7-11.3
						c0.59-19.44-18.62-24.56-18.62-24.56s-11.11-13.72-15.83-47.48c-4.67-33.75,3.57-72.04,4.71-74.28l-46.42-5.12
						c-3.66,6.4-6.72,13.63-9.28,21.36c-2.33,7.09-4.21,14.64-5.63,22.37c-2.06,10.89-3.25,22.18-3.7,33.25
						C144.45,413.78,144.4,418.86,144.54,423.8z"/>
					<g>
						<path class="st40" d="M225.07,496.48c1.69-0.5,3.25-1.14,4.67-1.78c0.73-0.32,1.42-0.69,2.06-1.01
							c0.05-4.21-0.64-12.26-5.99-16.37C225.81,477.31,226.13,489.2,225.07,496.48z"/>
						<path class="st40" d="M211.77,499.17c0.96-0.09,1.92-0.23,2.84-0.37c1.28-0.18,2.56-0.37,3.8-0.64
							c-0.18-4.48-1.42-15.96-6.77-22.32C211.63,475.85,212.54,490.44,211.77,499.17z"/>
						<path class="st40" d="M195.57,499.25c2.56,0.14,5.12,0.18,7.68,0.14c-0.32-2.52-1.37-6.63-4.21-12.07
							C199.05,487.32,197.54,494.41,195.57,499.25z"/>
					</g>
				</g>
			</g>
		</g>
	</g>
	<g>
		<g>
			<path class="st38" d="M463.74,108.01c-16.39,32.24-54.93,48.67-90.67,30.5c-35.74-18.18-61.32-67.96-44.93-100.2
				c16.39-32.24,62.25-46.11,98-27.93C461.88,28.55,480.13,75.77,463.74,108.01z"/>
			<path class="st10" d="M428.38,95.46c-9.41,18.5-33.66,25.04-54.18,14.61c-20.51-10.43-29.51-33.89-20.11-52.39
				c9.41-18.5,33.66-25.04,54.18-14.61C428.79,53.51,437.79,76.96,428.38,95.46z"/>
		</g>
		<g>
			<path class="st38" d="M37.24,108.01c16.39,32.24,54.93,48.67,90.67,30.5c35.74-18.18,61.32-67.96,44.93-100.2
				c-16.39-32.24-62.25-46.11-98-27.93C39.1,28.55,20.85,75.77,37.24,108.01z"/>
			<path class="st10" d="M72.59,95.46c9.41,18.5,33.66,25.04,54.18,14.61s29.51-33.89,20.11-52.39S113.21,32.65,92.7,43.08
				C72.19,53.51,63.18,76.96,72.59,95.46z"/>
		</g>
		<path class="st37" d="M436.05,196.07c0.56-4.88,0.87-9.82,0.87-14.82c0-84.66-82.59-153.3-184.47-153.3S67.99,96.59,67.99,181.26
			c0,5,0.31,9.94,0.87,14.82C61,208.17,56.68,221.24,56.68,234.9c0,61.66,87.65,111.64,195.78,111.64s195.78-49.98,195.78-111.64
			C448.23,221.24,443.92,208.17,436.05,196.07z"/>
		<path class="st59" d="M205.23,213.12c1.09,1.09,11.98-54.19-28.05-68.07c-40.03-13.89-83.05,37.18-77.87,76.79
			c5.58,42.74,62.35,43.84,83.32,27.5C203.73,232.89,205.23,213.12,205.23,213.12z"/>
		<path class="st37" d="M223.58,36.13c0.54-3.27,7.62-35.94,20.69-35.94c13.07,0,4.92,22.87,4.92,22.87s20.33-16.7,26.67-4.9
			c6.34,11.79-15.79,27.23-15.79,27.23"/>
		<g>
			<path class="st59" d="M292.74,213.12c-1.09,1.09-11.98-54.19,28.05-68.07c40.03-13.89,83.05,37.18,77.87,76.79
				c-5.58,42.74-62.35,43.84-83.32,27.5C294.24,232.89,292.74,213.12,292.74,213.12z"/>
			<g>
				<circle class="st40" cx="331.18" cy="204.19" r="26.47"/>
				<path class="st37" d="M331.7,188.53c3.41,3.71,2.18,10.39-2.75,14.91c-4.92,4.52-11.68,5.18-15.09,1.46
					c-3.41-3.71-2.18-10.39,2.75-14.91C321.54,185.47,328.29,184.82,331.7,188.53z"/>
			</g>
		</g>
		<g>
			<circle class="st40" cx="165.73" cy="204.19" r="26.47"/>
			<path class="st37" d="M166.25,188.53c3.41,3.71,2.18,10.39-2.75,14.91c-4.92,4.52-11.68,5.18-15.09,1.46
				c-3.41-3.71-2.18-10.39,2.75-14.91C156.09,185.47,162.84,184.82,166.25,188.53z"/>
		</g>
		<g>
			<g>
				<g>
					<g>
						<path class="st40" d="M289.96,260.03c0,0-5.46,10.73-14.31,19.69c-7.99,8.15-18.79,14.83-30.69,10.68
							c-6.78-2.38-12.13-5.57-16.32-8.91c-9.31-7.44-13.1-15.89-14.42-18.73c-0.29-0.61-0.46-0.96-0.57-1.01l38.16-7.04
							L289.96,260.03z"/>
						<path class="st10" d="M275.65,279.72c-7.99,8.15-18.79,14.83-30.69,10.68c-6.78-2.38-12.13-5.57-16.32-8.91
							c6.49-4.1,15.34-6.53,25.06-6.53C261.97,274.96,269.56,276.73,275.65,279.72z"/>
					</g>
					<g>
						<g>
							<path class="st81" d="M203.98,249.19c0,0,6.21,14.35,20.14,13.94c11.96-0.35,26.59-7.32,26.59-7.32s13.76,9.59,26.94,7.41
								c16.74-2.77,19.32-15.31,19.32-15.31"/>
						</g>
					</g>
					<g>
						<path class="st82" d="M250.7,232.03c0,0,0,17.44-0.45,22.68"/>
					</g>
				</g>
				<path class="st40" d="M249.59,242.34c0,0-24.47-11.46-19.9-19.21c4.57-7.75,41.65-5.73,42.57,0.5
					C273.17,229.87,253.62,244.4,249.59,242.34z"/>
			</g>
		</g>
		<g>
			<path class="st10" d="M416.27,273.19c0,7.83-8.78,14.18-19.62,14.18c-10.83,0-19.62-6.35-19.62-14.18
				c0-7.83,8.78-14.18,19.62-14.18C407.49,259.01,416.27,265.35,416.27,273.19z"/>
			<path class="st10" d="M131.59,273.19c0,7.83-8.78,14.18-19.62,14.18c-10.83,0-19.62-6.35-19.62-14.18
				c0-7.83,8.78-14.18,19.62-14.18C122.8,259.01,131.59,265.35,131.59,273.19z"/>
		</g>
	</g>
</g>
</svg>
